G04 #@! TF.GenerationSoftware,KiCad,Pcbnew,(5.1.10-1-10_14)*
G04 #@! TF.CreationDate,2021-12-08T21:49:38+01:00*
G04 #@! TF.ProjectId,kicad_panel,6b696361-645f-4706-916e-656c2e6b6963,rev?*
G04 #@! TF.SameCoordinates,Original*
G04 #@! TF.FileFunction,Profile,NP*
%FSLAX46Y46*%
G04 Gerber Fmt 4.6, Leading zero omitted, Abs format (unit mm)*
G04 Created by KiCad (PCBNEW (5.1.10-1-10_14)) date 2021-12-08 21:49:38*
%MOMM*%
%LPD*%
G01*
G04 APERTURE LIST*
G04 #@! TA.AperFunction,Profile*
%ADD10C,0.100000*%
G04 #@! TD*
G04 APERTURE END LIST*
D10*
X126613800Y-142857500D02*
X126609800Y-143014500D01*
X126609800Y-143014500D02*
X126598100Y-143169500D01*
X126598100Y-143169500D02*
X126578700Y-143322500D01*
X126578700Y-143322500D02*
X126551800Y-143472500D01*
X126551800Y-143472500D02*
X126517800Y-143620500D01*
X126517800Y-143620500D02*
X126476700Y-143764500D01*
X126476700Y-143764500D02*
X126428700Y-143906500D01*
X126428700Y-143906500D02*
X126374100Y-144044500D01*
X126374100Y-144044500D02*
X126313000Y-144180500D01*
X126313000Y-144180500D02*
X126245700Y-144311500D01*
X126245700Y-144311500D02*
X126172200Y-144439500D01*
X126172200Y-144439500D02*
X126092900Y-144563500D01*
X126092900Y-144563500D02*
X126007900Y-144682500D01*
X126007900Y-144682500D02*
X125917300Y-144797500D01*
X125917300Y-144797500D02*
X125821400Y-144908500D01*
X125821400Y-144908500D02*
X125720500Y-145014500D01*
X125720500Y-145014500D02*
X125614500Y-145115500D01*
X125614500Y-145115500D02*
X125503900Y-145211500D01*
X125503900Y-145211500D02*
X125388600Y-145302500D01*
X125388600Y-145302500D02*
X125269000Y-145387500D01*
X125269000Y-145387500D02*
X125145300Y-145466500D01*
X125145300Y-145466500D02*
X125017600Y-145539500D01*
X125017600Y-145539500D02*
X124886000Y-145607500D01*
X124886000Y-145607500D02*
X124750900Y-145668500D01*
X124750900Y-145668500D02*
X124612400Y-145722500D01*
X124612400Y-145722500D02*
X124470710Y-145770500D01*
X124470710Y-145770500D02*
X124325960Y-145812500D01*
X124325960Y-145812500D02*
X124178400Y-145846500D01*
X124178400Y-145846500D02*
X124028200Y-145872500D01*
X124028200Y-145872500D02*
X123875550Y-145892500D01*
X123875550Y-145892500D02*
X123720660Y-145904500D01*
X123720660Y-145904500D02*
X123563700Y-145908500D01*
X123563700Y-145908500D02*
X123406770Y-145904500D01*
X123406770Y-145904500D02*
X123251910Y-145892500D01*
X123251910Y-145892500D02*
X123099290Y-145872500D01*
X123099290Y-145872500D02*
X122949130Y-145846500D01*
X122949130Y-145846500D02*
X122801560Y-145812500D01*
X122801560Y-145812500D02*
X122656850Y-145770500D01*
X122656850Y-145770500D02*
X122515170Y-145722500D01*
X122515170Y-145722500D02*
X122376670Y-145668500D01*
X122376670Y-145668500D02*
X122241600Y-145607500D01*
X122241600Y-145607500D02*
X122110080Y-145539500D01*
X122110080Y-145539500D02*
X121982370Y-145466500D01*
X121982370Y-145466500D02*
X121858620Y-145387500D01*
X121858620Y-145387500D02*
X121739060Y-145302500D01*
X121739060Y-145302500D02*
X121623850Y-145211500D01*
X121623850Y-145211500D02*
X121513180Y-145115500D01*
X121513180Y-145115500D02*
X121407240Y-145014500D01*
X121407240Y-145014500D02*
X121306280Y-144908500D01*
X121306280Y-144908500D02*
X121210430Y-144797500D01*
X121210430Y-144797500D02*
X121119870Y-144682500D01*
X121119870Y-144682500D02*
X121034850Y-144563500D01*
X121034850Y-144563500D02*
X120955510Y-144439500D01*
X120955510Y-144439500D02*
X120882060Y-144311500D01*
X120882060Y-144311500D02*
X120814710Y-144180500D01*
X120814710Y-144180500D02*
X120753610Y-144044500D01*
X120753610Y-144044500D02*
X120699000Y-143906500D01*
X120699000Y-143906500D02*
X120651060Y-143764500D01*
X120651060Y-143764500D02*
X120609960Y-143620500D01*
X120609960Y-143620500D02*
X120575920Y-143472500D01*
X120575920Y-143472500D02*
X120549070Y-143322500D01*
X120549070Y-143322500D02*
X120529670Y-143169500D01*
X120529670Y-143169500D02*
X120517920Y-143014500D01*
X120517920Y-143014500D02*
X120513930Y-142857500D01*
X120513930Y-142857500D02*
X120517920Y-142700500D01*
X120517920Y-142700500D02*
X120529670Y-142546500D01*
X120529670Y-142546500D02*
X120549070Y-142393500D01*
X120549070Y-142393500D02*
X120575920Y-142243500D01*
X120575920Y-142243500D02*
X120609960Y-142095500D01*
X120609960Y-142095500D02*
X120651060Y-141950500D01*
X120651060Y-141950500D02*
X120699000Y-141809500D01*
X120699000Y-141809500D02*
X120753610Y-141670500D01*
X120753610Y-141670500D02*
X120814710Y-141535500D01*
X120814710Y-141535500D02*
X120882060Y-141404500D01*
X120882060Y-141404500D02*
X120955510Y-141276500D01*
X120955510Y-141276500D02*
X121034850Y-141152500D01*
X121034850Y-141152500D02*
X121119870Y-141032500D01*
X121119870Y-141032500D02*
X121210430Y-140917500D01*
X121210430Y-140917500D02*
X121306280Y-140807500D01*
X121306280Y-140807500D02*
X121407240Y-140701500D01*
X121407240Y-140701500D02*
X121513180Y-140600500D01*
X121513180Y-140600500D02*
X121623850Y-140504500D01*
X121623850Y-140504500D02*
X121739060Y-140413500D01*
X121739060Y-140413500D02*
X121858620Y-140328500D01*
X121858620Y-140328500D02*
X121982370Y-140249500D01*
X121982370Y-140249500D02*
X122110080Y-140175500D01*
X122110080Y-140175500D02*
X122241600Y-140108500D01*
X122241600Y-140108500D02*
X122376670Y-140047500D01*
X122376670Y-140047500D02*
X122515170Y-139992500D01*
X122515170Y-139992500D02*
X122656850Y-139944500D01*
X122656850Y-139944500D02*
X122801560Y-139903500D01*
X122801560Y-139903500D02*
X122949130Y-139869500D01*
X122949130Y-139869500D02*
X123099290Y-139842500D01*
X123099290Y-139842500D02*
X123251910Y-139823500D01*
X123251910Y-139823500D02*
X123406770Y-139811500D01*
X123406770Y-139811500D02*
X123563700Y-139807500D01*
X123563700Y-139807500D02*
X123720660Y-139811500D01*
X123720660Y-139811500D02*
X123875550Y-139823500D01*
X123875550Y-139823500D02*
X124028200Y-139842500D01*
X124028200Y-139842500D02*
X124178400Y-139869500D01*
X124178400Y-139869500D02*
X124325960Y-139903500D01*
X124325960Y-139903500D02*
X124470710Y-139944500D01*
X124470710Y-139944500D02*
X124612400Y-139992500D01*
X124612400Y-139992500D02*
X124750900Y-140047500D01*
X124750900Y-140047500D02*
X124886000Y-140108500D01*
X124886000Y-140108500D02*
X125017600Y-140175500D01*
X125017600Y-140175500D02*
X125145300Y-140249500D01*
X125145300Y-140249500D02*
X125269000Y-140328500D01*
X125269000Y-140328500D02*
X125388600Y-140413500D01*
X125388600Y-140413500D02*
X125503900Y-140504500D01*
X125503900Y-140504500D02*
X125614500Y-140600500D01*
X125614500Y-140600500D02*
X125720400Y-140701500D01*
X125720400Y-140701500D02*
X125821400Y-140807500D01*
X125821400Y-140807500D02*
X125917300Y-140917500D01*
X125917300Y-140917500D02*
X126007900Y-141032500D01*
X126007900Y-141032500D02*
X126092900Y-141152500D01*
X126092900Y-141152500D02*
X126172200Y-141276500D01*
X126172200Y-141276500D02*
X126245700Y-141404500D01*
X126245700Y-141404500D02*
X126313000Y-141535500D01*
X126313000Y-141535500D02*
X126374100Y-141670500D01*
X126374100Y-141670500D02*
X126428700Y-141809500D01*
X126428700Y-141809500D02*
X126476700Y-141950500D01*
X126476700Y-141950500D02*
X126517800Y-142095500D01*
X126517800Y-142095500D02*
X126551800Y-142243500D01*
X126551800Y-142243500D02*
X126578700Y-142393500D01*
X126578700Y-142393500D02*
X126598100Y-142546500D01*
X126598100Y-142546500D02*
X126609800Y-142700500D01*
X126609800Y-142700500D02*
X126613800Y-142857500D01*
X126613800Y-142857500D02*
X126613800Y-142857500D01*
X126613800Y-142857500D02*
X126613800Y-142857500D01*
X138044000Y-142857500D02*
X138040000Y-143014500D01*
X138040000Y-143014500D02*
X138028200Y-143169500D01*
X138028200Y-143169500D02*
X138008800Y-143322500D01*
X138008800Y-143322500D02*
X137982000Y-143472500D01*
X137982000Y-143472500D02*
X137947900Y-143620500D01*
X137947900Y-143620500D02*
X137906800Y-143764500D01*
X137906800Y-143764500D02*
X137858900Y-143906500D01*
X137858900Y-143906500D02*
X137804300Y-144044500D01*
X137804300Y-144044500D02*
X137743200Y-144180500D01*
X137743200Y-144180500D02*
X137675800Y-144311500D01*
X137675800Y-144311500D02*
X137602400Y-144439500D01*
X137602400Y-144439500D02*
X137523000Y-144563500D01*
X137523000Y-144563500D02*
X137438000Y-144682500D01*
X137438000Y-144682500D02*
X137347500Y-144797500D01*
X137347500Y-144797500D02*
X137251600Y-144908500D01*
X137251600Y-144908500D02*
X137150600Y-145014500D01*
X137150600Y-145014500D02*
X137044700Y-145115500D01*
X137044700Y-145115500D02*
X136934000Y-145211500D01*
X136934000Y-145211500D02*
X136818800Y-145302500D01*
X136818800Y-145302500D02*
X136699200Y-145387500D01*
X136699200Y-145387500D02*
X136575400Y-145466500D01*
X136575400Y-145466500D02*
X136447700Y-145539500D01*
X136447700Y-145539500D02*
X136316200Y-145607500D01*
X136316200Y-145607500D02*
X136181100Y-145668500D01*
X136181100Y-145668500D02*
X136042600Y-145722500D01*
X136042600Y-145722500D02*
X135900800Y-145770500D01*
X135900800Y-145770500D02*
X135756100Y-145812500D01*
X135756100Y-145812500D02*
X135608500Y-145846500D01*
X135608500Y-145846500D02*
X135458300Y-145872500D01*
X135458300Y-145872500D02*
X135305700Y-145892500D01*
X135305700Y-145892500D02*
X135150800Y-145904500D01*
X135150800Y-145904500D02*
X134993800Y-145908500D01*
X134993800Y-145908500D02*
X134836900Y-145904500D01*
X134836900Y-145904500D02*
X134682000Y-145892500D01*
X134682000Y-145892500D02*
X134529300Y-145872500D01*
X134529300Y-145872500D02*
X134379100Y-145846500D01*
X134379100Y-145846500D02*
X134231600Y-145812500D01*
X134231600Y-145812500D02*
X134086800Y-145770500D01*
X134086800Y-145770500D02*
X133945100Y-145722500D01*
X133945100Y-145722500D02*
X133806600Y-145668500D01*
X133806600Y-145668500D02*
X133671500Y-145607500D01*
X133671500Y-145607500D02*
X133540000Y-145539500D01*
X133540000Y-145539500D02*
X133412300Y-145466500D01*
X133412300Y-145466500D02*
X133288500Y-145387500D01*
X133288500Y-145387500D02*
X133168900Y-145302500D01*
X133168900Y-145302500D02*
X133053700Y-145211500D01*
X133053700Y-145211500D02*
X132943000Y-145115500D01*
X132943000Y-145115500D02*
X132837100Y-145014500D01*
X132837100Y-145014500D02*
X132736100Y-144908500D01*
X132736100Y-144908500D02*
X132640200Y-144797500D01*
X132640200Y-144797500D02*
X132549700Y-144682500D01*
X132549700Y-144682500D02*
X132464600Y-144563500D01*
X132464600Y-144563500D02*
X132385300Y-144439500D01*
X132385300Y-144439500D02*
X132311900Y-144311500D01*
X132311900Y-144311500D02*
X132244500Y-144180500D01*
X132244500Y-144180500D02*
X132183400Y-144044500D01*
X132183400Y-144044500D02*
X132128800Y-143906500D01*
X132128800Y-143906500D02*
X132080900Y-143764500D01*
X132080900Y-143764500D02*
X132039800Y-143620500D01*
X132039800Y-143620500D02*
X132005700Y-143472500D01*
X132005700Y-143472500D02*
X131978900Y-143322500D01*
X131978900Y-143322500D02*
X131959500Y-143169500D01*
X131959500Y-143169500D02*
X131947700Y-143014500D01*
X131947700Y-143014500D02*
X131943700Y-142857500D01*
X131943700Y-142857500D02*
X131947700Y-142700500D01*
X131947700Y-142700500D02*
X131959500Y-142546500D01*
X131959500Y-142546500D02*
X131978900Y-142393500D01*
X131978900Y-142393500D02*
X132005700Y-142243500D01*
X132005700Y-142243500D02*
X132039800Y-142095500D01*
X132039800Y-142095500D02*
X132080900Y-141950500D01*
X132080900Y-141950500D02*
X132128800Y-141809500D01*
X132128800Y-141809500D02*
X132183400Y-141670500D01*
X132183400Y-141670500D02*
X132244500Y-141535500D01*
X132244500Y-141535500D02*
X132311900Y-141404500D01*
X132311900Y-141404500D02*
X132385300Y-141276500D01*
X132385300Y-141276500D02*
X132464600Y-141152500D01*
X132464600Y-141152500D02*
X132549700Y-141032500D01*
X132549700Y-141032500D02*
X132640200Y-140917500D01*
X132640200Y-140917500D02*
X132736100Y-140807500D01*
X132736100Y-140807500D02*
X132837100Y-140701500D01*
X132837100Y-140701500D02*
X132943000Y-140600500D01*
X132943000Y-140600500D02*
X133053700Y-140504500D01*
X133053700Y-140504500D02*
X133168900Y-140413500D01*
X133168900Y-140413500D02*
X133288500Y-140328500D01*
X133288500Y-140328500D02*
X133412300Y-140249500D01*
X133412300Y-140249500D02*
X133540000Y-140175500D01*
X133540000Y-140175500D02*
X133671500Y-140108500D01*
X133671500Y-140108500D02*
X133806600Y-140047500D01*
X133806600Y-140047500D02*
X133945100Y-139992500D01*
X133945100Y-139992500D02*
X134086800Y-139944500D01*
X134086800Y-139944500D02*
X134231600Y-139903500D01*
X134231600Y-139903500D02*
X134379100Y-139869500D01*
X134379100Y-139869500D02*
X134529300Y-139842500D01*
X134529300Y-139842500D02*
X134682000Y-139823500D01*
X134682000Y-139823500D02*
X134836900Y-139811500D01*
X134836900Y-139811500D02*
X134993800Y-139807500D01*
X134993800Y-139807500D02*
X135150800Y-139811500D01*
X135150800Y-139811500D02*
X135305700Y-139823500D01*
X135305700Y-139823500D02*
X135458300Y-139842500D01*
X135458300Y-139842500D02*
X135608500Y-139869500D01*
X135608500Y-139869500D02*
X135756100Y-139903500D01*
X135756100Y-139903500D02*
X135900800Y-139944500D01*
X135900800Y-139944500D02*
X136042600Y-139992500D01*
X136042600Y-139992500D02*
X136181100Y-140047500D01*
X136181100Y-140047500D02*
X136316200Y-140108500D01*
X136316200Y-140108500D02*
X136447700Y-140175500D01*
X136447700Y-140175500D02*
X136575400Y-140249500D01*
X136575400Y-140249500D02*
X136699200Y-140328500D01*
X136699200Y-140328500D02*
X136818800Y-140413500D01*
X136818800Y-140413500D02*
X136934000Y-140504500D01*
X136934000Y-140504500D02*
X137044700Y-140600500D01*
X137044700Y-140600500D02*
X137150600Y-140701500D01*
X137150600Y-140701500D02*
X137251600Y-140807500D01*
X137251600Y-140807500D02*
X137347500Y-140917500D01*
X137347500Y-140917500D02*
X137438000Y-141032500D01*
X137438000Y-141032500D02*
X137523000Y-141152500D01*
X137523000Y-141152500D02*
X137602400Y-141276500D01*
X137602400Y-141276500D02*
X137675800Y-141404500D01*
X137675800Y-141404500D02*
X137743200Y-141535500D01*
X137743200Y-141535500D02*
X137804300Y-141670500D01*
X137804300Y-141670500D02*
X137858900Y-141809500D01*
X137858900Y-141809500D02*
X137906800Y-141950500D01*
X137906800Y-141950500D02*
X137947900Y-142095500D01*
X137947900Y-142095500D02*
X137982000Y-142243500D01*
X137982000Y-142243500D02*
X138008800Y-142393500D01*
X138008800Y-142393500D02*
X138028200Y-142546500D01*
X138028200Y-142546500D02*
X138040000Y-142700500D01*
X138040000Y-142700500D02*
X138044000Y-142857500D01*
X138044000Y-142857500D02*
X138044000Y-142857500D01*
X138044000Y-142857500D02*
X138044000Y-142857500D01*
X149473800Y-142857500D02*
X149469800Y-143014500D01*
X149469800Y-143014500D02*
X149458000Y-143169500D01*
X149458000Y-143169500D02*
X149438600Y-143322500D01*
X149438600Y-143322500D02*
X149411800Y-143472500D01*
X149411800Y-143472500D02*
X149377700Y-143620500D01*
X149377700Y-143620500D02*
X149336600Y-143764500D01*
X149336600Y-143764500D02*
X149288700Y-143906500D01*
X149288700Y-143906500D02*
X149234100Y-144044500D01*
X149234100Y-144044500D02*
X149173000Y-144180500D01*
X149173000Y-144180500D02*
X149105700Y-144311500D01*
X149105700Y-144311500D02*
X149032300Y-144439500D01*
X149032300Y-144439500D02*
X148952900Y-144563500D01*
X148952900Y-144563500D02*
X148867900Y-144682500D01*
X148867900Y-144682500D02*
X148777400Y-144797500D01*
X148777400Y-144797500D02*
X148681500Y-144908500D01*
X148681500Y-144908500D02*
X148580500Y-145014500D01*
X148580500Y-145014500D02*
X148474600Y-145115500D01*
X148474600Y-145115500D02*
X148363900Y-145211500D01*
X148363900Y-145211500D02*
X148248700Y-145302500D01*
X148248700Y-145302500D02*
X148129100Y-145387500D01*
X148129100Y-145387500D02*
X148005400Y-145466500D01*
X148005400Y-145466500D02*
X147877700Y-145539500D01*
X147877700Y-145539500D02*
X147746100Y-145607500D01*
X147746100Y-145607500D02*
X147611000Y-145668500D01*
X147611000Y-145668500D02*
X147472500Y-145722500D01*
X147472500Y-145722500D02*
X147330800Y-145770500D01*
X147330800Y-145770500D02*
X147186000Y-145812500D01*
X147186000Y-145812500D02*
X147038400Y-145846500D01*
X147038400Y-145846500D02*
X146888200Y-145872500D01*
X146888200Y-145872500D02*
X146735500Y-145892500D01*
X146735500Y-145892500D02*
X146580600Y-145904500D01*
X146580600Y-145904500D02*
X146423600Y-145908500D01*
X146423600Y-145908500D02*
X146266700Y-145904500D01*
X146266700Y-145904500D02*
X146111800Y-145892500D01*
X146111800Y-145892500D02*
X145959200Y-145872500D01*
X145959200Y-145872500D02*
X145809100Y-145846500D01*
X145809100Y-145846500D02*
X145661500Y-145812500D01*
X145661500Y-145812500D02*
X145516800Y-145770500D01*
X145516800Y-145770500D02*
X145375100Y-145722500D01*
X145375100Y-145722500D02*
X145236600Y-145668500D01*
X145236600Y-145668500D02*
X145101500Y-145607500D01*
X145101500Y-145607500D02*
X144970000Y-145539500D01*
X144970000Y-145539500D02*
X144842300Y-145466500D01*
X144842300Y-145466500D02*
X144718600Y-145387500D01*
X144718600Y-145387500D02*
X144599000Y-145302500D01*
X144599000Y-145302500D02*
X144483800Y-145211500D01*
X144483800Y-145211500D02*
X144373100Y-145115500D01*
X144373100Y-145115500D02*
X144267200Y-145014500D01*
X144267200Y-145014500D02*
X144166200Y-144908500D01*
X144166200Y-144908500D02*
X144070400Y-144797500D01*
X144070400Y-144797500D02*
X143979800Y-144682500D01*
X143979800Y-144682500D02*
X143894800Y-144563500D01*
X143894800Y-144563500D02*
X143815400Y-144439500D01*
X143815400Y-144439500D02*
X143742000Y-144311500D01*
X143742000Y-144311500D02*
X143674700Y-144180500D01*
X143674700Y-144180500D02*
X143613600Y-144044500D01*
X143613600Y-144044500D02*
X143558900Y-143906500D01*
X143558900Y-143906500D02*
X143511000Y-143764500D01*
X143511000Y-143764500D02*
X143469900Y-143620500D01*
X143469900Y-143620500D02*
X143435900Y-143472500D01*
X143435900Y-143472500D02*
X143409000Y-143322500D01*
X143409000Y-143322500D02*
X143389600Y-143169500D01*
X143389600Y-143169500D02*
X143377900Y-143014500D01*
X143377900Y-143014500D02*
X143373900Y-142857500D01*
X143373900Y-142857500D02*
X143377900Y-142700500D01*
X143377900Y-142700500D02*
X143389600Y-142546500D01*
X143389600Y-142546500D02*
X143409000Y-142393500D01*
X143409000Y-142393500D02*
X143435900Y-142243500D01*
X143435900Y-142243500D02*
X143469900Y-142095500D01*
X143469900Y-142095500D02*
X143511000Y-141950500D01*
X143511000Y-141950500D02*
X143558900Y-141809500D01*
X143558900Y-141809500D02*
X143613600Y-141670500D01*
X143613600Y-141670500D02*
X143674700Y-141535500D01*
X143674700Y-141535500D02*
X143742000Y-141404500D01*
X143742000Y-141404500D02*
X143815400Y-141276500D01*
X143815400Y-141276500D02*
X143894800Y-141152500D01*
X143894800Y-141152500D02*
X143979800Y-141032500D01*
X143979800Y-141032500D02*
X144070400Y-140917500D01*
X144070400Y-140917500D02*
X144166200Y-140807500D01*
X144166200Y-140807500D02*
X144267200Y-140701500D01*
X144267200Y-140701500D02*
X144373100Y-140600500D01*
X144373100Y-140600500D02*
X144483800Y-140504500D01*
X144483800Y-140504500D02*
X144599000Y-140413500D01*
X144599000Y-140413500D02*
X144718600Y-140328500D01*
X144718600Y-140328500D02*
X144842300Y-140249500D01*
X144842300Y-140249500D02*
X144970000Y-140175500D01*
X144970000Y-140175500D02*
X145101500Y-140108500D01*
X145101500Y-140108500D02*
X145236600Y-140047500D01*
X145236600Y-140047500D02*
X145375100Y-139992500D01*
X145375100Y-139992500D02*
X145516800Y-139944500D01*
X145516800Y-139944500D02*
X145661500Y-139903500D01*
X145661500Y-139903500D02*
X145809100Y-139869500D01*
X145809100Y-139869500D02*
X145959200Y-139842500D01*
X145959200Y-139842500D02*
X146111800Y-139823500D01*
X146111800Y-139823500D02*
X146266700Y-139811500D01*
X146266700Y-139811500D02*
X146423600Y-139807500D01*
X146423600Y-139807500D02*
X146580600Y-139811500D01*
X146580600Y-139811500D02*
X146735500Y-139823500D01*
X146735500Y-139823500D02*
X146888200Y-139842500D01*
X146888200Y-139842500D02*
X147038400Y-139869500D01*
X147038400Y-139869500D02*
X147186000Y-139903500D01*
X147186000Y-139903500D02*
X147330800Y-139944500D01*
X147330800Y-139944500D02*
X147472500Y-139992500D01*
X147472500Y-139992500D02*
X147611000Y-140047500D01*
X147611000Y-140047500D02*
X147746100Y-140108500D01*
X147746100Y-140108500D02*
X147877700Y-140175500D01*
X147877700Y-140175500D02*
X148005400Y-140249500D01*
X148005400Y-140249500D02*
X148129100Y-140328500D01*
X148129100Y-140328500D02*
X148248700Y-140413500D01*
X148248700Y-140413500D02*
X148363900Y-140504500D01*
X148363900Y-140504500D02*
X148474600Y-140600500D01*
X148474600Y-140600500D02*
X148580500Y-140701500D01*
X148580500Y-140701500D02*
X148681500Y-140807500D01*
X148681500Y-140807500D02*
X148777400Y-140917500D01*
X148777400Y-140917500D02*
X148867900Y-141032500D01*
X148867900Y-141032500D02*
X148952900Y-141152500D01*
X148952900Y-141152500D02*
X149032300Y-141276500D01*
X149032300Y-141276500D02*
X149105700Y-141404500D01*
X149105700Y-141404500D02*
X149173000Y-141535500D01*
X149173000Y-141535500D02*
X149234100Y-141670500D01*
X149234100Y-141670500D02*
X149288700Y-141809500D01*
X149288700Y-141809500D02*
X149336600Y-141950500D01*
X149336600Y-141950500D02*
X149377700Y-142095500D01*
X149377700Y-142095500D02*
X149411800Y-142243500D01*
X149411800Y-142243500D02*
X149438600Y-142393500D01*
X149438600Y-142393500D02*
X149458000Y-142546500D01*
X149458000Y-142546500D02*
X149469800Y-142700500D01*
X149469800Y-142700500D02*
X149473800Y-142857500D01*
X149473800Y-142857500D02*
X149473800Y-142857500D01*
X149473800Y-142857500D02*
X149473800Y-142857500D01*
X127883900Y-56497800D02*
X127879900Y-56654700D01*
X127879900Y-56654700D02*
X127868100Y-56809600D01*
X127868100Y-56809600D02*
X127848700Y-56962300D01*
X127848700Y-56962300D02*
X127821900Y-57112500D01*
X127821900Y-57112500D02*
X127787800Y-57260000D01*
X127787800Y-57260000D02*
X127746700Y-57404800D01*
X127746700Y-57404800D02*
X127698800Y-57546500D01*
X127698800Y-57546500D02*
X127644200Y-57685000D01*
X127644200Y-57685000D02*
X127583100Y-57820100D01*
X127583100Y-57820100D02*
X127515700Y-57951600D01*
X127515700Y-57951600D02*
X127442300Y-58079300D01*
X127442300Y-58079300D02*
X127362900Y-58203100D01*
X127362900Y-58203100D02*
X127277900Y-58322700D01*
X127277900Y-58322700D02*
X127187400Y-58437900D01*
X127187400Y-58437900D02*
X127091500Y-58548600D01*
X127091500Y-58548600D02*
X126990500Y-58654500D01*
X126990500Y-58654500D02*
X126884600Y-58755500D01*
X126884600Y-58755500D02*
X126773900Y-58851400D01*
X126773900Y-58851400D02*
X126658700Y-58941900D01*
X126658700Y-58941900D02*
X126539100Y-59027000D01*
X126539100Y-59027000D02*
X126415300Y-59106300D01*
X126415300Y-59106300D02*
X126287600Y-59179700D01*
X126287600Y-59179700D02*
X126156100Y-59247100D01*
X126156100Y-59247100D02*
X126021000Y-59308200D01*
X126021000Y-59308200D02*
X125882500Y-59362800D01*
X125882500Y-59362800D02*
X125740700Y-59410700D01*
X125740700Y-59410700D02*
X125596000Y-59451800D01*
X125596000Y-59451800D02*
X125448400Y-59485900D01*
X125448400Y-59485900D02*
X125298200Y-59512700D01*
X125298200Y-59512700D02*
X125145600Y-59532100D01*
X125145600Y-59532100D02*
X124990700Y-59543900D01*
X124990700Y-59543900D02*
X124833700Y-59547900D01*
X124833700Y-59547900D02*
X124676800Y-59543900D01*
X124676800Y-59543900D02*
X124521940Y-59532100D01*
X124521940Y-59532100D02*
X124369330Y-59512700D01*
X124369330Y-59512700D02*
X124219160Y-59485900D01*
X124219160Y-59485900D02*
X124071590Y-59451800D01*
X124071590Y-59451800D02*
X123926880Y-59410700D01*
X123926880Y-59410700D02*
X123785240Y-59362800D01*
X123785240Y-59362800D02*
X123646740Y-59308200D01*
X123646740Y-59308200D02*
X123511660Y-59247100D01*
X123511660Y-59247100D02*
X123380140Y-59179700D01*
X123380140Y-59179700D02*
X123252440Y-59106300D01*
X123252440Y-59106300D02*
X123128680Y-59027000D01*
X123128680Y-59027000D02*
X123009130Y-58941900D01*
X123009130Y-58941900D02*
X122893910Y-58851400D01*
X122893910Y-58851400D02*
X122783240Y-58755500D01*
X122783240Y-58755500D02*
X122677300Y-58654500D01*
X122677300Y-58654500D02*
X122576340Y-58548600D01*
X122576340Y-58548600D02*
X122480490Y-58437900D01*
X122480490Y-58437900D02*
X122389930Y-58322700D01*
X122389930Y-58322700D02*
X122304910Y-58203100D01*
X122304910Y-58203100D02*
X122225570Y-58079300D01*
X122225570Y-58079300D02*
X122152120Y-57951600D01*
X122152120Y-57951600D02*
X122084780Y-57820100D01*
X122084780Y-57820100D02*
X122023680Y-57685000D01*
X122023680Y-57685000D02*
X121969070Y-57546500D01*
X121969070Y-57546500D02*
X121921130Y-57404800D01*
X121921130Y-57404800D02*
X121880030Y-57260000D01*
X121880030Y-57260000D02*
X121845980Y-57112500D01*
X121845980Y-57112500D02*
X121819140Y-56962300D01*
X121819140Y-56962300D02*
X121799740Y-56809600D01*
X121799740Y-56809600D02*
X121787990Y-56654700D01*
X121787990Y-56654700D02*
X121784000Y-56497800D01*
X121784000Y-56497800D02*
X121787990Y-56340800D01*
X121787990Y-56340800D02*
X121799740Y-56185900D01*
X121799740Y-56185900D02*
X121819140Y-56033300D01*
X121819140Y-56033300D02*
X121845980Y-55883100D01*
X121845980Y-55883100D02*
X121880030Y-55735500D01*
X121880030Y-55735500D02*
X121921130Y-55590800D01*
X121921130Y-55590800D02*
X121969070Y-55449000D01*
X121969070Y-55449000D02*
X122023680Y-55310500D01*
X122023680Y-55310500D02*
X122084780Y-55175400D01*
X122084780Y-55175400D02*
X122152120Y-55043900D01*
X122152120Y-55043900D02*
X122225570Y-54916200D01*
X122225570Y-54916200D02*
X122304910Y-54792400D01*
X122304910Y-54792400D02*
X122389930Y-54672800D01*
X122389930Y-54672800D02*
X122480490Y-54557600D01*
X122480490Y-54557600D02*
X122576340Y-54446900D01*
X122576340Y-54446900D02*
X122677300Y-54341000D01*
X122677300Y-54341000D02*
X122783240Y-54240000D01*
X122783240Y-54240000D02*
X122893910Y-54144100D01*
X122893910Y-54144100D02*
X123009130Y-54053600D01*
X123009130Y-54053600D02*
X123128680Y-53968600D01*
X123128680Y-53968600D02*
X123252440Y-53889200D01*
X123252440Y-53889200D02*
X123380140Y-53815800D01*
X123380140Y-53815800D02*
X123511660Y-53748400D01*
X123511660Y-53748400D02*
X123646740Y-53687300D01*
X123646740Y-53687300D02*
X123785240Y-53632700D01*
X123785240Y-53632700D02*
X123926910Y-53584800D01*
X123926910Y-53584800D02*
X124071620Y-53543700D01*
X124071620Y-53543700D02*
X124219190Y-53509600D01*
X124219190Y-53509600D02*
X124369360Y-53482800D01*
X124369360Y-53482800D02*
X124521970Y-53463400D01*
X124521970Y-53463400D02*
X124676800Y-53451600D01*
X124676800Y-53451600D02*
X124833800Y-53447600D01*
X124833800Y-53447600D02*
X124990700Y-53451600D01*
X124990700Y-53451600D02*
X125145600Y-53463400D01*
X125145600Y-53463400D02*
X125298300Y-53482800D01*
X125298300Y-53482800D02*
X125448500Y-53509600D01*
X125448500Y-53509600D02*
X125596000Y-53543700D01*
X125596000Y-53543700D02*
X125740800Y-53584800D01*
X125740800Y-53584800D02*
X125882500Y-53632700D01*
X125882500Y-53632700D02*
X126021000Y-53687300D01*
X126021000Y-53687300D02*
X126156100Y-53748400D01*
X126156100Y-53748400D02*
X126287600Y-53815800D01*
X126287600Y-53815800D02*
X126415400Y-53889200D01*
X126415400Y-53889200D02*
X126539100Y-53968600D01*
X126539100Y-53968600D02*
X126658700Y-54053600D01*
X126658700Y-54053600D02*
X126773900Y-54144100D01*
X126773900Y-54144100D02*
X126884600Y-54240000D01*
X126884600Y-54240000D02*
X126990500Y-54341000D01*
X126990500Y-54341000D02*
X127091500Y-54446900D01*
X127091500Y-54446900D02*
X127187400Y-54557600D01*
X127187400Y-54557600D02*
X127277900Y-54672800D01*
X127277900Y-54672800D02*
X127363000Y-54792400D01*
X127363000Y-54792400D02*
X127442300Y-54916200D01*
X127442300Y-54916200D02*
X127515700Y-55043900D01*
X127515700Y-55043900D02*
X127583100Y-55175400D01*
X127583100Y-55175400D02*
X127644200Y-55310500D01*
X127644200Y-55310500D02*
X127698800Y-55449000D01*
X127698800Y-55449000D02*
X127746700Y-55590800D01*
X127746700Y-55590800D02*
X127787800Y-55735500D01*
X127787800Y-55735500D02*
X127821900Y-55883100D01*
X127821900Y-55883100D02*
X127848700Y-56033300D01*
X127848700Y-56033300D02*
X127868100Y-56185900D01*
X127868100Y-56185900D02*
X127879900Y-56340800D01*
X127879900Y-56340800D02*
X127883900Y-56497800D01*
X127883900Y-56497800D02*
X127883900Y-56497800D01*
X127883900Y-56497800D02*
X127883900Y-56497800D01*
X127928000Y-74277800D02*
X127924000Y-74434700D01*
X127924000Y-74434700D02*
X127912200Y-74589600D01*
X127912200Y-74589600D02*
X127892800Y-74742300D01*
X127892800Y-74742300D02*
X127866000Y-74892500D01*
X127866000Y-74892500D02*
X127831900Y-75040000D01*
X127831900Y-75040000D02*
X127790800Y-75184800D01*
X127790800Y-75184800D02*
X127742900Y-75326500D01*
X127742900Y-75326500D02*
X127688300Y-75465000D01*
X127688300Y-75465000D02*
X127627200Y-75600100D01*
X127627200Y-75600100D02*
X127559800Y-75731600D01*
X127559800Y-75731600D02*
X127486400Y-75859300D01*
X127486400Y-75859300D02*
X127407000Y-75983100D01*
X127407000Y-75983100D02*
X127322000Y-76102700D01*
X127322000Y-76102700D02*
X127231400Y-76217900D01*
X127231400Y-76217900D02*
X127135600Y-76328600D01*
X127135600Y-76328600D02*
X127034600Y-76434500D01*
X127034600Y-76434500D02*
X126928700Y-76535500D01*
X126928700Y-76535500D02*
X126818000Y-76631400D01*
X126818000Y-76631400D02*
X126702800Y-76721900D01*
X126702800Y-76721900D02*
X126583200Y-76807000D01*
X126583200Y-76807000D02*
X126459400Y-76886300D01*
X126459400Y-76886300D02*
X126331700Y-76959700D01*
X126331700Y-76959700D02*
X126200200Y-77027100D01*
X126200200Y-77027100D02*
X126065100Y-77088200D01*
X126065100Y-77088200D02*
X125926600Y-77142800D01*
X125926600Y-77142800D02*
X125784800Y-77190700D01*
X125784800Y-77190700D02*
X125640100Y-77231800D01*
X125640100Y-77231800D02*
X125492500Y-77265900D01*
X125492500Y-77265900D02*
X125342300Y-77292700D01*
X125342300Y-77292700D02*
X125189700Y-77312100D01*
X125189700Y-77312100D02*
X125034800Y-77323900D01*
X125034800Y-77323900D02*
X124877800Y-77327900D01*
X124877800Y-77327900D02*
X124720900Y-77323900D01*
X124720900Y-77323900D02*
X124565980Y-77312100D01*
X124565980Y-77312100D02*
X124413330Y-77292700D01*
X124413330Y-77292700D02*
X124263120Y-77265900D01*
X124263120Y-77265900D02*
X124115550Y-77231800D01*
X124115550Y-77231800D02*
X123970840Y-77190700D01*
X123970840Y-77190700D02*
X123829090Y-77142800D01*
X123829090Y-77142800D02*
X123690590Y-77088200D01*
X123690590Y-77088200D02*
X123555480Y-77027100D01*
X123555480Y-77027100D02*
X123423960Y-76959700D01*
X123423960Y-76959700D02*
X123296260Y-76886300D01*
X123296260Y-76886300D02*
X123172500Y-76807000D01*
X123172500Y-76807000D02*
X123052910Y-76721900D01*
X123052910Y-76721900D02*
X122937700Y-76631400D01*
X122937700Y-76631400D02*
X122826990Y-76535500D01*
X122826990Y-76535500D02*
X122721090Y-76434500D01*
X122721090Y-76434500D02*
X122620090Y-76328600D01*
X122620090Y-76328600D02*
X122524200Y-76217900D01*
X122524200Y-76217900D02*
X122433680Y-76102700D01*
X122433680Y-76102700D02*
X122348630Y-75983100D01*
X122348630Y-75983100D02*
X122269290Y-75859300D01*
X122269290Y-75859300D02*
X122195840Y-75731600D01*
X122195840Y-75731600D02*
X122128490Y-75600100D01*
X122128490Y-75600100D02*
X122067430Y-75465000D01*
X122067430Y-75465000D02*
X122012780Y-75326500D01*
X122012780Y-75326500D02*
X121964840Y-75184800D01*
X121964840Y-75184800D02*
X121923740Y-75040000D01*
X121923740Y-75040000D02*
X121889700Y-74892500D01*
X121889700Y-74892500D02*
X121862850Y-74742300D01*
X121862850Y-74742300D02*
X121843450Y-74589600D01*
X121843450Y-74589600D02*
X121831700Y-74434700D01*
X121831700Y-74434700D02*
X121827710Y-74277800D01*
X121827710Y-74277800D02*
X121831700Y-74120800D01*
X121831700Y-74120800D02*
X121843450Y-73965900D01*
X121843450Y-73965900D02*
X121862850Y-73813300D01*
X121862850Y-73813300D02*
X121889700Y-73663100D01*
X121889700Y-73663100D02*
X121923740Y-73515500D01*
X121923740Y-73515500D02*
X121964840Y-73370800D01*
X121964840Y-73370800D02*
X122012780Y-73229000D01*
X122012780Y-73229000D02*
X122067430Y-73090500D01*
X122067430Y-73090500D02*
X122128490Y-72955400D01*
X122128490Y-72955400D02*
X122195840Y-72823900D01*
X122195840Y-72823900D02*
X122269290Y-72696200D01*
X122269290Y-72696200D02*
X122348630Y-72572400D01*
X122348630Y-72572400D02*
X122433680Y-72452800D01*
X122433680Y-72452800D02*
X122524210Y-72337600D01*
X122524210Y-72337600D02*
X122620090Y-72226900D01*
X122620090Y-72226900D02*
X122721090Y-72121000D01*
X122721090Y-72121000D02*
X122826990Y-72020000D01*
X122826990Y-72020000D02*
X122937700Y-71924100D01*
X122937700Y-71924100D02*
X123052910Y-71833600D01*
X123052910Y-71833600D02*
X123172500Y-71748500D01*
X123172500Y-71748500D02*
X123296260Y-71669200D01*
X123296260Y-71669200D02*
X123423960Y-71595800D01*
X123423960Y-71595800D02*
X123555480Y-71528400D01*
X123555480Y-71528400D02*
X123690590Y-71467300D01*
X123690590Y-71467300D02*
X123829090Y-71412700D01*
X123829090Y-71412700D02*
X123970840Y-71364800D01*
X123970840Y-71364800D02*
X124115550Y-71323700D01*
X124115550Y-71323700D02*
X124263120Y-71289600D01*
X124263120Y-71289600D02*
X124413330Y-71262800D01*
X124413330Y-71262800D02*
X124565980Y-71243400D01*
X124565980Y-71243400D02*
X124720900Y-71231600D01*
X124720900Y-71231600D02*
X124877800Y-71227600D01*
X124877800Y-71227600D02*
X125034800Y-71231600D01*
X125034800Y-71231600D02*
X125189700Y-71243400D01*
X125189700Y-71243400D02*
X125342300Y-71262800D01*
X125342300Y-71262800D02*
X125492500Y-71289600D01*
X125492500Y-71289600D02*
X125640100Y-71323700D01*
X125640100Y-71323700D02*
X125784800Y-71364800D01*
X125784800Y-71364800D02*
X125926600Y-71412700D01*
X125926600Y-71412700D02*
X126065100Y-71467300D01*
X126065100Y-71467300D02*
X126200200Y-71528400D01*
X126200200Y-71528400D02*
X126331700Y-71595800D01*
X126331700Y-71595800D02*
X126459400Y-71669200D01*
X126459400Y-71669200D02*
X126583200Y-71748500D01*
X126583200Y-71748500D02*
X126702800Y-71833600D01*
X126702800Y-71833600D02*
X126818000Y-71924100D01*
X126818000Y-71924100D02*
X126928700Y-72020000D01*
X126928700Y-72020000D02*
X127034600Y-72121000D01*
X127034600Y-72121000D02*
X127135600Y-72226900D01*
X127135600Y-72226900D02*
X127231400Y-72337600D01*
X127231400Y-72337600D02*
X127322000Y-72452800D01*
X127322000Y-72452800D02*
X127407000Y-72572400D01*
X127407000Y-72572400D02*
X127486400Y-72696200D01*
X127486400Y-72696200D02*
X127559800Y-72823900D01*
X127559800Y-72823900D02*
X127627200Y-72955400D01*
X127627200Y-72955400D02*
X127688300Y-73090500D01*
X127688300Y-73090500D02*
X127742900Y-73229000D01*
X127742900Y-73229000D02*
X127790800Y-73370800D01*
X127790800Y-73370800D02*
X127831900Y-73515500D01*
X127831900Y-73515500D02*
X127866000Y-73663100D01*
X127866000Y-73663100D02*
X127892800Y-73813300D01*
X127892800Y-73813300D02*
X127912200Y-73965900D01*
X127912200Y-73965900D02*
X127924000Y-74120800D01*
X127924000Y-74120800D02*
X127928000Y-74277800D01*
X127928000Y-74277800D02*
X127928000Y-74277800D01*
X127928000Y-74277800D02*
X127928000Y-74277800D01*
X127883900Y-92057700D02*
X127879900Y-92214700D01*
X127879900Y-92214700D02*
X127868100Y-92369600D01*
X127868100Y-92369600D02*
X127848700Y-92522200D01*
X127848700Y-92522200D02*
X127821900Y-92672400D01*
X127821900Y-92672400D02*
X127787800Y-92820000D01*
X127787800Y-92820000D02*
X127746700Y-92964700D01*
X127746700Y-92964700D02*
X127698800Y-93106400D01*
X127698800Y-93106400D02*
X127644200Y-93245000D01*
X127644200Y-93245000D02*
X127583100Y-93380100D01*
X127583100Y-93380100D02*
X127515700Y-93511600D01*
X127515700Y-93511600D02*
X127442300Y-93639300D01*
X127442300Y-93639300D02*
X127362900Y-93763100D01*
X127362900Y-93763100D02*
X127277900Y-93882600D01*
X127277900Y-93882600D02*
X127187400Y-93997900D01*
X127187400Y-93997900D02*
X127091500Y-94108500D01*
X127091500Y-94108500D02*
X126990500Y-94214500D01*
X126990500Y-94214500D02*
X126884600Y-94315500D01*
X126884600Y-94315500D02*
X126773900Y-94411300D01*
X126773900Y-94411300D02*
X126658700Y-94501900D01*
X126658700Y-94501900D02*
X126539100Y-94586900D01*
X126539100Y-94586900D02*
X126415300Y-94666300D01*
X126415300Y-94666300D02*
X126287600Y-94739700D01*
X126287600Y-94739700D02*
X126156100Y-94807100D01*
X126156100Y-94807100D02*
X126021000Y-94868100D01*
X126021000Y-94868100D02*
X125882500Y-94922800D01*
X125882500Y-94922800D02*
X125740700Y-94970700D01*
X125740700Y-94970700D02*
X125596000Y-95011800D01*
X125596000Y-95011800D02*
X125448400Y-95045900D01*
X125448400Y-95045900D02*
X125298200Y-95072700D01*
X125298200Y-95072700D02*
X125145600Y-95092100D01*
X125145600Y-95092100D02*
X124990700Y-95103900D01*
X124990700Y-95103900D02*
X124833700Y-95107900D01*
X124833700Y-95107900D02*
X124676800Y-95103900D01*
X124676800Y-95103900D02*
X124521940Y-95092100D01*
X124521940Y-95092100D02*
X124369330Y-95072700D01*
X124369330Y-95072700D02*
X124219160Y-95045900D01*
X124219160Y-95045900D02*
X124071620Y-95011800D01*
X124071620Y-95011800D02*
X123926910Y-94970700D01*
X123926910Y-94970700D02*
X123785240Y-94922800D01*
X123785240Y-94922800D02*
X123646740Y-94868100D01*
X123646740Y-94868100D02*
X123511660Y-94807100D01*
X123511660Y-94807100D02*
X123380140Y-94739700D01*
X123380140Y-94739700D02*
X123252440Y-94666300D01*
X123252440Y-94666300D02*
X123128680Y-94586900D01*
X123128680Y-94586900D02*
X123009130Y-94501900D01*
X123009130Y-94501900D02*
X122893910Y-94411300D01*
X122893910Y-94411300D02*
X122783240Y-94315500D01*
X122783240Y-94315500D02*
X122677300Y-94214500D01*
X122677300Y-94214500D02*
X122576340Y-94108500D01*
X122576340Y-94108500D02*
X122480490Y-93997900D01*
X122480490Y-93997900D02*
X122389930Y-93882600D01*
X122389930Y-93882600D02*
X122304910Y-93763100D01*
X122304910Y-93763100D02*
X122225570Y-93639300D01*
X122225570Y-93639300D02*
X122152120Y-93511600D01*
X122152120Y-93511600D02*
X122084780Y-93380100D01*
X122084780Y-93380100D02*
X122023680Y-93245000D01*
X122023680Y-93245000D02*
X121969070Y-93106400D01*
X121969070Y-93106400D02*
X121921130Y-92964700D01*
X121921130Y-92964700D02*
X121880030Y-92820000D01*
X121880030Y-92820000D02*
X121845980Y-92672400D01*
X121845980Y-92672400D02*
X121819140Y-92522200D01*
X121819140Y-92522200D02*
X121799740Y-92369600D01*
X121799740Y-92369600D02*
X121787990Y-92214700D01*
X121787990Y-92214700D02*
X121784000Y-92057700D01*
X121784000Y-92057700D02*
X121787990Y-91900800D01*
X121787990Y-91900800D02*
X121799740Y-91745900D01*
X121799740Y-91745900D02*
X121819140Y-91593200D01*
X121819140Y-91593200D02*
X121845980Y-91443000D01*
X121845980Y-91443000D02*
X121880030Y-91295500D01*
X121880030Y-91295500D02*
X121921130Y-91150700D01*
X121921130Y-91150700D02*
X121969070Y-91009000D01*
X121969070Y-91009000D02*
X122023680Y-90870500D01*
X122023680Y-90870500D02*
X122084780Y-90735400D01*
X122084780Y-90735400D02*
X122152120Y-90603900D01*
X122152120Y-90603900D02*
X122225570Y-90476100D01*
X122225570Y-90476100D02*
X122304910Y-90352400D01*
X122304910Y-90352400D02*
X122389930Y-90232800D01*
X122389930Y-90232800D02*
X122480490Y-90117600D01*
X122480490Y-90117600D02*
X122576340Y-90006900D01*
X122576340Y-90006900D02*
X122677300Y-89901000D01*
X122677300Y-89901000D02*
X122783240Y-89800000D01*
X122783240Y-89800000D02*
X122893910Y-89704100D01*
X122893910Y-89704100D02*
X123009130Y-89613600D01*
X123009130Y-89613600D02*
X123128680Y-89528500D01*
X123128680Y-89528500D02*
X123252440Y-89449200D01*
X123252440Y-89449200D02*
X123380140Y-89375700D01*
X123380140Y-89375700D02*
X123511660Y-89308400D01*
X123511660Y-89308400D02*
X123646740Y-89247300D01*
X123646740Y-89247300D02*
X123785240Y-89192700D01*
X123785240Y-89192700D02*
X123926910Y-89144700D01*
X123926910Y-89144700D02*
X124071620Y-89103600D01*
X124071620Y-89103600D02*
X124219190Y-89069600D01*
X124219190Y-89069600D02*
X124369360Y-89042700D01*
X124369360Y-89042700D02*
X124521970Y-89023300D01*
X124521970Y-89023300D02*
X124676800Y-89011600D01*
X124676800Y-89011600D02*
X124833800Y-89007600D01*
X124833800Y-89007600D02*
X124990700Y-89011600D01*
X124990700Y-89011600D02*
X125145600Y-89023300D01*
X125145600Y-89023300D02*
X125298300Y-89042700D01*
X125298300Y-89042700D02*
X125448500Y-89069600D01*
X125448500Y-89069600D02*
X125596000Y-89103600D01*
X125596000Y-89103600D02*
X125740800Y-89144700D01*
X125740800Y-89144700D02*
X125882500Y-89192700D01*
X125882500Y-89192700D02*
X126021000Y-89247300D01*
X126021000Y-89247300D02*
X126156100Y-89308400D01*
X126156100Y-89308400D02*
X126287600Y-89375700D01*
X126287600Y-89375700D02*
X126415400Y-89449200D01*
X126415400Y-89449200D02*
X126539100Y-89528500D01*
X126539100Y-89528500D02*
X126658700Y-89613600D01*
X126658700Y-89613600D02*
X126773900Y-89704100D01*
X126773900Y-89704100D02*
X126884600Y-89800000D01*
X126884600Y-89800000D02*
X126990500Y-89901000D01*
X126990500Y-89901000D02*
X127091500Y-90006900D01*
X127091500Y-90006900D02*
X127187400Y-90117600D01*
X127187400Y-90117600D02*
X127277900Y-90232800D01*
X127277900Y-90232800D02*
X127363000Y-90352400D01*
X127363000Y-90352400D02*
X127442300Y-90476100D01*
X127442300Y-90476100D02*
X127515700Y-90603900D01*
X127515700Y-90603900D02*
X127583100Y-90735400D01*
X127583100Y-90735400D02*
X127644200Y-90870500D01*
X127644200Y-90870500D02*
X127698800Y-91009000D01*
X127698800Y-91009000D02*
X127746700Y-91150700D01*
X127746700Y-91150700D02*
X127787800Y-91295500D01*
X127787800Y-91295500D02*
X127821900Y-91443000D01*
X127821900Y-91443000D02*
X127848700Y-91593200D01*
X127848700Y-91593200D02*
X127868100Y-91745900D01*
X127868100Y-91745900D02*
X127879900Y-91900800D01*
X127879900Y-91900800D02*
X127883900Y-92057700D01*
X127883900Y-92057700D02*
X127883900Y-92057700D01*
X127883900Y-92057700D02*
X127883900Y-92057700D01*
X127883900Y-109837700D02*
X127879900Y-109994600D01*
X127879900Y-109994600D02*
X127868100Y-110149500D01*
X127868100Y-110149500D02*
X127848700Y-110302200D01*
X127848700Y-110302200D02*
X127821900Y-110452400D01*
X127821900Y-110452400D02*
X127787800Y-110599900D01*
X127787800Y-110599900D02*
X127746700Y-110744700D01*
X127746700Y-110744700D02*
X127698800Y-110886400D01*
X127698800Y-110886400D02*
X127644200Y-111024900D01*
X127644200Y-111024900D02*
X127583100Y-111160000D01*
X127583100Y-111160000D02*
X127515700Y-111291500D01*
X127515700Y-111291500D02*
X127442300Y-111419300D01*
X127442300Y-111419300D02*
X127362900Y-111543000D01*
X127362900Y-111543000D02*
X127277900Y-111662600D01*
X127277900Y-111662600D02*
X127187400Y-111777800D01*
X127187400Y-111777800D02*
X127091500Y-111888500D01*
X127091500Y-111888500D02*
X126990500Y-111994400D01*
X126990500Y-111994400D02*
X126884600Y-112095400D01*
X126884600Y-112095400D02*
X126773900Y-112191300D01*
X126773900Y-112191300D02*
X126658700Y-112281800D01*
X126658700Y-112281800D02*
X126539100Y-112366900D01*
X126539100Y-112366900D02*
X126415300Y-112446200D01*
X126415300Y-112446200D02*
X126287600Y-112519700D01*
X126287600Y-112519700D02*
X126156100Y-112587000D01*
X126156100Y-112587000D02*
X126021000Y-112648100D01*
X126021000Y-112648100D02*
X125882500Y-112702700D01*
X125882500Y-112702700D02*
X125740700Y-112750700D01*
X125740700Y-112750700D02*
X125596000Y-112791800D01*
X125596000Y-112791800D02*
X125448400Y-112825800D01*
X125448400Y-112825800D02*
X125298200Y-112852700D01*
X125298200Y-112852700D02*
X125145600Y-112872100D01*
X125145600Y-112872100D02*
X124990700Y-112883800D01*
X124990700Y-112883800D02*
X124833700Y-112887800D01*
X124833700Y-112887800D02*
X124676800Y-112883800D01*
X124676800Y-112883800D02*
X124521940Y-112872100D01*
X124521940Y-112872100D02*
X124369330Y-112852700D01*
X124369330Y-112852700D02*
X124219160Y-112825800D01*
X124219160Y-112825800D02*
X124071590Y-112791800D01*
X124071590Y-112791800D02*
X123926880Y-112750700D01*
X123926880Y-112750700D02*
X123785240Y-112702700D01*
X123785240Y-112702700D02*
X123646740Y-112648100D01*
X123646740Y-112648100D02*
X123511660Y-112587000D01*
X123511660Y-112587000D02*
X123380140Y-112519700D01*
X123380140Y-112519700D02*
X123252440Y-112446200D01*
X123252440Y-112446200D02*
X123128680Y-112366900D01*
X123128680Y-112366900D02*
X123009130Y-112281800D01*
X123009130Y-112281800D02*
X122893910Y-112191300D01*
X122893910Y-112191300D02*
X122783240Y-112095400D01*
X122783240Y-112095400D02*
X122677300Y-111994400D01*
X122677300Y-111994400D02*
X122576340Y-111888500D01*
X122576340Y-111888500D02*
X122480490Y-111777800D01*
X122480490Y-111777800D02*
X122389930Y-111662600D01*
X122389930Y-111662600D02*
X122304910Y-111543000D01*
X122304910Y-111543000D02*
X122225570Y-111419300D01*
X122225570Y-111419300D02*
X122152120Y-111291500D01*
X122152120Y-111291500D02*
X122084780Y-111160000D01*
X122084780Y-111160000D02*
X122023680Y-111024900D01*
X122023680Y-111024900D02*
X121969070Y-110886400D01*
X121969070Y-110886400D02*
X121921130Y-110744700D01*
X121921130Y-110744700D02*
X121880030Y-110599900D01*
X121880030Y-110599900D02*
X121845980Y-110452400D01*
X121845980Y-110452400D02*
X121819140Y-110302200D01*
X121819140Y-110302200D02*
X121799740Y-110149500D01*
X121799740Y-110149500D02*
X121787990Y-109994600D01*
X121787990Y-109994600D02*
X121784000Y-109837700D01*
X121784000Y-109837700D02*
X121787990Y-109680800D01*
X121787990Y-109680800D02*
X121799740Y-109525900D01*
X121799740Y-109525900D02*
X121819140Y-109373300D01*
X121819140Y-109373300D02*
X121845980Y-109223100D01*
X121845980Y-109223100D02*
X121880030Y-109075500D01*
X121880030Y-109075500D02*
X121921130Y-108930800D01*
X121921130Y-108930800D02*
X121969070Y-108789100D01*
X121969070Y-108789100D02*
X122023680Y-108650600D01*
X122023680Y-108650600D02*
X122084780Y-108515500D01*
X122084780Y-108515500D02*
X122152120Y-108384000D01*
X122152120Y-108384000D02*
X122225570Y-108256300D01*
X122225570Y-108256300D02*
X122304910Y-108132500D01*
X122304910Y-108132500D02*
X122389930Y-108012900D01*
X122389930Y-108012900D02*
X122480490Y-107897700D01*
X122480490Y-107897700D02*
X122576340Y-107787000D01*
X122576340Y-107787000D02*
X122677300Y-107681100D01*
X122677300Y-107681100D02*
X122783240Y-107580100D01*
X122783240Y-107580100D02*
X122893910Y-107484200D01*
X122893910Y-107484200D02*
X123009130Y-107393600D01*
X123009130Y-107393600D02*
X123128680Y-107308600D01*
X123128680Y-107308600D02*
X123252440Y-107229200D01*
X123252440Y-107229200D02*
X123380140Y-107155800D01*
X123380140Y-107155800D02*
X123511660Y-107088400D01*
X123511660Y-107088400D02*
X123646740Y-107027300D01*
X123646740Y-107027300D02*
X123785240Y-106972700D01*
X123785240Y-106972700D02*
X123926910Y-106924700D01*
X123926910Y-106924700D02*
X124071620Y-106883600D01*
X124071620Y-106883600D02*
X124219190Y-106849600D01*
X124219190Y-106849600D02*
X124369360Y-106822700D01*
X124369360Y-106822700D02*
X124521970Y-106803300D01*
X124521970Y-106803300D02*
X124676800Y-106791600D01*
X124676800Y-106791600D02*
X124833800Y-106787600D01*
X124833800Y-106787600D02*
X124990700Y-106791600D01*
X124990700Y-106791600D02*
X125145600Y-106803300D01*
X125145600Y-106803300D02*
X125298300Y-106822700D01*
X125298300Y-106822700D02*
X125448500Y-106849600D01*
X125448500Y-106849600D02*
X125596000Y-106883600D01*
X125596000Y-106883600D02*
X125740800Y-106924700D01*
X125740800Y-106924700D02*
X125882500Y-106972700D01*
X125882500Y-106972700D02*
X126021000Y-107027300D01*
X126021000Y-107027300D02*
X126156100Y-107088400D01*
X126156100Y-107088400D02*
X126287600Y-107155800D01*
X126287600Y-107155800D02*
X126415400Y-107229200D01*
X126415400Y-107229200D02*
X126539100Y-107308600D01*
X126539100Y-107308600D02*
X126658700Y-107393600D01*
X126658700Y-107393600D02*
X126773900Y-107484200D01*
X126773900Y-107484200D02*
X126884600Y-107580100D01*
X126884600Y-107580100D02*
X126990500Y-107681100D01*
X126990500Y-107681100D02*
X127091500Y-107787000D01*
X127091500Y-107787000D02*
X127187400Y-107897700D01*
X127187400Y-107897700D02*
X127277900Y-108012900D01*
X127277900Y-108012900D02*
X127363000Y-108132500D01*
X127363000Y-108132500D02*
X127442300Y-108256300D01*
X127442300Y-108256300D02*
X127515700Y-108384000D01*
X127515700Y-108384000D02*
X127583100Y-108515500D01*
X127583100Y-108515500D02*
X127644200Y-108650600D01*
X127644200Y-108650600D02*
X127698800Y-108789100D01*
X127698800Y-108789100D02*
X127746700Y-108930800D01*
X127746700Y-108930800D02*
X127787800Y-109075500D01*
X127787800Y-109075500D02*
X127821900Y-109223100D01*
X127821900Y-109223100D02*
X127848700Y-109373300D01*
X127848700Y-109373300D02*
X127868100Y-109525900D01*
X127868100Y-109525900D02*
X127879900Y-109680800D01*
X127879900Y-109680800D02*
X127883900Y-109837700D01*
X127883900Y-109837700D02*
X127883900Y-109837700D01*
X127883900Y-109837700D02*
X127883900Y-109837700D01*
X148203900Y-56403900D02*
X148199900Y-56560800D01*
X148199900Y-56560800D02*
X148188100Y-56715700D01*
X148188100Y-56715700D02*
X148168700Y-56868400D01*
X148168700Y-56868400D02*
X148141900Y-57018600D01*
X148141900Y-57018600D02*
X148107900Y-57166100D01*
X148107900Y-57166100D02*
X148066800Y-57310900D01*
X148066800Y-57310900D02*
X148018800Y-57452600D01*
X148018800Y-57452600D02*
X147964200Y-57591100D01*
X147964200Y-57591100D02*
X147903100Y-57726200D01*
X147903100Y-57726200D02*
X147835800Y-57857700D01*
X147835800Y-57857700D02*
X147762300Y-57985500D01*
X147762300Y-57985500D02*
X147683000Y-58109200D01*
X147683000Y-58109200D02*
X147597900Y-58228800D01*
X147597900Y-58228800D02*
X147507400Y-58344000D01*
X147507400Y-58344000D02*
X147411500Y-58454700D01*
X147411500Y-58454700D02*
X147310500Y-58560600D01*
X147310500Y-58560600D02*
X147204600Y-58661600D01*
X147204600Y-58661600D02*
X147093900Y-58757500D01*
X147093900Y-58757500D02*
X146978700Y-58848000D01*
X146978700Y-58848000D02*
X146859100Y-58933100D01*
X146859100Y-58933100D02*
X146735400Y-59012400D01*
X146735400Y-59012400D02*
X146607600Y-59085900D01*
X146607600Y-59085900D02*
X146476100Y-59153200D01*
X146476100Y-59153200D02*
X146341000Y-59214300D01*
X146341000Y-59214300D02*
X146202500Y-59268900D01*
X146202500Y-59268900D02*
X146060800Y-59316900D01*
X146060800Y-59316900D02*
X145916000Y-59358000D01*
X145916000Y-59358000D02*
X145768500Y-59392000D01*
X145768500Y-59392000D02*
X145618300Y-59418800D01*
X145618300Y-59418800D02*
X145465600Y-59438200D01*
X145465600Y-59438200D02*
X145310700Y-59450000D01*
X145310700Y-59450000D02*
X145153800Y-59454000D01*
X145153800Y-59454000D02*
X144996800Y-59450000D01*
X144996800Y-59450000D02*
X144841900Y-59438200D01*
X144841900Y-59438200D02*
X144689300Y-59418800D01*
X144689300Y-59418800D02*
X144539100Y-59392000D01*
X144539100Y-59392000D02*
X144391500Y-59358000D01*
X144391500Y-59358000D02*
X144246800Y-59316900D01*
X144246800Y-59316900D02*
X144105100Y-59268900D01*
X144105100Y-59268900D02*
X143966600Y-59214300D01*
X143966600Y-59214300D02*
X143831500Y-59153200D01*
X143831500Y-59153200D02*
X143700000Y-59085900D01*
X143700000Y-59085900D02*
X143572300Y-59012400D01*
X143572300Y-59012400D02*
X143448500Y-58933100D01*
X143448500Y-58933100D02*
X143329000Y-58848000D01*
X143329000Y-58848000D02*
X143213800Y-58757500D01*
X143213800Y-58757500D02*
X143103100Y-58661600D01*
X143103100Y-58661600D02*
X142997200Y-58560600D01*
X142997200Y-58560600D02*
X142896200Y-58454700D01*
X142896200Y-58454700D02*
X142800400Y-58344000D01*
X142800400Y-58344000D02*
X142709800Y-58228800D01*
X142709800Y-58228800D02*
X142624800Y-58109200D01*
X142624800Y-58109200D02*
X142545500Y-57985500D01*
X142545500Y-57985500D02*
X142472100Y-57857700D01*
X142472100Y-57857700D02*
X142404700Y-57726200D01*
X142404700Y-57726200D02*
X142343700Y-57591100D01*
X142343700Y-57591100D02*
X142289000Y-57452600D01*
X142289000Y-57452600D02*
X142241100Y-57310900D01*
X142241100Y-57310900D02*
X142200000Y-57166100D01*
X142200000Y-57166100D02*
X142166000Y-57018600D01*
X142166000Y-57018600D02*
X142139200Y-56868400D01*
X142139200Y-56868400D02*
X142119800Y-56715700D01*
X142119800Y-56715700D02*
X142108000Y-56560800D01*
X142108000Y-56560800D02*
X142104000Y-56403900D01*
X142104000Y-56403900D02*
X142108000Y-56246900D01*
X142108000Y-56246900D02*
X142119800Y-56092000D01*
X142119800Y-56092000D02*
X142139200Y-55939400D01*
X142139200Y-55939400D02*
X142166000Y-55789200D01*
X142166000Y-55789200D02*
X142200000Y-55641600D01*
X142200000Y-55641600D02*
X142241100Y-55496900D01*
X142241100Y-55496900D02*
X142289000Y-55355200D01*
X142289000Y-55355200D02*
X142343700Y-55216600D01*
X142343700Y-55216600D02*
X142404700Y-55081500D01*
X142404700Y-55081500D02*
X142472100Y-54950000D01*
X142472100Y-54950000D02*
X142545500Y-54822300D01*
X142545500Y-54822300D02*
X142624800Y-54698500D01*
X142624800Y-54698500D02*
X142709800Y-54579000D01*
X142709800Y-54579000D02*
X142800400Y-54463700D01*
X142800400Y-54463700D02*
X142896200Y-54353100D01*
X142896200Y-54353100D02*
X142997200Y-54247100D01*
X142997200Y-54247100D02*
X143103100Y-54146100D01*
X143103100Y-54146100D02*
X143213800Y-54050300D01*
X143213800Y-54050300D02*
X143329000Y-53959700D01*
X143329000Y-53959700D02*
X143448500Y-53874700D01*
X143448500Y-53874700D02*
X143572300Y-53795300D01*
X143572300Y-53795300D02*
X143700000Y-53721900D01*
X143700000Y-53721900D02*
X143831500Y-53654500D01*
X143831500Y-53654500D02*
X143966600Y-53593500D01*
X143966600Y-53593500D02*
X144105100Y-53538800D01*
X144105100Y-53538800D02*
X144246800Y-53490900D01*
X144246800Y-53490900D02*
X144391500Y-53449800D01*
X144391500Y-53449800D02*
X144539100Y-53415700D01*
X144539100Y-53415700D02*
X144689300Y-53388900D01*
X144689300Y-53388900D02*
X144841900Y-53369500D01*
X144841900Y-53369500D02*
X144996800Y-53357700D01*
X144996800Y-53357700D02*
X145153800Y-53353700D01*
X145153800Y-53353700D02*
X145310700Y-53357700D01*
X145310700Y-53357700D02*
X145465600Y-53369500D01*
X145465600Y-53369500D02*
X145618300Y-53388900D01*
X145618300Y-53388900D02*
X145768500Y-53415700D01*
X145768500Y-53415700D02*
X145916000Y-53449800D01*
X145916000Y-53449800D02*
X146060800Y-53490900D01*
X146060800Y-53490900D02*
X146202500Y-53538800D01*
X146202500Y-53538800D02*
X146341000Y-53593500D01*
X146341000Y-53593500D02*
X146476100Y-53654500D01*
X146476100Y-53654500D02*
X146607600Y-53721900D01*
X146607600Y-53721900D02*
X146735400Y-53795300D01*
X146735400Y-53795300D02*
X146859100Y-53874700D01*
X146859100Y-53874700D02*
X146978700Y-53959700D01*
X146978700Y-53959700D02*
X147093900Y-54050300D01*
X147093900Y-54050300D02*
X147204600Y-54146100D01*
X147204600Y-54146100D02*
X147310500Y-54247100D01*
X147310500Y-54247100D02*
X147411500Y-54353100D01*
X147411500Y-54353100D02*
X147507400Y-54463700D01*
X147507400Y-54463700D02*
X147597900Y-54579000D01*
X147597900Y-54579000D02*
X147683000Y-54698500D01*
X147683000Y-54698500D02*
X147762300Y-54822300D01*
X147762300Y-54822300D02*
X147835800Y-54950000D01*
X147835800Y-54950000D02*
X147903100Y-55081500D01*
X147903100Y-55081500D02*
X147964200Y-55216600D01*
X147964200Y-55216600D02*
X148018800Y-55355200D01*
X148018800Y-55355200D02*
X148066800Y-55496900D01*
X148066800Y-55496900D02*
X148107900Y-55641600D01*
X148107900Y-55641600D02*
X148141900Y-55789200D01*
X148141900Y-55789200D02*
X148168700Y-55939400D01*
X148168700Y-55939400D02*
X148188100Y-56092000D01*
X148188100Y-56092000D02*
X148199900Y-56246900D01*
X148199900Y-56246900D02*
X148203900Y-56403900D01*
X148203900Y-56403900D02*
X148203900Y-56403900D01*
X148203900Y-56403900D02*
X148203900Y-56403900D01*
X148223900Y-74244000D02*
X148219900Y-74401000D01*
X148219900Y-74401000D02*
X148208100Y-74555800D01*
X148208100Y-74555800D02*
X148188700Y-74708500D01*
X148188700Y-74708500D02*
X148161900Y-74858700D01*
X148161900Y-74858700D02*
X148127800Y-75006300D01*
X148127800Y-75006300D02*
X148086700Y-75151000D01*
X148086700Y-75151000D02*
X148038800Y-75292700D01*
X148038800Y-75292700D02*
X147984200Y-75431200D01*
X147984200Y-75431200D02*
X147923100Y-75566300D01*
X147923100Y-75566300D02*
X147855700Y-75697900D01*
X147855700Y-75697900D02*
X147782300Y-75825600D01*
X147782300Y-75825600D02*
X147702900Y-75949300D01*
X147702900Y-75949300D02*
X147617900Y-76068900D01*
X147617900Y-76068900D02*
X147527400Y-76184100D01*
X147527400Y-76184100D02*
X147431500Y-76294800D01*
X147431500Y-76294800D02*
X147330500Y-76400700D01*
X147330500Y-76400700D02*
X147224600Y-76501700D01*
X147224600Y-76501700D02*
X147113900Y-76597600D01*
X147113900Y-76597600D02*
X146998700Y-76688200D01*
X146998700Y-76688200D02*
X146879100Y-76773200D01*
X146879100Y-76773200D02*
X146755300Y-76852500D01*
X146755300Y-76852500D02*
X146627600Y-76926000D01*
X146627600Y-76926000D02*
X146496100Y-76993300D01*
X146496100Y-76993300D02*
X146361000Y-77054400D01*
X146361000Y-77054400D02*
X146222500Y-77109000D01*
X146222500Y-77109000D02*
X146080700Y-77157000D01*
X146080700Y-77157000D02*
X145936000Y-77198100D01*
X145936000Y-77198100D02*
X145788400Y-77232100D01*
X145788400Y-77232100D02*
X145638200Y-77259000D01*
X145638200Y-77259000D02*
X145485600Y-77278400D01*
X145485600Y-77278400D02*
X145330700Y-77290200D01*
X145330700Y-77290200D02*
X145173700Y-77294200D01*
X145173700Y-77294200D02*
X145016800Y-77290200D01*
X145016800Y-77290200D02*
X144861900Y-77278400D01*
X144861900Y-77278400D02*
X144709300Y-77259000D01*
X144709300Y-77259000D02*
X144559200Y-77232100D01*
X144559200Y-77232100D02*
X144411600Y-77198100D01*
X144411600Y-77198100D02*
X144266900Y-77157000D01*
X144266900Y-77157000D02*
X144125200Y-77109000D01*
X144125200Y-77109000D02*
X143986700Y-77054400D01*
X143986700Y-77054400D02*
X143851600Y-76993300D01*
X143851600Y-76993300D02*
X143720100Y-76926000D01*
X143720100Y-76926000D02*
X143592400Y-76852500D01*
X143592400Y-76852500D02*
X143468700Y-76773200D01*
X143468700Y-76773200D02*
X143349100Y-76688200D01*
X143349100Y-76688200D02*
X143233900Y-76597600D01*
X143233900Y-76597600D02*
X143123200Y-76501700D01*
X143123200Y-76501700D02*
X143017300Y-76400700D01*
X143017300Y-76400700D02*
X142916300Y-76294800D01*
X142916300Y-76294800D02*
X142820500Y-76184100D01*
X142820500Y-76184100D02*
X142729900Y-76068900D01*
X142729900Y-76068900D02*
X142644900Y-75949300D01*
X142644900Y-75949300D02*
X142565500Y-75825600D01*
X142565500Y-75825600D02*
X142492100Y-75697900D01*
X142492100Y-75697900D02*
X142424800Y-75566300D01*
X142424800Y-75566300D02*
X142363700Y-75431200D01*
X142363700Y-75431200D02*
X142309000Y-75292700D01*
X142309000Y-75292700D02*
X142261100Y-75151000D01*
X142261100Y-75151000D02*
X142220000Y-75006300D01*
X142220000Y-75006300D02*
X142186000Y-74858700D01*
X142186000Y-74858700D02*
X142159100Y-74708500D01*
X142159100Y-74708500D02*
X142139700Y-74555800D01*
X142139700Y-74555800D02*
X142128000Y-74401000D01*
X142128000Y-74401000D02*
X142124000Y-74244000D01*
X142124000Y-74244000D02*
X142128000Y-74087100D01*
X142128000Y-74087100D02*
X142139700Y-73932200D01*
X142139700Y-73932200D02*
X142159100Y-73779600D01*
X142159100Y-73779600D02*
X142186000Y-73629400D01*
X142186000Y-73629400D02*
X142220000Y-73481800D01*
X142220000Y-73481800D02*
X142261100Y-73337100D01*
X142261100Y-73337100D02*
X142309000Y-73195400D01*
X142309000Y-73195400D02*
X142363700Y-73056900D01*
X142363700Y-73056900D02*
X142424800Y-72921800D01*
X142424800Y-72921800D02*
X142492100Y-72790300D01*
X142492100Y-72790300D02*
X142565500Y-72662600D01*
X142565500Y-72662600D02*
X142644900Y-72538800D01*
X142644900Y-72538800D02*
X142729900Y-72419200D01*
X142729900Y-72419200D02*
X142820500Y-72304000D01*
X142820500Y-72304000D02*
X142916300Y-72193300D01*
X142916300Y-72193300D02*
X143017300Y-72087400D01*
X143017300Y-72087400D02*
X143123200Y-71986400D01*
X143123200Y-71986400D02*
X143233900Y-71890500D01*
X143233900Y-71890500D02*
X143349100Y-71799900D01*
X143349100Y-71799900D02*
X143468700Y-71714900D01*
X143468700Y-71714900D02*
X143592400Y-71635500D01*
X143592400Y-71635500D02*
X143720100Y-71562100D01*
X143720100Y-71562100D02*
X143851600Y-71494700D01*
X143851600Y-71494700D02*
X143986700Y-71433600D01*
X143986700Y-71433600D02*
X144125200Y-71379000D01*
X144125200Y-71379000D02*
X144266900Y-71331000D01*
X144266900Y-71331000D02*
X144411600Y-71289900D01*
X144411600Y-71289900D02*
X144559200Y-71255900D01*
X144559200Y-71255900D02*
X144709300Y-71229000D01*
X144709300Y-71229000D02*
X144861900Y-71209600D01*
X144861900Y-71209600D02*
X145016800Y-71197900D01*
X145016800Y-71197900D02*
X145173700Y-71193900D01*
X145173700Y-71193900D02*
X145330700Y-71197900D01*
X145330700Y-71197900D02*
X145485600Y-71209600D01*
X145485600Y-71209600D02*
X145638200Y-71229000D01*
X145638200Y-71229000D02*
X145788400Y-71255900D01*
X145788400Y-71255900D02*
X145936000Y-71289900D01*
X145936000Y-71289900D02*
X146080700Y-71331000D01*
X146080700Y-71331000D02*
X146222500Y-71379000D01*
X146222500Y-71379000D02*
X146361000Y-71433600D01*
X146361000Y-71433600D02*
X146496100Y-71494700D01*
X146496100Y-71494700D02*
X146627600Y-71562100D01*
X146627600Y-71562100D02*
X146755300Y-71635500D01*
X146755300Y-71635500D02*
X146879100Y-71714900D01*
X146879100Y-71714900D02*
X146998700Y-71799900D01*
X146998700Y-71799900D02*
X147113900Y-71890500D01*
X147113900Y-71890500D02*
X147224600Y-71986400D01*
X147224600Y-71986400D02*
X147330500Y-72087400D01*
X147330500Y-72087400D02*
X147431500Y-72193300D01*
X147431500Y-72193300D02*
X147527400Y-72304000D01*
X147527400Y-72304000D02*
X147617900Y-72419200D01*
X147617900Y-72419200D02*
X147702900Y-72538800D01*
X147702900Y-72538800D02*
X147782300Y-72662600D01*
X147782300Y-72662600D02*
X147855700Y-72790300D01*
X147855700Y-72790300D02*
X147923100Y-72921800D01*
X147923100Y-72921800D02*
X147984200Y-73056900D01*
X147984200Y-73056900D02*
X148038800Y-73195400D01*
X148038800Y-73195400D02*
X148086700Y-73337100D01*
X148086700Y-73337100D02*
X148127800Y-73481800D01*
X148127800Y-73481800D02*
X148161900Y-73629400D01*
X148161900Y-73629400D02*
X148188700Y-73779600D01*
X148188700Y-73779600D02*
X148208100Y-73932200D01*
X148208100Y-73932200D02*
X148219900Y-74087100D01*
X148219900Y-74087100D02*
X148223900Y-74244000D01*
X148223900Y-74244000D02*
X148223900Y-74244000D01*
X148223900Y-74244000D02*
X148223900Y-74244000D01*
X148223900Y-91985200D02*
X148219900Y-92142100D01*
X148219900Y-92142100D02*
X148208100Y-92297000D01*
X148208100Y-92297000D02*
X148188700Y-92449700D01*
X148188700Y-92449700D02*
X148161900Y-92599900D01*
X148161900Y-92599900D02*
X148127800Y-92747500D01*
X148127800Y-92747500D02*
X148086700Y-92892200D01*
X148086700Y-92892200D02*
X148038800Y-93033900D01*
X148038800Y-93033900D02*
X147984200Y-93172400D01*
X147984200Y-93172400D02*
X147923100Y-93307500D01*
X147923100Y-93307500D02*
X147855700Y-93439000D01*
X147855700Y-93439000D02*
X147782300Y-93566800D01*
X147782300Y-93566800D02*
X147702900Y-93690500D01*
X147702900Y-93690500D02*
X147617900Y-93810100D01*
X147617900Y-93810100D02*
X147527400Y-93925300D01*
X147527400Y-93925300D02*
X147431500Y-94036000D01*
X147431500Y-94036000D02*
X147330500Y-94141900D01*
X147330500Y-94141900D02*
X147224600Y-94242900D01*
X147224600Y-94242900D02*
X147113900Y-94338800D01*
X147113900Y-94338800D02*
X146998700Y-94429400D01*
X146998700Y-94429400D02*
X146879100Y-94514400D01*
X146879100Y-94514400D02*
X146755300Y-94593700D01*
X146755300Y-94593700D02*
X146627600Y-94667200D01*
X146627600Y-94667200D02*
X146496100Y-94734500D01*
X146496100Y-94734500D02*
X146361000Y-94795600D01*
X146361000Y-94795600D02*
X146222500Y-94850200D01*
X146222500Y-94850200D02*
X146080700Y-94898200D01*
X146080700Y-94898200D02*
X145936000Y-94939300D01*
X145936000Y-94939300D02*
X145788400Y-94973300D01*
X145788400Y-94973300D02*
X145638200Y-95000200D01*
X145638200Y-95000200D02*
X145485600Y-95019600D01*
X145485600Y-95019600D02*
X145330700Y-95031300D01*
X145330700Y-95031300D02*
X145173700Y-95035300D01*
X145173700Y-95035300D02*
X145016800Y-95031300D01*
X145016800Y-95031300D02*
X144861900Y-95019600D01*
X144861900Y-95019600D02*
X144709300Y-95000200D01*
X144709300Y-95000200D02*
X144559200Y-94973300D01*
X144559200Y-94973300D02*
X144411600Y-94939300D01*
X144411600Y-94939300D02*
X144266900Y-94898200D01*
X144266900Y-94898200D02*
X144125200Y-94850200D01*
X144125200Y-94850200D02*
X143986700Y-94795600D01*
X143986700Y-94795600D02*
X143851600Y-94734500D01*
X143851600Y-94734500D02*
X143720100Y-94667200D01*
X143720100Y-94667200D02*
X143592400Y-94593700D01*
X143592400Y-94593700D02*
X143468700Y-94514400D01*
X143468700Y-94514400D02*
X143349100Y-94429400D01*
X143349100Y-94429400D02*
X143233900Y-94338800D01*
X143233900Y-94338800D02*
X143123200Y-94242900D01*
X143123200Y-94242900D02*
X143017300Y-94141900D01*
X143017300Y-94141900D02*
X142916300Y-94036000D01*
X142916300Y-94036000D02*
X142820500Y-93925300D01*
X142820500Y-93925300D02*
X142729900Y-93810100D01*
X142729900Y-93810100D02*
X142644900Y-93690500D01*
X142644900Y-93690500D02*
X142565500Y-93566800D01*
X142565500Y-93566800D02*
X142492100Y-93439000D01*
X142492100Y-93439000D02*
X142424800Y-93307500D01*
X142424800Y-93307500D02*
X142363700Y-93172400D01*
X142363700Y-93172400D02*
X142309000Y-93033900D01*
X142309000Y-93033900D02*
X142261100Y-92892200D01*
X142261100Y-92892200D02*
X142220000Y-92747500D01*
X142220000Y-92747500D02*
X142186000Y-92599900D01*
X142186000Y-92599900D02*
X142159100Y-92449700D01*
X142159100Y-92449700D02*
X142139700Y-92297000D01*
X142139700Y-92297000D02*
X142128000Y-92142100D01*
X142128000Y-92142100D02*
X142124000Y-91985200D01*
X142124000Y-91985200D02*
X142128000Y-91828200D01*
X142128000Y-91828200D02*
X142139700Y-91673300D01*
X142139700Y-91673300D02*
X142159100Y-91520700D01*
X142159100Y-91520700D02*
X142186000Y-91370500D01*
X142186000Y-91370500D02*
X142220000Y-91222900D01*
X142220000Y-91222900D02*
X142261100Y-91078200D01*
X142261100Y-91078200D02*
X142309000Y-90936500D01*
X142309000Y-90936500D02*
X142363700Y-90798000D01*
X142363700Y-90798000D02*
X142424800Y-90662800D01*
X142424800Y-90662800D02*
X142492100Y-90531300D01*
X142492100Y-90531300D02*
X142565500Y-90403600D01*
X142565500Y-90403600D02*
X142644900Y-90279800D01*
X142644900Y-90279800D02*
X142729900Y-90160300D01*
X142729900Y-90160300D02*
X142820500Y-90045000D01*
X142820500Y-90045000D02*
X142916300Y-89934400D01*
X142916300Y-89934400D02*
X143017300Y-89828400D01*
X143017300Y-89828400D02*
X143123200Y-89727400D01*
X143123200Y-89727400D02*
X143233900Y-89631600D01*
X143233900Y-89631600D02*
X143349100Y-89541000D01*
X143349100Y-89541000D02*
X143468700Y-89456000D01*
X143468700Y-89456000D02*
X143592400Y-89376600D01*
X143592400Y-89376600D02*
X143720100Y-89303200D01*
X143720100Y-89303200D02*
X143851600Y-89235800D01*
X143851600Y-89235800D02*
X143986700Y-89174800D01*
X143986700Y-89174800D02*
X144125200Y-89120200D01*
X144125200Y-89120200D02*
X144266900Y-89072200D01*
X144266900Y-89072200D02*
X144411600Y-89031100D01*
X144411600Y-89031100D02*
X144559200Y-88997000D01*
X144559200Y-88997000D02*
X144709300Y-88970200D01*
X144709300Y-88970200D02*
X144861900Y-88950800D01*
X144861900Y-88950800D02*
X145016800Y-88939000D01*
X145016800Y-88939000D02*
X145173700Y-88935000D01*
X145173700Y-88935000D02*
X145330700Y-88939000D01*
X145330700Y-88939000D02*
X145485600Y-88950800D01*
X145485600Y-88950800D02*
X145638200Y-88970200D01*
X145638200Y-88970200D02*
X145788400Y-88997000D01*
X145788400Y-88997000D02*
X145936000Y-89031100D01*
X145936000Y-89031100D02*
X146080700Y-89072200D01*
X146080700Y-89072200D02*
X146222500Y-89120200D01*
X146222500Y-89120200D02*
X146361000Y-89174800D01*
X146361000Y-89174800D02*
X146496100Y-89235800D01*
X146496100Y-89235800D02*
X146627600Y-89303200D01*
X146627600Y-89303200D02*
X146755300Y-89376600D01*
X146755300Y-89376600D02*
X146879100Y-89456000D01*
X146879100Y-89456000D02*
X146998700Y-89541000D01*
X146998700Y-89541000D02*
X147113900Y-89631600D01*
X147113900Y-89631600D02*
X147224600Y-89727400D01*
X147224600Y-89727400D02*
X147330500Y-89828400D01*
X147330500Y-89828400D02*
X147431500Y-89934400D01*
X147431500Y-89934400D02*
X147527400Y-90045000D01*
X147527400Y-90045000D02*
X147617900Y-90160300D01*
X147617900Y-90160300D02*
X147702900Y-90279800D01*
X147702900Y-90279800D02*
X147782300Y-90403600D01*
X147782300Y-90403600D02*
X147855700Y-90531300D01*
X147855700Y-90531300D02*
X147923100Y-90662800D01*
X147923100Y-90662800D02*
X147984200Y-90798000D01*
X147984200Y-90798000D02*
X148038800Y-90936500D01*
X148038800Y-90936500D02*
X148086700Y-91078200D01*
X148086700Y-91078200D02*
X148127800Y-91222900D01*
X148127800Y-91222900D02*
X148161900Y-91370500D01*
X148161900Y-91370500D02*
X148188700Y-91520700D01*
X148188700Y-91520700D02*
X148208100Y-91673300D01*
X148208100Y-91673300D02*
X148219900Y-91828200D01*
X148219900Y-91828200D02*
X148223900Y-91985200D01*
X148223900Y-91985200D02*
X148223900Y-91985200D01*
X148223900Y-91985200D02*
X148223900Y-91985200D01*
X148203900Y-109777700D02*
X148199900Y-109934700D01*
X148199900Y-109934700D02*
X148188100Y-110089600D01*
X148188100Y-110089600D02*
X148168700Y-110242200D01*
X148168700Y-110242200D02*
X148141900Y-110392400D01*
X148141900Y-110392400D02*
X148107900Y-110540000D01*
X148107900Y-110540000D02*
X148066800Y-110684700D01*
X148066800Y-110684700D02*
X148018800Y-110826400D01*
X148018800Y-110826400D02*
X147964200Y-110964900D01*
X147964200Y-110964900D02*
X147903100Y-111100100D01*
X147903100Y-111100100D02*
X147835800Y-111231600D01*
X147835800Y-111231600D02*
X147762300Y-111359300D01*
X147762300Y-111359300D02*
X147683000Y-111483100D01*
X147683000Y-111483100D02*
X147597900Y-111602600D01*
X147597900Y-111602600D02*
X147507400Y-111717900D01*
X147507400Y-111717900D02*
X147411500Y-111828500D01*
X147411500Y-111828500D02*
X147310500Y-111934500D01*
X147310500Y-111934500D02*
X147204600Y-112035500D01*
X147204600Y-112035500D02*
X147093900Y-112131300D01*
X147093900Y-112131300D02*
X146978700Y-112221900D01*
X146978700Y-112221900D02*
X146859100Y-112306900D01*
X146859100Y-112306900D02*
X146735400Y-112386300D01*
X146735400Y-112386300D02*
X146607600Y-112459700D01*
X146607600Y-112459700D02*
X146476100Y-112527100D01*
X146476100Y-112527100D02*
X146341000Y-112588100D01*
X146341000Y-112588100D02*
X146202500Y-112642700D01*
X146202500Y-112642700D02*
X146060800Y-112690700D01*
X146060800Y-112690700D02*
X145916000Y-112731800D01*
X145916000Y-112731800D02*
X145768500Y-112765900D01*
X145768500Y-112765900D02*
X145618300Y-112792700D01*
X145618300Y-112792700D02*
X145465600Y-112812100D01*
X145465600Y-112812100D02*
X145310700Y-112823900D01*
X145310700Y-112823900D02*
X145153800Y-112827900D01*
X145153800Y-112827900D02*
X144996800Y-112823900D01*
X144996800Y-112823900D02*
X144841900Y-112812100D01*
X144841900Y-112812100D02*
X144689300Y-112792700D01*
X144689300Y-112792700D02*
X144539100Y-112765900D01*
X144539100Y-112765900D02*
X144391500Y-112731800D01*
X144391500Y-112731800D02*
X144246800Y-112690700D01*
X144246800Y-112690700D02*
X144105100Y-112642700D01*
X144105100Y-112642700D02*
X143966600Y-112588100D01*
X143966600Y-112588100D02*
X143831500Y-112527100D01*
X143831500Y-112527100D02*
X143700000Y-112459700D01*
X143700000Y-112459700D02*
X143572300Y-112386300D01*
X143572300Y-112386300D02*
X143448500Y-112306900D01*
X143448500Y-112306900D02*
X143329000Y-112221900D01*
X143329000Y-112221900D02*
X143213800Y-112131300D01*
X143213800Y-112131300D02*
X143103100Y-112035500D01*
X143103100Y-112035500D02*
X142997200Y-111934500D01*
X142997200Y-111934500D02*
X142896200Y-111828500D01*
X142896200Y-111828500D02*
X142800400Y-111717900D01*
X142800400Y-111717900D02*
X142709800Y-111602600D01*
X142709800Y-111602600D02*
X142624800Y-111483100D01*
X142624800Y-111483100D02*
X142545500Y-111359300D01*
X142545500Y-111359300D02*
X142472100Y-111231600D01*
X142472100Y-111231600D02*
X142404700Y-111100100D01*
X142404700Y-111100100D02*
X142343700Y-110964900D01*
X142343700Y-110964900D02*
X142289000Y-110826400D01*
X142289000Y-110826400D02*
X142241100Y-110684700D01*
X142241100Y-110684700D02*
X142200000Y-110540000D01*
X142200000Y-110540000D02*
X142166000Y-110392400D01*
X142166000Y-110392400D02*
X142139200Y-110242200D01*
X142139200Y-110242200D02*
X142119800Y-110089600D01*
X142119800Y-110089600D02*
X142108000Y-109934700D01*
X142108000Y-109934700D02*
X142104000Y-109777700D01*
X142104000Y-109777700D02*
X142108000Y-109620800D01*
X142108000Y-109620800D02*
X142119800Y-109465900D01*
X142119800Y-109465900D02*
X142139200Y-109313300D01*
X142139200Y-109313300D02*
X142166000Y-109163100D01*
X142166000Y-109163100D02*
X142200000Y-109015600D01*
X142200000Y-109015600D02*
X142241100Y-108870800D01*
X142241100Y-108870800D02*
X142289000Y-108729100D01*
X142289000Y-108729100D02*
X142343700Y-108590600D01*
X142343700Y-108590600D02*
X142404700Y-108455500D01*
X142404700Y-108455500D02*
X142472100Y-108324000D01*
X142472100Y-108324000D02*
X142545500Y-108196300D01*
X142545500Y-108196300D02*
X142624800Y-108072500D01*
X142624800Y-108072500D02*
X142709800Y-107952900D01*
X142709800Y-107952900D02*
X142800400Y-107837700D01*
X142800400Y-107837700D02*
X142896200Y-107727000D01*
X142896200Y-107727000D02*
X142997200Y-107621100D01*
X142997200Y-107621100D02*
X143103100Y-107520100D01*
X143103100Y-107520100D02*
X143213800Y-107424200D01*
X143213800Y-107424200D02*
X143329000Y-107333700D01*
X143329000Y-107333700D02*
X143448500Y-107248600D01*
X143448500Y-107248600D02*
X143572300Y-107169300D01*
X143572300Y-107169300D02*
X143700000Y-107095800D01*
X143700000Y-107095800D02*
X143831500Y-107028400D01*
X143831500Y-107028400D02*
X143966600Y-106967300D01*
X143966600Y-106967300D02*
X144105100Y-106912700D01*
X144105100Y-106912700D02*
X144246800Y-106864800D01*
X144246800Y-106864800D02*
X144391500Y-106823600D01*
X144391500Y-106823600D02*
X144539100Y-106789600D01*
X144539100Y-106789600D02*
X144689300Y-106762800D01*
X144689300Y-106762800D02*
X144841900Y-106743400D01*
X144841900Y-106743400D02*
X144996800Y-106731600D01*
X144996800Y-106731600D02*
X145153800Y-106727600D01*
X145153800Y-106727600D02*
X145310700Y-106731600D01*
X145310700Y-106731600D02*
X145465600Y-106743400D01*
X145465600Y-106743400D02*
X145618300Y-106762800D01*
X145618300Y-106762800D02*
X145768500Y-106789600D01*
X145768500Y-106789600D02*
X145916000Y-106823600D01*
X145916000Y-106823600D02*
X146060800Y-106864800D01*
X146060800Y-106864800D02*
X146202500Y-106912700D01*
X146202500Y-106912700D02*
X146341000Y-106967300D01*
X146341000Y-106967300D02*
X146476100Y-107028400D01*
X146476100Y-107028400D02*
X146607600Y-107095800D01*
X146607600Y-107095800D02*
X146735400Y-107169300D01*
X146735400Y-107169300D02*
X146859100Y-107248600D01*
X146859100Y-107248600D02*
X146978700Y-107333700D01*
X146978700Y-107333700D02*
X147093900Y-107424200D01*
X147093900Y-107424200D02*
X147204600Y-107520100D01*
X147204600Y-107520100D02*
X147310500Y-107621100D01*
X147310500Y-107621100D02*
X147411500Y-107727000D01*
X147411500Y-107727000D02*
X147507400Y-107837700D01*
X147507400Y-107837700D02*
X147597900Y-107952900D01*
X147597900Y-107952900D02*
X147683000Y-108072500D01*
X147683000Y-108072500D02*
X147762300Y-108196300D01*
X147762300Y-108196300D02*
X147835800Y-108324000D01*
X147835800Y-108324000D02*
X147903100Y-108455500D01*
X147903100Y-108455500D02*
X147964200Y-108590600D01*
X147964200Y-108590600D02*
X148018800Y-108729100D01*
X148018800Y-108729100D02*
X148066800Y-108870800D01*
X148066800Y-108870800D02*
X148107900Y-109015600D01*
X148107900Y-109015600D02*
X148141900Y-109163100D01*
X148141900Y-109163100D02*
X148168700Y-109313300D01*
X148168700Y-109313300D02*
X148188100Y-109465900D01*
X148188100Y-109465900D02*
X148199900Y-109620800D01*
X148199900Y-109620800D02*
X148203900Y-109777700D01*
X148203900Y-109777700D02*
X148203900Y-109777700D01*
X148203900Y-109777700D02*
X148203900Y-109777700D01*
X137544100Y-126347600D02*
X137540800Y-126478800D01*
X137540800Y-126478800D02*
X137531000Y-126608300D01*
X137531000Y-126608300D02*
X137514800Y-126736000D01*
X137514800Y-126736000D02*
X137492400Y-126861500D01*
X137492400Y-126861500D02*
X137463900Y-126984900D01*
X137463900Y-126984900D02*
X137429500Y-127105900D01*
X137429500Y-127105900D02*
X137389400Y-127224400D01*
X137389400Y-127224400D02*
X137343800Y-127340200D01*
X137343800Y-127340200D02*
X137292700Y-127453200D01*
X137292700Y-127453200D02*
X137236400Y-127563100D01*
X137236400Y-127563100D02*
X137175000Y-127669900D01*
X137175000Y-127669900D02*
X137108700Y-127773400D01*
X137108700Y-127773400D02*
X137037600Y-127873400D01*
X137037600Y-127873400D02*
X136961900Y-127969700D01*
X136961900Y-127969700D02*
X136881700Y-128062300D01*
X136881700Y-128062300D02*
X136797300Y-128150800D01*
X136797300Y-128150800D02*
X136708700Y-128235300D01*
X136708700Y-128235300D02*
X136616200Y-128315400D01*
X136616200Y-128315400D02*
X136519900Y-128391200D01*
X136519900Y-128391200D02*
X136419900Y-128462300D01*
X136419900Y-128462300D02*
X136316400Y-128528600D01*
X136316400Y-128528600D02*
X136209600Y-128590000D01*
X136209600Y-128590000D02*
X136099600Y-128646300D01*
X136099600Y-128646300D02*
X135986700Y-128697400D01*
X135986700Y-128697400D02*
X135870900Y-128743100D01*
X135870900Y-128743100D02*
X135752400Y-128783200D01*
X135752400Y-128783200D02*
X135631300Y-128817500D01*
X135631300Y-128817500D02*
X135507900Y-128846000D01*
X135507900Y-128846000D02*
X135382300Y-128868500D01*
X135382300Y-128868500D02*
X135254700Y-128884700D01*
X135254700Y-128884700D02*
X135125200Y-128894600D01*
X135125200Y-128894600D02*
X134993900Y-128897900D01*
X134993900Y-128897900D02*
X134862700Y-128894600D01*
X134862700Y-128894600D02*
X134733200Y-128884700D01*
X134733200Y-128884700D02*
X134605600Y-128868500D01*
X134605600Y-128868500D02*
X134480000Y-128846000D01*
X134480000Y-128846000D02*
X134356700Y-128817500D01*
X134356700Y-128817500D02*
X134235700Y-128783200D01*
X134235700Y-128783200D02*
X134117200Y-128743100D01*
X134117200Y-128743100D02*
X134001400Y-128697400D01*
X134001400Y-128697400D02*
X133888400Y-128646300D01*
X133888400Y-128646300D02*
X133778500Y-128590000D01*
X133778500Y-128590000D02*
X133671700Y-128528600D01*
X133671700Y-128528600D02*
X133568200Y-128462300D01*
X133568200Y-128462300D02*
X133468300Y-128391200D01*
X133468300Y-128391200D02*
X133372000Y-128315400D01*
X133372000Y-128315400D02*
X133279400Y-128235300D01*
X133279400Y-128235300D02*
X133190900Y-128150800D01*
X133190900Y-128150800D02*
X133106500Y-128062300D01*
X133106500Y-128062300D02*
X133026300Y-127969700D01*
X133026300Y-127969700D02*
X132950600Y-127873400D01*
X132950600Y-127873400D02*
X132879500Y-127773400D01*
X132879500Y-127773400D02*
X132813200Y-127669900D01*
X132813200Y-127669900D02*
X132751800Y-127563100D01*
X132751800Y-127563100D02*
X132695500Y-127453200D01*
X132695500Y-127453200D02*
X132644400Y-127340200D01*
X132644400Y-127340200D02*
X132598800Y-127224400D01*
X132598800Y-127224400D02*
X132558700Y-127105900D01*
X132558700Y-127105900D02*
X132524300Y-126984900D01*
X132524300Y-126984900D02*
X132495800Y-126861500D01*
X132495800Y-126861500D02*
X132473400Y-126736000D01*
X132473400Y-126736000D02*
X132457200Y-126608300D01*
X132457200Y-126608300D02*
X132447400Y-126478800D01*
X132447400Y-126478800D02*
X132444100Y-126347600D01*
X132444100Y-126347600D02*
X132447400Y-126216400D01*
X132447400Y-126216400D02*
X132457200Y-126086900D01*
X132457200Y-126086900D02*
X132473400Y-125959300D01*
X132473400Y-125959300D02*
X132495800Y-125833700D01*
X132495800Y-125833700D02*
X132524300Y-125710300D01*
X132524300Y-125710300D02*
X132558700Y-125589300D01*
X132558700Y-125589300D02*
X132598800Y-125470800D01*
X132598800Y-125470800D02*
X132644400Y-125355000D01*
X132644400Y-125355000D02*
X132695500Y-125242100D01*
X132695500Y-125242100D02*
X132751800Y-125132100D01*
X132751800Y-125132100D02*
X132813200Y-125025300D01*
X132813200Y-125025300D02*
X132879500Y-124921800D01*
X132879500Y-124921800D02*
X132950600Y-124821800D01*
X132950600Y-124821800D02*
X133026300Y-124725500D01*
X133026300Y-124725500D02*
X133106500Y-124633000D01*
X133106500Y-124633000D02*
X133190900Y-124544400D01*
X133190900Y-124544400D02*
X133279400Y-124459900D01*
X133279400Y-124459900D02*
X133372000Y-124379800D01*
X133372000Y-124379800D02*
X133468300Y-124304100D01*
X133468300Y-124304100D02*
X133568200Y-124233000D01*
X133568200Y-124233000D02*
X133671700Y-124166600D01*
X133671700Y-124166600D02*
X133778500Y-124105200D01*
X133778500Y-124105200D02*
X133888400Y-124048900D01*
X133888400Y-124048900D02*
X134001400Y-123997800D01*
X134001400Y-123997800D02*
X134117200Y-123952200D01*
X134117200Y-123952200D02*
X134235700Y-123912100D01*
X134235700Y-123912100D02*
X134356700Y-123877700D01*
X134356700Y-123877700D02*
X134480000Y-123849200D01*
X134480000Y-123849200D02*
X134605600Y-123826800D01*
X134605600Y-123826800D02*
X134733200Y-123810600D01*
X134733200Y-123810600D02*
X134862700Y-123800700D01*
X134862700Y-123800700D02*
X134993900Y-123797400D01*
X134993900Y-123797400D02*
X135125200Y-123800700D01*
X135125200Y-123800700D02*
X135254700Y-123810600D01*
X135254700Y-123810600D02*
X135382300Y-123826800D01*
X135382300Y-123826800D02*
X135507900Y-123849200D01*
X135507900Y-123849200D02*
X135631300Y-123877700D01*
X135631300Y-123877700D02*
X135752400Y-123912100D01*
X135752400Y-123912100D02*
X135870900Y-123952200D01*
X135870900Y-123952200D02*
X135986700Y-123997800D01*
X135986700Y-123997800D02*
X136099600Y-124048900D01*
X136099600Y-124048900D02*
X136209600Y-124105200D01*
X136209600Y-124105200D02*
X136316400Y-124166600D01*
X136316400Y-124166600D02*
X136419900Y-124233000D01*
X136419900Y-124233000D02*
X136519900Y-124304100D01*
X136519900Y-124304100D02*
X136616200Y-124379800D01*
X136616200Y-124379800D02*
X136708700Y-124459900D01*
X136708700Y-124459900D02*
X136797300Y-124544400D01*
X136797300Y-124544400D02*
X136881700Y-124633000D01*
X136881700Y-124633000D02*
X136961900Y-124725500D01*
X136961900Y-124725500D02*
X137037600Y-124821800D01*
X137037600Y-124821800D02*
X137108700Y-124921800D01*
X137108700Y-124921800D02*
X137175000Y-125025300D01*
X137175000Y-125025300D02*
X137236400Y-125132100D01*
X137236400Y-125132100D02*
X137292700Y-125242100D01*
X137292700Y-125242100D02*
X137343800Y-125355000D01*
X137343800Y-125355000D02*
X137389400Y-125470800D01*
X137389400Y-125470800D02*
X137429500Y-125589300D01*
X137429500Y-125589300D02*
X137463900Y-125710300D01*
X137463900Y-125710300D02*
X137492400Y-125833700D01*
X137492400Y-125833700D02*
X137514800Y-125959300D01*
X137514800Y-125959300D02*
X137531000Y-126086900D01*
X137531000Y-126086900D02*
X137540800Y-126216400D01*
X137540800Y-126216400D02*
X137544100Y-126347600D01*
X137544100Y-126347600D02*
X137544100Y-126347600D01*
X137544100Y-126347600D02*
X137544100Y-126347600D01*
X127913500Y-126332800D02*
X127909500Y-126489700D01*
X127909500Y-126489700D02*
X127897700Y-126644600D01*
X127897700Y-126644600D02*
X127878300Y-126797200D01*
X127878300Y-126797200D02*
X127851500Y-126947400D01*
X127851500Y-126947400D02*
X127817500Y-127094900D01*
X127817500Y-127094900D02*
X127776400Y-127239700D01*
X127776400Y-127239700D02*
X127728400Y-127381400D01*
X127728400Y-127381400D02*
X127673800Y-127519900D01*
X127673800Y-127519900D02*
X127612700Y-127655000D01*
X127612700Y-127655000D02*
X127545400Y-127786500D01*
X127545400Y-127786500D02*
X127471900Y-127914200D01*
X127471900Y-127914200D02*
X127392600Y-128038000D01*
X127392600Y-128038000D02*
X127307500Y-128157600D01*
X127307500Y-128157600D02*
X127217000Y-128272800D01*
X127217000Y-128272800D02*
X127121100Y-128383500D01*
X127121100Y-128383500D02*
X127020100Y-128489400D01*
X127020100Y-128489400D02*
X126914200Y-128590400D01*
X126914200Y-128590400D02*
X126803500Y-128686300D01*
X126803500Y-128686300D02*
X126688300Y-128776900D01*
X126688300Y-128776900D02*
X126568700Y-128861900D01*
X126568700Y-128861900D02*
X126445000Y-128941300D01*
X126445000Y-128941300D02*
X126317200Y-129014700D01*
X126317200Y-129014700D02*
X126185700Y-129082100D01*
X126185700Y-129082100D02*
X126050600Y-129143200D01*
X126050600Y-129143200D02*
X125912100Y-129197800D01*
X125912100Y-129197800D02*
X125770400Y-129245700D01*
X125770400Y-129245700D02*
X125625600Y-129286800D01*
X125625600Y-129286800D02*
X125478100Y-129320900D01*
X125478100Y-129320900D02*
X125327900Y-129347700D01*
X125327900Y-129347700D02*
X125175200Y-129367100D01*
X125175200Y-129367100D02*
X125020300Y-129378900D01*
X125020300Y-129378900D02*
X124863400Y-129382900D01*
X124863400Y-129382900D02*
X124706400Y-129378900D01*
X124706400Y-129378900D02*
X124551570Y-129367100D01*
X124551570Y-129367100D02*
X124398950Y-129347700D01*
X124398950Y-129347700D02*
X124248790Y-129320900D01*
X124248790Y-129320900D02*
X124101260Y-129286900D01*
X124101260Y-129286900D02*
X123956510Y-129245800D01*
X123956510Y-129245800D02*
X123814800Y-129197800D01*
X123814800Y-129197800D02*
X123676300Y-129143200D01*
X123676300Y-129143200D02*
X123541220Y-129082100D01*
X123541220Y-129082100D02*
X123409710Y-129014700D01*
X123409710Y-129014700D02*
X123281970Y-128941300D01*
X123281970Y-128941300D02*
X123158210Y-128861900D01*
X123158210Y-128861900D02*
X123038620Y-128776900D01*
X123038620Y-128776900D02*
X122923400Y-128686300D01*
X122923400Y-128686300D02*
X122812700Y-128590400D01*
X122812700Y-128590400D02*
X122706760Y-128489400D01*
X122706760Y-128489400D02*
X122605760Y-128383500D01*
X122605760Y-128383500D02*
X122509910Y-128272800D01*
X122509910Y-128272800D02*
X122419350Y-128157600D01*
X122419350Y-128157600D02*
X122334300Y-128038000D01*
X122334300Y-128038000D02*
X122254960Y-127914200D01*
X122254960Y-127914200D02*
X122181470Y-127786500D01*
X122181470Y-127786500D02*
X122114130Y-127655000D01*
X122114130Y-127655000D02*
X122053030Y-127519900D01*
X122053030Y-127519900D02*
X121998420Y-127381400D01*
X121998420Y-127381400D02*
X121950440Y-127239700D01*
X121950440Y-127239700D02*
X121909340Y-127094900D01*
X121909340Y-127094900D02*
X121875260Y-126947400D01*
X121875260Y-126947400D02*
X121848420Y-126797200D01*
X121848420Y-126797200D02*
X121829010Y-126644600D01*
X121829010Y-126644600D02*
X121817270Y-126489700D01*
X121817270Y-126489700D02*
X121813280Y-126332800D01*
X121813280Y-126332800D02*
X121817270Y-126175800D01*
X121817270Y-126175800D02*
X121829010Y-126020900D01*
X121829010Y-126020900D02*
X121848420Y-125868300D01*
X121848420Y-125868300D02*
X121875260Y-125718100D01*
X121875260Y-125718100D02*
X121909340Y-125570500D01*
X121909340Y-125570500D02*
X121950440Y-125425800D01*
X121950440Y-125425800D02*
X121998420Y-125284100D01*
X121998420Y-125284100D02*
X122053030Y-125145600D01*
X122053030Y-125145600D02*
X122114130Y-125010500D01*
X122114130Y-125010500D02*
X122181470Y-124878900D01*
X122181470Y-124878900D02*
X122254960Y-124751200D01*
X122254960Y-124751200D02*
X122334300Y-124627500D01*
X122334300Y-124627500D02*
X122419350Y-124507900D01*
X122419350Y-124507900D02*
X122509910Y-124392600D01*
X122509910Y-124392600D02*
X122605760Y-124282000D01*
X122605760Y-124282000D02*
X122706760Y-124176000D01*
X122706760Y-124176000D02*
X122812700Y-124075100D01*
X122812700Y-124075100D02*
X122923400Y-123979200D01*
X122923400Y-123979200D02*
X123038620Y-123888600D01*
X123038620Y-123888600D02*
X123158210Y-123803600D01*
X123158210Y-123803600D02*
X123281970Y-123724300D01*
X123281970Y-123724300D02*
X123409710Y-123650800D01*
X123409710Y-123650800D02*
X123541220Y-123583500D01*
X123541220Y-123583500D02*
X123676300Y-123522400D01*
X123676300Y-123522400D02*
X123814800Y-123467800D01*
X123814800Y-123467800D02*
X123956510Y-123419800D01*
X123956510Y-123419800D02*
X124101260Y-123378700D01*
X124101260Y-123378700D02*
X124248790Y-123344700D01*
X124248790Y-123344700D02*
X124398980Y-123317800D01*
X124398980Y-123317800D02*
X124551600Y-123298400D01*
X124551600Y-123298400D02*
X124706500Y-123286600D01*
X124706500Y-123286600D02*
X124863400Y-123282600D01*
X124863400Y-123282600D02*
X125020400Y-123286600D01*
X125020400Y-123286600D02*
X125175200Y-123298400D01*
X125175200Y-123298400D02*
X125327900Y-123317800D01*
X125327900Y-123317800D02*
X125478100Y-123344700D01*
X125478100Y-123344700D02*
X125625700Y-123378700D01*
X125625700Y-123378700D02*
X125770400Y-123419800D01*
X125770400Y-123419800D02*
X125912100Y-123467800D01*
X125912100Y-123467800D02*
X126050600Y-123522400D01*
X126050600Y-123522400D02*
X126185700Y-123583500D01*
X126185700Y-123583500D02*
X126317300Y-123650800D01*
X126317300Y-123650800D02*
X126445000Y-123724300D01*
X126445000Y-123724300D02*
X126568700Y-123803600D01*
X126568700Y-123803600D02*
X126688300Y-123888600D01*
X126688300Y-123888600D02*
X126803500Y-123979200D01*
X126803500Y-123979200D02*
X126914200Y-124075100D01*
X126914200Y-124075100D02*
X127020100Y-124176000D01*
X127020100Y-124176000D02*
X127121100Y-124282000D01*
X127121100Y-124282000D02*
X127217000Y-124392600D01*
X127217000Y-124392600D02*
X127307600Y-124507900D01*
X127307600Y-124507900D02*
X127392600Y-124627500D01*
X127392600Y-124627500D02*
X127471900Y-124751200D01*
X127471900Y-124751200D02*
X127545400Y-124878900D01*
X127545400Y-124878900D02*
X127612700Y-125010500D01*
X127612700Y-125010500D02*
X127673800Y-125145600D01*
X127673800Y-125145600D02*
X127728400Y-125284100D01*
X127728400Y-125284100D02*
X127776400Y-125425800D01*
X127776400Y-125425800D02*
X127817500Y-125570500D01*
X127817500Y-125570500D02*
X127851500Y-125718100D01*
X127851500Y-125718100D02*
X127878400Y-125868300D01*
X127878400Y-125868300D02*
X127897800Y-126020900D01*
X127897800Y-126020900D02*
X127909500Y-126175800D01*
X127909500Y-126175800D02*
X127913500Y-126332800D01*
X127913500Y-126332800D02*
X127913500Y-126332800D01*
X127913500Y-126332800D02*
X127913500Y-126332800D01*
X154896900Y-164516500D02*
X114597000Y-164516500D01*
X114597000Y-164516500D02*
X114597000Y-36016502D01*
X114597000Y-36016502D02*
X154896900Y-36016502D01*
X154896900Y-36016502D02*
X154896900Y-164516500D01*
X154896900Y-164516500D02*
X154896900Y-164516500D01*
X123497050Y-40616580D02*
X120697060Y-40616580D01*
X120697060Y-40616580D02*
X120534040Y-40608280D01*
X120534040Y-40608280D02*
X120375590Y-40583930D01*
X120375590Y-40583930D02*
X120222540Y-40544330D01*
X120222540Y-40544330D02*
X120075700Y-40490330D01*
X120075700Y-40490330D02*
X119935900Y-40422730D01*
X119935900Y-40422730D02*
X119803930Y-40342350D01*
X119803930Y-40342350D02*
X119680670Y-40250020D01*
X119680670Y-40250020D02*
X119566900Y-40146550D01*
X119566900Y-40146550D02*
X119463430Y-40032770D01*
X119463430Y-40032770D02*
X119371110Y-39909490D01*
X119371110Y-39909490D02*
X119290710Y-39777540D01*
X119290710Y-39777540D02*
X119223120Y-39637740D01*
X119223120Y-39637740D02*
X119169110Y-39490900D01*
X119169110Y-39490900D02*
X119129520Y-39337850D01*
X119129520Y-39337850D02*
X119105150Y-39179400D01*
X119105150Y-39179400D02*
X119096860Y-39016380D01*
X119096860Y-39016380D02*
X119105150Y-38853420D01*
X119105150Y-38853420D02*
X119129520Y-38695030D01*
X119129520Y-38695030D02*
X119169110Y-38542030D01*
X119169110Y-38542030D02*
X119223120Y-38395230D01*
X119223120Y-38395230D02*
X119290710Y-38255460D01*
X119290710Y-38255460D02*
X119371110Y-38123540D01*
X119371110Y-38123540D02*
X119463430Y-38000290D01*
X119463430Y-38000290D02*
X119566900Y-37886520D01*
X119566900Y-37886520D02*
X119680670Y-37783070D01*
X119680670Y-37783070D02*
X119803930Y-37690750D01*
X119803930Y-37690750D02*
X119935900Y-37610380D01*
X119935900Y-37610380D02*
X120075700Y-37542790D01*
X120075700Y-37542790D02*
X120222540Y-37488780D01*
X120222540Y-37488780D02*
X120375590Y-37449190D01*
X120375590Y-37449190D02*
X120534040Y-37424840D01*
X120534040Y-37424840D02*
X120697060Y-37416540D01*
X120697060Y-37416540D02*
X123497050Y-37416540D01*
X123497050Y-37416540D02*
X123660010Y-37424840D01*
X123660010Y-37424840D02*
X123818400Y-37449190D01*
X123818400Y-37449190D02*
X123971410Y-37488780D01*
X123971410Y-37488780D02*
X124118210Y-37542790D01*
X124118210Y-37542790D02*
X124257980Y-37610380D01*
X124257980Y-37610380D02*
X124389900Y-37690750D01*
X124389900Y-37690750D02*
X124513150Y-37783070D01*
X124513150Y-37783070D02*
X124626900Y-37886520D01*
X124626900Y-37886520D02*
X124730400Y-38000290D01*
X124730400Y-38000290D02*
X124822700Y-38123540D01*
X124822700Y-38123540D02*
X124903100Y-38255460D01*
X124903100Y-38255460D02*
X124970700Y-38395230D01*
X124970700Y-38395230D02*
X125024700Y-38542030D01*
X125024700Y-38542030D02*
X125064200Y-38695030D01*
X125064200Y-38695030D02*
X125088600Y-38853420D01*
X125088600Y-38853420D02*
X125096900Y-39016380D01*
X125096900Y-39016380D02*
X125088600Y-39179400D01*
X125088600Y-39179400D02*
X125064200Y-39337850D01*
X125064200Y-39337850D02*
X125024700Y-39490900D01*
X125024700Y-39490900D02*
X124970700Y-39637740D01*
X124970700Y-39637740D02*
X124903100Y-39777540D01*
X124903100Y-39777540D02*
X124822700Y-39909490D01*
X124822700Y-39909490D02*
X124730400Y-40032770D01*
X124730400Y-40032770D02*
X124626900Y-40146550D01*
X124626900Y-40146550D02*
X124513150Y-40250020D01*
X124513150Y-40250020D02*
X124389900Y-40342350D01*
X124389900Y-40342350D02*
X124257980Y-40422730D01*
X124257980Y-40422730D02*
X124118210Y-40490330D01*
X124118210Y-40490330D02*
X123971410Y-40544330D01*
X123971410Y-40544330D02*
X123818400Y-40583930D01*
X123818400Y-40583930D02*
X123660010Y-40608280D01*
X123660010Y-40608280D02*
X123497050Y-40616580D01*
X123497050Y-40616580D02*
X123497050Y-40616580D01*
X123497050Y-40616580D02*
X123497050Y-40616580D01*
X123497050Y-163116500D02*
X120697060Y-163116500D01*
X120697060Y-163116500D02*
X120534040Y-163108500D01*
X120534040Y-163108500D02*
X120375590Y-163084500D01*
X120375590Y-163084500D02*
X120222540Y-163044500D01*
X120222540Y-163044500D02*
X120075700Y-162990500D01*
X120075700Y-162990500D02*
X119935900Y-162922500D01*
X119935900Y-162922500D02*
X119803930Y-162842500D01*
X119803930Y-162842500D02*
X119680670Y-162750500D01*
X119680670Y-162750500D02*
X119566900Y-162646500D01*
X119566900Y-162646500D02*
X119463430Y-162532500D01*
X119463430Y-162532500D02*
X119371110Y-162409500D01*
X119371110Y-162409500D02*
X119290710Y-162277500D01*
X119290710Y-162277500D02*
X119223120Y-162137500D01*
X119223120Y-162137500D02*
X119169110Y-161991500D01*
X119169110Y-161991500D02*
X119129520Y-161838500D01*
X119129520Y-161838500D02*
X119105150Y-161679500D01*
X119105150Y-161679500D02*
X119096860Y-161516500D01*
X119096860Y-161516500D02*
X119105150Y-161353500D01*
X119105150Y-161353500D02*
X119129520Y-161195500D01*
X119129520Y-161195500D02*
X119169110Y-161042500D01*
X119169110Y-161042500D02*
X119223120Y-160895500D01*
X119223120Y-160895500D02*
X119290710Y-160755500D01*
X119290710Y-160755500D02*
X119371110Y-160623500D01*
X119371110Y-160623500D02*
X119463430Y-160500500D01*
X119463430Y-160500500D02*
X119566900Y-160386500D01*
X119566900Y-160386500D02*
X119680670Y-160283500D01*
X119680670Y-160283500D02*
X119803930Y-160191500D01*
X119803930Y-160191500D02*
X119935900Y-160110500D01*
X119935900Y-160110500D02*
X120075700Y-160043500D01*
X120075700Y-160043500D02*
X120222540Y-159989500D01*
X120222540Y-159989500D02*
X120375590Y-159949500D01*
X120375590Y-159949500D02*
X120534040Y-159925500D01*
X120534040Y-159925500D02*
X120697060Y-159917500D01*
X120697060Y-159917500D02*
X123497050Y-159917500D01*
X123497050Y-159917500D02*
X123660010Y-159925500D01*
X123660010Y-159925500D02*
X123818400Y-159949500D01*
X123818400Y-159949500D02*
X123971410Y-159989500D01*
X123971410Y-159989500D02*
X124118210Y-160043500D01*
X124118210Y-160043500D02*
X124257980Y-160110500D01*
X124257980Y-160110500D02*
X124389900Y-160191500D01*
X124389900Y-160191500D02*
X124513150Y-160283500D01*
X124513150Y-160283500D02*
X124626900Y-160386500D01*
X124626900Y-160386500D02*
X124730400Y-160500500D01*
X124730400Y-160500500D02*
X124822700Y-160623500D01*
X124822700Y-160623500D02*
X124903100Y-160755500D01*
X124903100Y-160755500D02*
X124970700Y-160895500D01*
X124970700Y-160895500D02*
X125024700Y-161042500D01*
X125024700Y-161042500D02*
X125064200Y-161195500D01*
X125064200Y-161195500D02*
X125088600Y-161353500D01*
X125088600Y-161353500D02*
X125096900Y-161516500D01*
X125096900Y-161516500D02*
X125088600Y-161679500D01*
X125088600Y-161679500D02*
X125064200Y-161838500D01*
X125064200Y-161838500D02*
X125024700Y-161991500D01*
X125024700Y-161991500D02*
X124970700Y-162137500D01*
X124970700Y-162137500D02*
X124903100Y-162277500D01*
X124903100Y-162277500D02*
X124822700Y-162409500D01*
X124822700Y-162409500D02*
X124730400Y-162532500D01*
X124730400Y-162532500D02*
X124626900Y-162646500D01*
X124626900Y-162646500D02*
X124513150Y-162750500D01*
X124513150Y-162750500D02*
X124389900Y-162842500D01*
X124389900Y-162842500D02*
X124257980Y-162922500D01*
X124257980Y-162922500D02*
X124118210Y-162990500D01*
X124118210Y-162990500D02*
X123971410Y-163044500D01*
X123971410Y-163044500D02*
X123818400Y-163084500D01*
X123818400Y-163084500D02*
X123660010Y-163108500D01*
X123660010Y-163108500D02*
X123497050Y-163116500D01*
X123497050Y-163116500D02*
X123497050Y-163116500D01*
X123497050Y-163116500D02*
X123497050Y-163116500D01*
X148797100Y-40616580D02*
X145997200Y-40616580D01*
X145997200Y-40616580D02*
X145834100Y-40608280D01*
X145834100Y-40608280D02*
X145675700Y-40583930D01*
X145675700Y-40583930D02*
X145522600Y-40544330D01*
X145522600Y-40544330D02*
X145375800Y-40490330D01*
X145375800Y-40490330D02*
X145236000Y-40422730D01*
X145236000Y-40422730D02*
X145104000Y-40342350D01*
X145104000Y-40342350D02*
X144980800Y-40250020D01*
X144980800Y-40250020D02*
X144867000Y-40146550D01*
X144867000Y-40146550D02*
X144763500Y-40032770D01*
X144763500Y-40032770D02*
X144671200Y-39909490D01*
X144671200Y-39909490D02*
X144590800Y-39777540D01*
X144590800Y-39777540D02*
X144523200Y-39637740D01*
X144523200Y-39637740D02*
X144469200Y-39490900D01*
X144469200Y-39490900D02*
X144429600Y-39337850D01*
X144429600Y-39337850D02*
X144405200Y-39179400D01*
X144405200Y-39179400D02*
X144396900Y-39016380D01*
X144396900Y-39016380D02*
X144405200Y-38853420D01*
X144405200Y-38853420D02*
X144429600Y-38695030D01*
X144429600Y-38695030D02*
X144469200Y-38542030D01*
X144469200Y-38542030D02*
X144523200Y-38395230D01*
X144523200Y-38395230D02*
X144590800Y-38255460D01*
X144590800Y-38255460D02*
X144671200Y-38123540D01*
X144671200Y-38123540D02*
X144763500Y-38000290D01*
X144763500Y-38000290D02*
X144867000Y-37886520D01*
X144867000Y-37886520D02*
X144980800Y-37783070D01*
X144980800Y-37783070D02*
X145104000Y-37690750D01*
X145104000Y-37690750D02*
X145236000Y-37610380D01*
X145236000Y-37610380D02*
X145375800Y-37542790D01*
X145375800Y-37542790D02*
X145522600Y-37488780D01*
X145522600Y-37488780D02*
X145675700Y-37449190D01*
X145675700Y-37449190D02*
X145834100Y-37424840D01*
X145834100Y-37424840D02*
X145997200Y-37416540D01*
X145997200Y-37416540D02*
X148797100Y-37416540D01*
X148797100Y-37416540D02*
X148960100Y-37424840D01*
X148960100Y-37424840D02*
X149118500Y-37449190D01*
X149118500Y-37449190D02*
X149271500Y-37488780D01*
X149271500Y-37488780D02*
X149418300Y-37542790D01*
X149418300Y-37542790D02*
X149558100Y-37610380D01*
X149558100Y-37610380D02*
X149690000Y-37690750D01*
X149690000Y-37690750D02*
X149813200Y-37783070D01*
X149813200Y-37783070D02*
X149927000Y-37886520D01*
X149927000Y-37886520D02*
X150030500Y-38000290D01*
X150030500Y-38000290D02*
X150122800Y-38123540D01*
X150122800Y-38123540D02*
X150203100Y-38255460D01*
X150203100Y-38255460D02*
X150270700Y-38395230D01*
X150270700Y-38395230D02*
X150324700Y-38542030D01*
X150324700Y-38542030D02*
X150364300Y-38695030D01*
X150364300Y-38695030D02*
X150388700Y-38853420D01*
X150388700Y-38853420D02*
X150397000Y-39016380D01*
X150397000Y-39016380D02*
X150388700Y-39179400D01*
X150388700Y-39179400D02*
X150364300Y-39337850D01*
X150364300Y-39337850D02*
X150324700Y-39490900D01*
X150324700Y-39490900D02*
X150270700Y-39637740D01*
X150270700Y-39637740D02*
X150203100Y-39777540D01*
X150203100Y-39777540D02*
X150122800Y-39909490D01*
X150122800Y-39909490D02*
X150030500Y-40032770D01*
X150030500Y-40032770D02*
X149927000Y-40146550D01*
X149927000Y-40146550D02*
X149813200Y-40250020D01*
X149813200Y-40250020D02*
X149690000Y-40342350D01*
X149690000Y-40342350D02*
X149558100Y-40422730D01*
X149558100Y-40422730D02*
X149418300Y-40490330D01*
X149418300Y-40490330D02*
X149271500Y-40544330D01*
X149271500Y-40544330D02*
X149118500Y-40583930D01*
X149118500Y-40583930D02*
X148960100Y-40608280D01*
X148960100Y-40608280D02*
X148797100Y-40616580D01*
X148797100Y-40616580D02*
X148797100Y-40616580D01*
X148797100Y-40616580D02*
X148797100Y-40616580D01*
X148797100Y-163116500D02*
X145997200Y-163116500D01*
X145997200Y-163116500D02*
X145834100Y-163108500D01*
X145834100Y-163108500D02*
X145675700Y-163084500D01*
X145675700Y-163084500D02*
X145522600Y-163044500D01*
X145522600Y-163044500D02*
X145375800Y-162990500D01*
X145375800Y-162990500D02*
X145236000Y-162922500D01*
X145236000Y-162922500D02*
X145104000Y-162842500D01*
X145104000Y-162842500D02*
X144980800Y-162750500D01*
X144980800Y-162750500D02*
X144867000Y-162646500D01*
X144867000Y-162646500D02*
X144763500Y-162532500D01*
X144763500Y-162532500D02*
X144671200Y-162409500D01*
X144671200Y-162409500D02*
X144590800Y-162277500D01*
X144590800Y-162277500D02*
X144523200Y-162137500D01*
X144523200Y-162137500D02*
X144469200Y-161991500D01*
X144469200Y-161991500D02*
X144429600Y-161838500D01*
X144429600Y-161838500D02*
X144405200Y-161679500D01*
X144405200Y-161679500D02*
X144396900Y-161516500D01*
X144396900Y-161516500D02*
X144405200Y-161353500D01*
X144405200Y-161353500D02*
X144429600Y-161195500D01*
X144429600Y-161195500D02*
X144469200Y-161042500D01*
X144469200Y-161042500D02*
X144523200Y-160895500D01*
X144523200Y-160895500D02*
X144590800Y-160755500D01*
X144590800Y-160755500D02*
X144671200Y-160623500D01*
X144671200Y-160623500D02*
X144763500Y-160500500D01*
X144763500Y-160500500D02*
X144867000Y-160386500D01*
X144867000Y-160386500D02*
X144980800Y-160283500D01*
X144980800Y-160283500D02*
X145104000Y-160191500D01*
X145104000Y-160191500D02*
X145236000Y-160110500D01*
X145236000Y-160110500D02*
X145375800Y-160043500D01*
X145375800Y-160043500D02*
X145522600Y-159989500D01*
X145522600Y-159989500D02*
X145675700Y-159949500D01*
X145675700Y-159949500D02*
X145834100Y-159925500D01*
X145834100Y-159925500D02*
X145997200Y-159917500D01*
X145997200Y-159917500D02*
X148797100Y-159917500D01*
X148797100Y-159917500D02*
X148960100Y-159925500D01*
X148960100Y-159925500D02*
X149118500Y-159949500D01*
X149118500Y-159949500D02*
X149271500Y-159989500D01*
X149271500Y-159989500D02*
X149418300Y-160043500D01*
X149418300Y-160043500D02*
X149558100Y-160110500D01*
X149558100Y-160110500D02*
X149690000Y-160191500D01*
X149690000Y-160191500D02*
X149813200Y-160283500D01*
X149813200Y-160283500D02*
X149927000Y-160386500D01*
X149927000Y-160386500D02*
X150030500Y-160500500D01*
X150030500Y-160500500D02*
X150122800Y-160623500D01*
X150122800Y-160623500D02*
X150203100Y-160755500D01*
X150203100Y-160755500D02*
X150270700Y-160895500D01*
X150270700Y-160895500D02*
X150324700Y-161042500D01*
X150324700Y-161042500D02*
X150364300Y-161195500D01*
X150364300Y-161195500D02*
X150388700Y-161353500D01*
X150388700Y-161353500D02*
X150397000Y-161516500D01*
X150397000Y-161516500D02*
X150388700Y-161679500D01*
X150388700Y-161679500D02*
X150364300Y-161838500D01*
X150364300Y-161838500D02*
X150324700Y-161991500D01*
X150324700Y-161991500D02*
X150270700Y-162137500D01*
X150270700Y-162137500D02*
X150203100Y-162277500D01*
X150203100Y-162277500D02*
X150122800Y-162409500D01*
X150122800Y-162409500D02*
X150030500Y-162532500D01*
X150030500Y-162532500D02*
X149927000Y-162646500D01*
X149927000Y-162646500D02*
X149813200Y-162750500D01*
X149813200Y-162750500D02*
X149690000Y-162842500D01*
X149690000Y-162842500D02*
X149558100Y-162922500D01*
X149558100Y-162922500D02*
X149418300Y-162990500D01*
X149418300Y-162990500D02*
X149271500Y-163044500D01*
X149271500Y-163044500D02*
X149118500Y-163084500D01*
X149118500Y-163084500D02*
X148960100Y-163108500D01*
X148960100Y-163108500D02*
X148797100Y-163116500D01*
X148797100Y-163116500D02*
X148797100Y-163116500D01*
X148797100Y-163116500D02*
X148797100Y-163116500D01*
M02*
