<?xml version="1.0" encoding="UTF-8" standalone="no"?>
<svg
   xmlns:dc="http://purl.org/dc/elements/1.1/"
   xmlns:cc="http://creativecommons.org/ns#"
   xmlns:rdf="http://www.w3.org/1999/02/22-rdf-syntax-ns#"
   xmlns:svg="http://www.w3.org/2000/svg"
   xmlns="http://www.w3.org/2000/svg"
   xmlns:sodipodi="http://sodipodi.sourceforge.net/DTD/sodipodi-0.dtd"
   xmlns:inkscape="http://www.inkscape.org/namespaces/inkscape"
   sodipodi:docname="drawing.svg"
   inkscape:version="1.0 (4035a4f, 2020-05-01)"
   id="svg1708"
   version="1.1"
   viewBox="0 0 40.29999923706055 128.5"
   height="128.5mm"
   width="40.29999923706055mm">
  <defs
     id="defs1702">
    <clipPath
       clipPathUnits="userSpaceOnUse"
       id="clipPath634">
      <path
         d="M 0,364.252 H 114.236 V 0 H 0 Z"
         id="path632" />
    </clipPath>
    <clipPath
       clipPathUnits="userSpaceOnUse"
       id="clipPath642">
      <path
         d="M 12.6621,74.1509 H 38.1739 V 48.6391 H 12.6621 Z"
         id="path640" />
    </clipPath>
    <clipPath
       clipPathUnits="userSpaceOnUse"
       id="clipPath658">
      <path
         d="M 45.0621,74.1509 H 70.5739 V 48.6391 H 45.0621 Z"
         id="path656" />
    </clipPath>
    <clipPath
       clipPathUnits="userSpaceOnUse"
       id="clipPath674">
      <path
         d="M 77.4621,74.1509 H 102.974 V 48.6391 H 77.4621 Z"
         id="path672" />
    </clipPath>
    <clipPath
       clipPathUnits="userSpaceOnUse"
       id="clipPath690">
      <path
         d="m 68.6748,173.037 h 36.0002 v -36 H 68.6748 Z"
         id="path688" />
    </clipPath>
    <clipPath
       clipPathUnits="userSpaceOnUse"
       id="clipPath706">
      <path
         d="m 68.6748,223.49 h 36.0002 v -36 H 68.6748 Z"
         id="path704" />
    </clipPath>
    <clipPath
       clipPathUnits="userSpaceOnUse"
       id="clipPath722">
      <path
         d="m 68.6453,273.89 h 35.9997 v -36 H 68.6453 Z"
         id="path720" />
    </clipPath>
    <clipPath
       clipPathUnits="userSpaceOnUse"
       id="clipPath738">
      <path
         d="m 68.6615,324.195 h 36.0005 v -36 H 68.6615 Z"
         id="path736" />
    </clipPath>
    <clipPath
       clipPathUnits="userSpaceOnUse"
       id="clipPath754">
      <path
         d="M 16.2621,319.142 H 41.7739 V 293.63 H 16.2621 Z"
         id="path752" />
    </clipPath>
    <clipPath
       clipPathUnits="userSpaceOnUse"
       id="clipPath770">
      <path
         d="M 16.3868,268.646 H 41.8986 V 243.135 H 16.3868 Z"
         id="path768" />
    </clipPath>
    <clipPath
       clipPathUnits="userSpaceOnUse"
       id="clipPath786">
      <path
         d="M 16.3868,218.151 H 41.8986 V 192.639 H 16.3868 Z"
         id="path784" />
    </clipPath>
    <clipPath
       clipPathUnits="userSpaceOnUse"
       id="clipPath802">
      <path
         d="M 16.3868,167.682 H 41.8986 V 142.17 H 16.3868 Z"
         id="path800" />
    </clipPath>
    <clipPath
       clipPathUnits="userSpaceOnUse"
       id="clipPath818">
      <path
         d="M 50.5893,115.424 H 65.0469 V 100.966 H 50.5893 Z"
         id="path816" />
    </clipPath>
    <clipPath
       clipPathUnits="userSpaceOnUse"
       id="clipPath834">
      <path
         d="M 13.8356,123.502 H 44.4498 V 92.8879 H 13.8356 Z"
         id="path832" />
    </clipPath>
    <clipPath
       clipPathUnits="userSpaceOnUse"
       id="clipPath612">
      <path
         d="M 0,364.252 H 114.236 V 0 H 0 Z"
         id="path610" />
    </clipPath>
    <clipPath
       clipPathUnits="userSpaceOnUse"
       id="clipPath594">
      <path
         d="M 0,364.252 H 114.236 V 0 H 0 Z"
         id="path592" />
    </clipPath>
    <clipPath
       clipPathUnits="userSpaceOnUse"
       id="clipPath482">
      <path
         d="M 0,364.252 H 114.236 V 0 H 0 Z"
         id="path480" />
    </clipPath>
    <clipPath
       clipPathUnits="userSpaceOnUse"
       id="clipPath490">
      <path
         d="M 62.5674,179.09 H 110.756 V 130.901 H 62.5674 Z"
         id="path488" />
    </clipPath>
    <clipPath
       clipPathUnits="userSpaceOnUse"
       id="clipPath384">
      <path
         d="M 0,364.252 H 114.236 V 0 H 0 Z"
         id="path382" />
    </clipPath>
    <clipPath
       clipPathUnits="userSpaceOnUse"
       id="clipPath392">
      <path
         d="M 62.5235,229.49 H 110.712 V 181.301 H 62.5235 Z"
         id="path390" />
    </clipPath>
    <clipPath
       clipPathUnits="userSpaceOnUse"
       id="clipPath286">
      <path
         d="M 0,364.252 H 114.236 V 0 H 0 Z"
         id="path284" />
    </clipPath>
    <clipPath
       clipPathUnits="userSpaceOnUse"
       id="clipPath294">
      <path
         d="M 62.5235,279.89 H 110.712 V 231.701 H 62.5235 Z"
         id="path292" />
    </clipPath>
    <clipPath
       clipPathUnits="userSpaceOnUse"
       id="clipPath188">
      <path
         d="M 0,364.252 H 114.236 V 0 H 0 Z"
         id="path186" />
    </clipPath>
    <clipPath
       clipPathUnits="userSpaceOnUse"
       id="clipPath196">
      <path
         d="M 62.5653,330.48 H 110.754 V 282.291 H 62.5653 Z"
         id="path194" />
    </clipPath>
    <clipPath
       clipPathUnits="userSpaceOnUse"
       id="clipPath110">
      <path
         d="M 0,364.252 H 114.236 V 0 H 0 Z"
         id="path108" />
    </clipPath>
    <clipPath
       clipPathUnits="userSpaceOnUse"
       id="clipPath38">
      <path
         d="M 0,364.252 H 114.236 V 0 H 0 Z"
         id="path36" />
    </clipPath>
    <clipPath
       clipPathUnits="userSpaceOnUse"
       id="clipPath26">
      <path
         d="M 0,364.252 H 114.236 V 0 H 0 Z"
         id="path24" />
    </clipPath>
  </defs>
  <sodipodi:namedview
     inkscape:window-maximized="0"
     inkscape:window-y="23"
     inkscape:window-x="0"
     inkscape:window-height="782"
     inkscape:window-width="1252"
     showgrid="false"
     inkscape:document-rotation="0"
     inkscape:current-layer="g1717"
     inkscape:document-units="mm"
     inkscape:cy="220.7412"
     inkscape:cx="71.186179"
     inkscape:zoom="1.117668"
     inkscape:pageshadow="2"
     inkscape:pageopacity="0.0"
     borderopacity="1.0"
     bordercolor="#666666"
     pagecolor="#ffffff"
     id="base" />
  <metadata
     id="metadata1705">
    <rdf:RDF>
      <cc:Work
         rdf:about="">
        <dc:format>image/svg+xml</dc:format>
        <dc:type
           rdf:resource="http://purl.org/dc/dcmitype/StillImage" />
        <dc:title></dc:title>
      </cc:Work>
    </rdf:RDF>
  </metadata>
  <g
     sodipodi:insensitive="true"
     inkscape:label="[fixed] BG"
     inkscape:groupmode="layer"
     id="g1715">
    <rect
       x="0"
       y="0"
       width="40.299999"
       height="128.5"
       style="fill:#ffffff;fill-opacity:1;stroke:none"
       id="rect1713" />
  </g>
  <g
     style="display:inline"
     inkscape:label="Edge.Cuts"
     inkscape:groupmode="layer"
     id="g1717">
    <path
       id="path114"
       style="fill:none;stroke:#1d1d1b;stroke-width:0.0881944;stroke-linecap:butt;stroke-linejoin:miter;stroke-miterlimit:10;stroke-dasharray:none;stroke-opacity:1"
       d="m 12.016846,106.8414 -0.004,0.15693 -0.01178,0.15487 -0.0194,0.15262 -0.02682,0.15018 -0.03406,0.14755 -0.0411,0.14472 -0.04795,0.14171 -0.05461,0.13851 -0.06108,0.1351 -0.06736,0.13151 -0.07344,0.12773 -0.07934,0.12376 -0.08504,0.11958 -0.09055,0.11523 -0.09587,0.11068 -0.100993,0.10594 -0.105932,0.101 -0.11067,0.0959 -0.115224,0.0906 -0.119585,0.085 -0.123754,0.0793 -0.12773,0.0735 -0.131512,0.0674 -0.135111,0.0611 -0.138511,0.0546 -0.1417178,0.048 -0.1447412,0.0411 -0.1475634,0.0341 -0.1502022,0.0268 -0.152647,0.0194 -0.1548941,0.0118 -0.1569579,0.004 -0.1569261,-0.004 -0.1548659,-0.0118 -0.1526152,-0.0194 -0.150167,-0.0268 -0.1475669,-0.0341 -0.1447094,-0.0411 -0.1416756,-0.048 -0.1385005,-0.0546 -0.1350786,-0.0611 -0.1315156,-0.0674 -0.1277056,-0.0735 -0.1237544,-0.0793 -0.1195564,-0.085 -0.1152172,-0.0906 -0.1106664,-0.0959 -0.1059392,-0.101 -0.1009649,-0.10594 -0.09585,-0.11068 -0.090558,-0.11523 -0.08502,-0.11958 -0.07934,-0.12376 -0.073448,-0.12773 -0.067345,-0.13151 -0.061101,-0.1351 -0.05461,-0.13851 -0.047942,-0.14171 -0.041099,-0.14472 -0.034043,-0.14755 -0.026846,-0.15018 -0.019403,-0.15262 -0.011748,-0.15487 -0.00399,-0.15693 0.00399,-0.15696 0.011748,-0.15489 0.019403,-0.15265 0.026846,-0.1502 0.034043,-0.14756 0.041099,-0.14475 0.047942,-0.14171 0.05461,-0.13851 0.061101,-0.13512 0.067345,-0.13151 0.073448,-0.12773 0.07934,-0.12375 0.08502,-0.11959 0.090558,-0.11522 0.09585,-0.11067 0.1009649,-0.10593 0.1059392,-0.101 0.1106664,-0.0959 0.1152172,-0.0906 0.1195564,-0.085 0.1237544,-0.0793 0.1277056,-0.0734 0.1315156,-0.0674 0.1350786,-0.0611 0.1385005,-0.0546 0.1416756,-0.048 0.1447094,-0.0411 0.1475669,-0.0341 0.150167,-0.0268 0.1526152,-0.0194 0.1548659,-0.0118 0.1569261,-0.004 0.1569579,0.004 0.1548941,0.0118 0.152647,0.0194 0.1502022,0.0268 0.1475634,0.0341 0.1447412,0.0411 0.1417178,0.048 0.138511,0.0546 0.135111,0.0611 0.131512,0.0674 0.12773,0.0734 0.123754,0.0793 0.119585,0.085 0.115224,0.0906 0.11067,0.0959 0.105929,0.101 0.100996,0.10593 0.09587,0.11067 0.09055,0.11522 0.08504,0.11959 0.07934,0.12375 0.07344,0.12773 0.06736,0.13151 0.06108,0.13512 0.05461,0.13851 0.04795,0.14171 0.0411,0.14475 0.03406,0.14756 0.02682,0.1502 0.0194,0.15265 0.01178,0.15489 0.004,0.15696 v 0" />
    <path
       id="path118"
       style="fill:none;stroke:#1d1d1b;stroke-width:0.0881944;stroke-linecap:butt;stroke-linejoin:miter;stroke-miterlimit:10;stroke-dasharray:none;stroke-opacity:1"
       d="m 23.446986,106.8414 -0.004,0.15693 -0.01178,0.15487 -0.0194,0.15262 -0.02682,0.15018 -0.03406,0.14755 -0.0411,0.14472 -0.04795,0.14171 -0.05461,0.13851 -0.06108,0.1351 -0.06736,0.13151 -0.07344,0.12773 -0.07934,0.12376 -0.08504,0.11958 -0.09055,0.11523 -0.09587,0.11068 -0.100993,0.10594 -0.105932,0.101 -0.11067,0.0959 -0.115224,0.0906 -0.119585,0.085 -0.123754,0.0793 -0.12773,0.0735 -0.131512,0.0674 -0.135111,0.0611 -0.138511,0.0546 -0.141718,0.048 -0.144741,0.0411 -0.147563,0.0341 -0.150203,0.0268 -0.152647,0.0194 -0.154894,0.0118 -0.156958,0.004 -0.156957,-0.004 -0.154895,-0.0118 -0.152647,-0.0194 -0.150216,-0.0268 -0.147567,-0.0341 -0.144709,-0.0411 -0.141746,-0.048 -0.138501,-0.0546 -0.135114,-0.0611 -0.131515,-0.0674 -0.127706,-0.0735 -0.123754,-0.0793 -0.119592,-0.085 -0.115217,-0.0906 -0.110702,-0.0959 -0.105904,-0.101 -0.101,-0.10594 -0.09588,-0.11068 -0.09052,-0.11523 -0.08505,-0.11958 -0.07934,-0.12376 -0.07345,-0.12773 -0.06734,-0.13151 -0.06107,-0.1351 -0.05465,-0.13851 -0.04794,-0.14171 -0.0411,-0.14472 -0.03404,-0.14755 -0.02685,-0.15018 -0.0194,-0.15262 -0.01175,-0.15487 -0.004,-0.15693 0.004,-0.15696 0.01175,-0.15489 0.0194,-0.15265 0.02685,-0.1502 0.03404,-0.14756 0.0411,-0.14475 0.04794,-0.14171 0.05465,-0.13851 0.06107,-0.13512 0.06734,-0.13151 0.07345,-0.12773 0.07934,-0.12375 0.08505,-0.11959 0.09052,-0.11522 0.09588,-0.11067 0.101,-0.10593 0.105904,-0.101 0.110702,-0.0959 0.115217,-0.0906 0.119592,-0.085 0.123754,-0.0793 0.127706,-0.0734 0.131515,-0.0674 0.135114,-0.0611 0.138501,-0.0546 0.141746,-0.048 0.144709,-0.0411 0.147567,-0.0341 0.150216,-0.0268 0.152647,-0.0194 0.154895,-0.0118 0.156957,-0.004 0.156958,0.004 0.154894,0.0118 0.152647,0.0194 0.150203,0.0268 0.147563,0.0341 0.144741,0.0411 0.141718,0.048 0.138511,0.0546 0.135111,0.0611 0.131512,0.0674 0.12773,0.0734 0.123754,0.0793 0.119585,0.085 0.115224,0.0906 0.11067,0.0959 0.105929,0.101 0.100996,0.10593 0.09587,0.11067 0.09055,0.11522 0.08504,0.11959 0.07934,0.12375 0.07344,0.12773 0.06736,0.13151 0.06108,0.13512 0.05461,0.13851 0.04795,0.14171 0.0411,0.14475 0.03406,0.14756 0.02682,0.1502 0.0194,0.15265 0.01178,0.15489 0.004,0.15696 v 0" />
    <path
       id="path122"
       style="fill:none;stroke:#1d1d1b;stroke-width:0.0881944;stroke-linecap:butt;stroke-linejoin:miter;stroke-miterlimit:10;stroke-dasharray:none;stroke-opacity:1"
       d="m 34.876775,106.8414 -0.004,0.15693 -0.01178,0.15487 -0.01939,0.15262 -0.02682,0.15018 -0.03405,0.14755 -0.04109,0.14472 -0.04794,0.14171 -0.0546,0.13851 -0.06107,0.1351 -0.06735,0.13151 -0.07343,0.12773 -0.07932,0.12376 -0.08503,0.11958 -0.09054,0.11523 -0.09586,0.11068 -0.100986,0.10594 -0.105922,0.101 -0.110666,0.0959 -0.115217,0.0906 -0.119582,0.085 -0.12375,0.0793 -0.127731,0.0735 -0.131519,0.0674 -0.135114,0.0611 -0.138518,0.0546 -0.141728,0.048 -0.144752,0.0411 -0.147585,0.0341 -0.150219,0.0268 -0.152669,0.0194 -0.154922,0.0118 -0.15699,0.004 -0.156926,-0.004 -0.154866,-0.0118 -0.152615,-0.0194 -0.150167,-0.0268 -0.147567,-0.0341 -0.144709,-0.0411 -0.141676,-0.048 -0.1385,-0.0546 -0.135079,-0.0611 -0.131515,-0.0674 -0.127706,-0.0735 -0.123754,-0.0793 -0.119557,-0.085 -0.115217,-0.0906 -0.110666,-0.0959 -0.10594,-0.101 -0.100965,-0.10594 -0.09585,-0.11068 -0.09056,-0.11523 -0.08502,-0.11958 -0.07934,-0.12376 -0.07345,-0.12773 -0.06734,-0.13151 -0.0611,-0.1351 -0.05461,-0.13851 -0.04794,-0.14171 -0.0411,-0.14472 -0.03404,-0.14755 -0.02685,-0.15018 -0.0194,-0.15262 -0.01175,-0.15487 -0.004,-0.15693 0.004,-0.15696 0.01175,-0.15489 0.0194,-0.15265 0.02685,-0.1502 0.03404,-0.14756 0.0411,-0.14475 0.04794,-0.14171 0.05461,-0.13851 0.0611,-0.13512 0.06734,-0.13151 0.07345,-0.12773 0.07934,-0.12375 0.08502,-0.11959 0.09056,-0.11522 0.09585,-0.11067 0.100965,-0.10593 0.10594,-0.101 0.110666,-0.0959 0.115217,-0.0906 0.119557,-0.085 0.123754,-0.0793 0.127706,-0.0734 0.131515,-0.0674 0.135079,-0.0611 0.1385,-0.0546 0.141676,-0.048 0.144709,-0.0411 0.147567,-0.0341 0.150167,-0.0268 0.152615,-0.0194 0.154866,-0.0118 0.156926,-0.004 0.15699,0.004 0.154922,0.0118 0.152669,0.0194 0.150219,0.0268 0.147585,0.0341 0.144752,0.0411 0.141728,0.048 0.138518,0.0546 0.135114,0.0611 0.131519,0.0674 0.127731,0.0734 0.12375,0.0793 0.119582,0.085 0.115217,0.0906 0.110666,0.0959 0.105922,0.101 0.100986,0.10593 0.09586,0.11067 0.09054,0.11522 0.08503,0.11959 0.07932,0.12375 0.07343,0.12773 0.06735,0.13151 0.06107,0.13512 0.0546,0.13851 0.04794,0.14171 0.04109,0.14475 0.03405,0.14756 0.02682,0.1502 0.01939,0.15265 0.01178,0.15489 0.004,0.15696 v 0" />
    <path
       id="path126"
       style="fill:none;stroke:#1d1d1b;stroke-width:0.0881944;stroke-linecap:butt;stroke-linejoin:miter;stroke-miterlimit:10;stroke-dasharray:none;stroke-opacity:1"
       d="m 13.286881,20.481256 -0.004,0.156957 -0.01178,0.154896 -0.0194,0.152646 -0.02682,0.150202 -0.03406,0.147564 -0.0411,0.144741 -0.04795,0.141718 -0.05461,0.138511 -0.06108,0.13511 -0.06736,0.131512 -0.07344,0.12773 -0.07934,0.123755 -0.08504,0.119584 -0.09055,0.115225 -0.09587,0.11067 -0.100993,0.105932 -0.105932,0.100993 -0.11067,0.09587 -0.115224,0.09055 -0.119585,0.08504 -0.123754,0.07934 -0.12773,0.07344 -0.131512,0.06736 -0.135111,0.06108 -0.138511,0.05461 -0.141718,0.04795 -0.144741,0.0411 -0.147563,0.03406 -0.150203,0.02682 -0.152647,0.0194 -0.154894,0.01178 -0.156958,0.004 -0.156926,-0.004 -0.1548656,-0.01178 -0.1526152,-0.0194 -0.150167,-0.02682 -0.1475669,-0.03406 -0.1447094,-0.0411 L 9.1882383,23.346291 9.0497378,23.291678 8.9146592,23.230594 8.7831436,23.163235 8.655438,23.089794 8.5316836,23.010454 8.4121272,22.925417 8.29691,22.834869 8.1862436,22.739002 8.0803044,22.638009 7.9793395,22.532077 l -0.09585,-0.11067 -0.090558,-0.115225 -0.085019,-0.119584 -0.07934,-0.123755 -0.073448,-0.12773 -0.067345,-0.131512 -0.061101,-0.13511 -0.05461,-0.138511 -0.047942,-0.141718 -0.041099,-0.144741 -0.034043,-0.147564 -0.026846,-0.150202 -0.019403,-0.152646 -0.011748,-0.154896 -0.00399,-0.156957 0.00399,-0.156957 0.011748,-0.154896 0.019403,-0.152646 0.026846,-0.150202 0.034043,-0.147564 0.041099,-0.144741 0.047942,-0.141718 0.05461,-0.138511 0.061101,-0.13511 0.067345,-0.131512 0.073448,-0.12773 0.07934,-0.123755 0.085019,-0.119584 0.090558,-0.115225 0.09585,-0.11067 0.1009649,-0.105932 0.1059392,-0.100993 0.1106664,-0.09587 0.1152172,-0.09055 0.1195564,-0.08504 0.1237544,-0.07934 0.1277056,-0.07344 0.1315156,-0.06736 0.1350786,-0.06108 0.1385005,-0.05461 0.1416756,-0.04795 0.1447094,-0.0411 0.1475669,-0.03406 0.150167,-0.02682 0.1526152,-0.0194 0.1548656,-0.01178 0.156926,-0.004 0.156958,0.004 0.154894,0.01178 0.152647,0.0194 0.150203,0.02682 0.147563,0.03406 0.144741,0.0411 0.141718,0.04795 0.138511,0.05461 0.135111,0.06108 0.131512,0.06736 0.12773,0.07344 0.123754,0.07934 0.119585,0.08504 0.115224,0.09055 0.11067,0.09587 0.105929,0.100993 0.100996,0.105932 0.09587,0.11067 0.09055,0.115225 0.08504,0.119584 0.07934,0.123755 0.07344,0.12773 0.06736,0.131512 0.06108,0.13511 0.05461,0.138511 0.04795,0.141718 0.0411,0.144741 0.03406,0.147564 0.02682,0.150202 0.0194,0.152646 0.01178,0.154896 0.004,0.156957 v 0" />
    <path
       id="path130"
       style="fill:none;stroke:#1d1d1b;stroke-width:0.0881944;stroke-linecap:butt;stroke-linejoin:miter;stroke-miterlimit:10;stroke-dasharray:none;stroke-opacity:1"
       d="m 13.330978,38.261256 -0.004,0.156957 -0.01178,0.154896 -0.0194,0.152646 -0.02682,0.150202 -0.03406,0.147564 -0.0411,0.144741 -0.04795,0.141718 -0.05461,0.138511 -0.06108,0.13511 -0.06736,0.131512 -0.07344,0.12773 -0.07934,0.123755 -0.08504,0.119584 -0.09055,0.115225 -0.09587,0.11067 -0.100993,0.105932 -0.105932,0.100993 -0.11067,0.09587 -0.115224,0.09055 -0.119585,0.08504 -0.123754,0.07934 -0.12773,0.07344 -0.131512,0.06736 -0.135111,0.06108 -0.138511,0.05461 -0.141718,0.04795 -0.144741,0.0411 -0.147563,0.03406 -0.150203,0.02683 -0.152647,0.0194 -0.154894,0.01178 -0.156958,0.004 -0.156957,-0.004 -0.1548946,-0.01178 -0.152647,-0.0194 -0.1502163,-0.02683 -0.1475669,-0.03406 -0.1447094,-0.0411 L 9.2320946,41.126292 9.0935941,41.071682 8.9584802,41.010602 8.8269647,40.943242 8.6992591,40.869802 8.5755047,40.790462 8.455913,40.705422 8.3406958,40.614872 8.2299941,40.519002 8.1240902,40.418009 8.02309,40.312077 7.927205,40.201407 7.836682,40.086182 7.751627,39.966598 7.672287,39.842843 7.598839,39.715113 7.531494,39.583601 7.470428,39.448491 7.415783,39.30998 7.367841,39.168262 7.326742,39.023521 7.292699,38.875957 7.265853,38.725755 7.24645,38.573109 7.234702,38.418213 7.230712,38.261256 7.234702,38.104299 7.24645,37.949403 7.265853,37.796757 7.292699,37.646555 7.326742,37.498991 7.367841,37.35425 l 0.047942,-0.141718 0.054645,-0.138511 0.061066,-0.13511 0.067345,-0.131512 0.073448,-0.12773 0.07934,-0.123755 0.085055,-0.119584 0.090523,-0.115225 0.095885,-0.11067 0.1010002,-0.105932 0.1059039,-0.100993 0.1107017,-0.09587 0.1152172,-0.09055 0.1195917,-0.08504 0.1237544,-0.07934 0.1277056,-0.07344 0.1315155,-0.06736 0.1351139,-0.06108 0.1385005,-0.05461 0.1417462,-0.04795 0.1447094,-0.0411 0.1475669,-0.03406 0.1502163,-0.02683 0.152647,-0.0194 0.1548946,-0.01178 0.156957,-0.004 0.156958,0.004 0.154894,0.01178 0.152647,0.0194 0.150203,0.02683 0.147563,0.03406 0.144741,0.0411 0.141718,0.04795 0.138511,0.05461 0.135111,0.06108 0.131512,0.06736 0.12773,0.07344 0.123754,0.07934 0.119585,0.08504 0.115224,0.09055 0.11067,0.09587 0.105929,0.100993 0.100996,0.105932 0.09587,0.11067 0.09055,0.115225 0.08504,0.119584 0.07934,0.123755 0.07344,0.12773 0.06736,0.131512 0.06108,0.13511 0.05461,0.138511 0.04795,0.141718 0.0411,0.144741 0.03406,0.147564 0.02682,0.150202 0.0194,0.152646 0.01178,0.154896 0.004,0.156957 v 0" />
    <path
       id="path134"
       style="fill:none;stroke:#1d1d1b;stroke-width:0.0881944;stroke-linecap:butt;stroke-linejoin:miter;stroke-miterlimit:10;stroke-dasharray:none;stroke-opacity:1"
       d="m 13.286881,56.04122 -0.004,0.156957 -0.01178,0.154896 -0.0194,0.152646 -0.02682,0.150202 -0.03406,0.147564 -0.0411,0.144741 -0.04795,0.141718 -0.05461,0.138511 -0.06108,0.13511 -0.06736,0.131512 -0.07344,0.12773 -0.07934,0.123755 -0.08504,0.119584 -0.09055,0.115225 -0.09587,0.11067 -0.100993,0.105932 -0.105932,0.100993 -0.11067,0.09587 -0.115224,0.09055 -0.119585,0.08504 -0.123754,0.07934 -0.12773,0.07344 -0.131512,0.06736 -0.135111,0.06108 -0.138511,0.05461 -0.141718,0.04795 -0.144741,0.0411 -0.147563,0.03406 -0.150203,0.02683 -0.152647,0.0194 -0.154894,0.01178 -0.156958,0.004 -0.156926,-0.004 -0.1548656,-0.01178 -0.1526152,-0.0194 -0.150167,-0.02683 L 9.4746233,58.99531 9.3299139,58.954208 9.1882383,58.906255 9.0497378,58.851642 8.9146592,58.790558 8.7831436,58.723199 8.655438,58.649758 8.5316836,58.570418 8.4121272,58.485381 8.29691,58.394833 8.1862436,58.298966 8.0803044,58.197973 7.9793395,58.092041 l -0.09585,-0.11067 -0.090558,-0.115225 -0.085019,-0.119584 -0.07934,-0.123755 -0.073448,-0.12773 -0.067345,-0.131512 -0.061101,-0.13511 -0.05461,-0.138511 -0.047942,-0.141718 -0.041099,-0.144741 -0.034043,-0.147564 -0.026846,-0.150202 -0.019403,-0.152646 -0.011748,-0.154896 -0.00399,-0.156957 0.00399,-0.156957 0.011748,-0.154896 0.019403,-0.152646 0.026846,-0.150202 0.034043,-0.147564 0.041099,-0.144741 0.047942,-0.141718 0.05461,-0.138511 0.061101,-0.13511 0.067345,-0.131512 0.073448,-0.12773 0.07934,-0.123755 0.085019,-0.119584 0.090558,-0.115225 0.09585,-0.11067 0.1009649,-0.105932 0.1059392,-0.100993 0.1106664,-0.09587 0.1152172,-0.09055 0.1195564,-0.08504 0.1237544,-0.07934 0.1277056,-0.07344 0.1315156,-0.06736 0.1350786,-0.06108 0.1385005,-0.05461 0.1416756,-0.04795 0.1447094,-0.0411 0.1475669,-0.03406 0.150167,-0.02683 0.1526152,-0.0194 0.1548656,-0.01178 0.156926,-0.004 0.156958,0.004 0.154894,0.01178 0.152647,0.0194 0.150203,0.02683 0.147563,0.03406 0.144741,0.0411 0.141718,0.04795 0.138511,0.05461 0.135111,0.06108 0.131512,0.06736 0.12773,0.07344 0.123754,0.07934 0.119585,0.08504 0.115224,0.09055 0.11067,0.09587 0.105929,0.100993 0.100996,0.105932 0.09587,0.11067 0.09055,0.115225 0.08504,0.119584 0.07934,0.123755 0.07344,0.12773 0.06736,0.131512 0.06108,0.13511 0.05461,0.138511 0.04795,0.141718 0.0411,0.144741 0.03406,0.147564 0.02682,0.150202 0.0194,0.152646 0.01178,0.154896 0.004,0.156957 v 0" />
    <path
       id="path138"
       style="fill:none;stroke:#1d1d1b;stroke-width:0.0881944;stroke-linecap:butt;stroke-linejoin:miter;stroke-miterlimit:10;stroke-dasharray:none;stroke-opacity:1"
       d="m 13.286881,73.821184 -0.004,0.156957 -0.01178,0.154896 -0.0194,0.152646 -0.02682,0.150202 -0.03406,0.147564 -0.0411,0.144741 -0.04795,0.141718 -0.05461,0.138511 -0.06108,0.13511 -0.06736,0.131512 -0.07344,0.12773 -0.07934,0.123755 -0.08504,0.119584 -0.09055,0.115225 -0.09587,0.11067 -0.100993,0.105932 -0.105932,0.100993 -0.11067,0.09587 -0.115224,0.09055 -0.119585,0.08504 -0.123754,0.07934 -0.12773,0.07344 -0.131512,0.06736 -0.135111,0.06108 -0.138511,0.05461 -0.141718,0.04795 -0.144741,0.0411 -0.147563,0.03406 -0.150203,0.02683 -0.152647,0.0194 -0.154894,0.01178 -0.156958,0.004 -0.156926,-0.004 L 9.9249434,76.85556 9.7723282,76.83616 9.6221612,76.80933 9.4745943,76.77527 9.3298849,76.73417 9.1882383,76.686219 9.0497378,76.631606 8.9146592,76.570522 8.7831436,76.503163 8.655438,76.429722 8.5316836,76.350382 8.4121272,76.265345 8.29691,76.174797 8.1862436,76.07893 8.0803044,75.977937 7.9793395,75.872005 l -0.09585,-0.11067 -0.090558,-0.115225 -0.085019,-0.119584 -0.07934,-0.123755 -0.073448,-0.12773 -0.067345,-0.131512 -0.061101,-0.13511 -0.05461,-0.138511 -0.047942,-0.141718 -0.041099,-0.144741 -0.034043,-0.147564 -0.026846,-0.150202 -0.019403,-0.152646 -0.011748,-0.154896 -0.00399,-0.156957 0.00399,-0.156926 0.011748,-0.15487 0.019403,-0.152622 0.026846,-0.150181 0.034043,-0.147549 0.041099,-0.144724 0.047942,-0.141711 0.05461,-0.138504 0.061101,-0.135103 0.067345,-0.131512 0.073448,-0.12773 0.07934,-0.123755 0.085019,-0.119588 0.090558,-0.115228 0.09585,-0.11068 0.1009649,-0.105936 0.1059392,-0.101004 0.1106664,-0.09587 0.1152172,-0.09056 0.1195564,-0.08505 0.1237544,-0.07935 0.1277056,-0.07346 0.1315156,-0.06737 0.1350786,-0.06109 0.1385005,-0.05462 0.1416756,-0.04796 0.1447094,-0.04111 0.1475669,-0.03406 0.150167,-0.02683 0.1526152,-0.0194 0.1548656,-0.01178 0.156926,-0.004 0.156958,0.004 0.154894,0.01178 0.152647,0.0194 0.150203,0.02683 0.147563,0.03406 0.144741,0.04111 0.141718,0.04796 0.138511,0.05462 0.135111,0.06109 0.131512,0.06737 0.12773,0.07346 0.123754,0.07935 0.119585,0.08505 0.115224,0.09056 0.11067,0.09587 0.105929,0.101004 0.100996,0.105936 0.09587,0.11068 0.09055,0.115228 0.08504,0.119588 0.07934,0.123755 0.07344,0.12773 0.06736,0.131512 0.06108,0.135103 0.05461,0.138504 0.04795,0.141711 0.0411,0.144724 0.03406,0.147549 0.02682,0.150181 0.0194,0.152622 0.01178,0.15487 0.004,0.156926 v 0" />
    <path
       id="path142"
       style="fill:none;stroke:#1d1d1b;stroke-width:0.0881944;stroke-linecap:butt;stroke-linejoin:miter;stroke-miterlimit:10;stroke-dasharray:none;stroke-opacity:1"
       d="m 33.606916,20.387382 -0.004,0.156957 -0.01178,0.154896 -0.0194,0.152646 -0.02682,0.150202 -0.03406,0.147564 -0.0411,0.144741 -0.04795,0.141718 -0.05461,0.138511 -0.06108,0.13511 -0.06736,0.131512 -0.07344,0.12773 -0.07934,0.123755 -0.08504,0.119584 -0.09055,0.115225 -0.09587,0.11067 -0.100993,0.105932 -0.105932,0.100993 -0.11067,0.09587 -0.115224,0.09055 -0.119585,0.08504 -0.123754,0.07934 -0.12773,0.07344 -0.131512,0.06736 -0.135111,0.06108 -0.138511,0.05461 -0.141718,0.04795 -0.144741,0.0411 -0.147563,0.03406 -0.150203,0.02682 -0.152647,0.0194 -0.154894,0.01178 -0.156958,0.004 -0.156954,-0.004 -0.154894,-0.01178 -0.15264,-0.0194 -0.150192,-0.02682 -0.147567,-0.03406 -0.144709,-0.0411 -0.141711,-0.04795 -0.1385,-0.05461 -0.135114,-0.06108 -0.131481,-0.06736 -0.12774,-0.07344 -0.12372,-0.07934 -0.119591,-0.08504 -0.115182,-0.09055 -0.110666,-0.09587 -0.105904,-0.100993 -0.101001,-0.105932 -0.09585,-0.11067 -0.09052,-0.115225 -0.08502,-0.119584 -0.07934,-0.123755 -0.07341,-0.12773 -0.06735,-0.131512 -0.06106,-0.13511 -0.05461,-0.138511 -0.04794,-0.141718 -0.0411,-0.144741 -0.03404,-0.147564 -0.02681,-0.150202 -0.0194,-0.152646 -0.01178,-0.154896 -0.004,-0.156957 0.004,-0.156957 0.01178,-0.154896 0.0194,-0.152646 0.02681,-0.150202 0.03404,-0.147564 0.0411,-0.144741 0.04794,-0.141718 0.05461,-0.138511 0.06106,-0.13511 0.06735,-0.131512 0.07341,-0.12773 0.07934,-0.123755 0.08502,-0.119584 0.09052,-0.115225 0.09585,-0.11067 0.101001,-0.105932 0.105904,-0.100993 0.110666,-0.09587 0.115182,-0.09055 0.119591,-0.08504 0.12372,-0.07934 0.12774,-0.07344 0.131481,-0.06736 0.135114,-0.06108 0.1385,-0.05461 0.141711,-0.04795 0.144709,-0.0411 0.147567,-0.03406 0.150192,-0.02682 0.15264,-0.0194 0.154894,-0.01178 0.156954,-0.004 0.156958,0.004 0.154894,0.01178 0.152647,0.0194 0.150203,0.02682 0.147563,0.03406 0.144741,0.0411 0.141718,0.04795 0.138511,0.05461 0.135111,0.06108 0.131512,0.06736 0.12773,0.07344 0.123754,0.07934 0.119585,0.08504 0.115224,0.09055 0.11067,0.09587 0.105929,0.100993 0.100996,0.105932 0.09587,0.11067 0.09055,0.115225 0.08504,0.119584 0.07934,0.123755 0.07344,0.12773 0.06736,0.131512 0.06108,0.13511 0.05461,0.138511 0.04795,0.141718 0.0411,0.144741 0.03406,0.147564 0.02682,0.150202 0.0194,0.152646 0.01178,0.154896 0.004,0.156957 v 0" />
    <path
       id="path146"
       style="fill:none;stroke:#1d1d1b;stroke-width:0.0881944;stroke-linecap:butt;stroke-linejoin:miter;stroke-miterlimit:10;stroke-dasharray:none;stroke-opacity:1"
       d="m 33.626883,38.227495 -0.004,0.156957 -0.01178,0.154896 -0.0194,0.152646 -0.02682,0.150202 -0.03406,0.147564 -0.0411,0.144741 -0.04795,0.141718 -0.05461,0.138511 -0.06108,0.13511 -0.06736,0.131512 -0.07344,0.12773 -0.07934,0.123755 -0.08504,0.119584 -0.09055,0.115225 -0.09587,0.11067 -0.100993,0.105932 -0.105932,0.100993 -0.11067,0.09587 -0.115224,0.09055 -0.119585,0.08504 -0.123754,0.07934 -0.12773,0.07344 -0.131512,0.06736 -0.135111,0.06108 -0.138511,0.05461 -0.141718,0.04795 -0.144741,0.0411 -0.147563,0.03406 -0.150203,0.02683 -0.152647,0.0194 -0.154894,0.01178 -0.156958,0.004 -0.156926,-0.004 -0.154866,-0.01178 -0.152615,-0.0194 -0.150167,-0.02683 -0.147567,-0.03406 -0.144709,-0.0411 -0.141676,-0.04795 -0.1385,-0.05461 -0.135079,-0.06108 -0.131515,-0.06736 -0.127706,-0.07344 -0.123754,-0.07934 -0.119557,-0.08504 -0.115217,-0.09055 -0.110666,-0.09587 -0.10594,-0.100993 -0.100965,-0.105932 -0.09585,-0.11067 -0.09056,-0.115225 -0.08502,-0.119584 -0.07934,-0.123755 -0.07345,-0.12773 -0.06734,-0.131512 -0.0611,-0.13511 -0.05461,-0.138511 -0.04794,-0.141718 -0.0411,-0.144741 -0.03404,-0.147564 -0.02685,-0.150202 -0.0194,-0.152646 -0.01175,-0.154896 -0.004,-0.156957 0.004,-0.156926 0.01175,-0.15487 0.0194,-0.152622 0.02685,-0.150181 0.03404,-0.147549 0.0411,-0.144724 0.04794,-0.141711 0.05461,-0.138504 0.0611,-0.135103 0.06734,-0.131512 0.07345,-0.12773 0.07934,-0.123755 0.08502,-0.119588 0.09056,-0.115228 0.09585,-0.11068 0.100965,-0.105936 0.10594,-0.101004 0.110666,-0.09587 0.115217,-0.09056 0.119557,-0.08505 0.123754,-0.07935 0.127706,-0.07346 0.131515,-0.06737 0.135079,-0.06109 0.1385,-0.05462 0.141676,-0.04796 0.144709,-0.04111 0.147567,-0.03406 0.150167,-0.02683 0.152615,-0.0194 0.154866,-0.01178 0.156926,-0.004 0.156958,0.004 0.154894,0.01178 0.152647,0.0194 0.150203,0.02683 0.147563,0.03406 0.144741,0.04111 0.141718,0.04796 0.138511,0.05462 0.135111,0.06109 0.131512,0.06737 0.12773,0.07346 0.123754,0.07935 0.119585,0.08505 0.115224,0.09056 0.11067,0.09587 0.105929,0.101004 0.100996,0.105936 0.09587,0.11068 0.09055,0.115228 0.08504,0.119588 0.07934,0.123755 0.07344,0.12773 0.06736,0.131512 0.06108,0.135103 0.05461,0.138504 0.04795,0.141711 0.0411,0.144724 0.03406,0.147549 0.02682,0.150181 0.0194,0.152622 0.01178,0.15487 0.004,0.156926 v 0" />
    <path
       id="path150"
       style="fill:none;stroke:#1d1d1b;stroke-width:0.0881944;stroke-linecap:butt;stroke-linejoin:miter;stroke-miterlimit:10;stroke-dasharray:none;stroke-opacity:1"
       d="m 33.626883,55.968689 -0.004,0.156957 -0.01178,0.154896 -0.0194,0.152646 -0.02682,0.150202 -0.03406,0.147564 -0.0411,0.144741 -0.04795,0.141718 -0.05461,0.138511 -0.06108,0.13511 -0.06736,0.131512 -0.07344,0.12773 -0.07934,0.123755 -0.08504,0.119584 -0.09055,0.115225 -0.09587,0.11067 -0.100993,0.105932 -0.105932,0.100993 -0.11067,0.09587 -0.115224,0.09055 -0.119585,0.08504 -0.123754,0.07934 -0.12773,0.07344 -0.131512,0.06736 -0.135111,0.06108 -0.138511,0.05461 -0.141718,0.04795 -0.144741,0.0411 -0.147563,0.03406 -0.150203,0.02683 -0.152647,0.0194 -0.154894,0.01178 -0.156958,0.004 -0.156926,-0.004 -0.154866,-0.01178 -0.152615,-0.0194 -0.150167,-0.02683 -0.147567,-0.03406 -0.144709,-0.0411 -0.141676,-0.04795 -0.1385,-0.05461 -0.135079,-0.06108 -0.131515,-0.06736 -0.127706,-0.07344 -0.123754,-0.07934 -0.119557,-0.08504 -0.115217,-0.09055 -0.110666,-0.09587 -0.10594,-0.100993 -0.100965,-0.105932 -0.09585,-0.11067 -0.09056,-0.115225 -0.08502,-0.119584 -0.07934,-0.123755 -0.07345,-0.12773 -0.06734,-0.131512 -0.0611,-0.13511 -0.05461,-0.138511 -0.04794,-0.141718 -0.0411,-0.144741 -0.03404,-0.147564 -0.02685,-0.150202 -0.0194,-0.152646 -0.01175,-0.154896 -0.004,-0.156957 0.004,-0.156957 0.01175,-0.154896 0.0194,-0.152646 0.02685,-0.150202 0.03404,-0.147564 0.0411,-0.144741 0.04794,-0.141718 0.05461,-0.138511 0.0611,-0.13511 0.06734,-0.131512 0.07345,-0.12773 0.07934,-0.123755 0.08502,-0.119584 0.09056,-0.115225 0.09585,-0.11067 0.100965,-0.105932 0.10594,-0.100993 0.110666,-0.09587 0.115217,-0.09055 0.119557,-0.08504 0.123754,-0.07934 0.127706,-0.07344 0.131515,-0.06736 0.135079,-0.06108 0.1385,-0.05461 0.141676,-0.04795 0.144709,-0.0411 0.147567,-0.03406 0.150167,-0.02683 0.152615,-0.0194 0.154866,-0.01178 0.156926,-0.004 0.156958,0.004 0.154894,0.01178 0.152647,0.0194 0.150203,0.02683 0.147563,0.03406 0.144741,0.0411 0.141718,0.04795 0.138511,0.05461 0.135111,0.06108 0.131512,0.06736 0.12773,0.07344 0.123754,0.07934 0.119585,0.08504 0.115224,0.09055 0.11067,0.09587 0.105929,0.100993 0.100996,0.105932 0.09587,0.11067 0.09055,0.115225 0.08504,0.119584 0.07934,0.123755 0.07344,0.12773 0.06736,0.131512 0.06108,0.13511 0.05461,0.138511 0.04795,0.141718 0.0411,0.144741 0.03406,0.147564 0.02682,0.150202 0.0194,0.152646 0.01178,0.154896 0.004,0.156957 v 0" />
    <path
       id="path154"
       style="fill:none;stroke:#1d1d1b;stroke-width:0.0881944;stroke-linecap:butt;stroke-linejoin:miter;stroke-miterlimit:10;stroke-dasharray:none;stroke-opacity:1"
       d="m 33.606916,73.761212 -0.004,0.156957 -0.01178,0.154896 -0.0194,0.152646 -0.02682,0.150202 -0.03406,0.147564 -0.0411,0.144741 -0.04795,0.141718 -0.05461,0.138511 -0.06108,0.13511 -0.06736,0.131512 -0.07344,0.12773 -0.07934,0.123755 -0.08504,0.119584 -0.09055,0.115225 -0.09587,0.11067 -0.100993,0.105932 -0.105932,0.100993 -0.11067,0.09587 -0.115224,0.09055 -0.119585,0.08504 -0.123754,0.07934 -0.12773,0.07344 -0.131512,0.06736 -0.135111,0.06108 -0.138511,0.05461 -0.141718,0.04795 -0.144741,0.0411 -0.147563,0.03406 -0.150203,0.02683 -0.152647,0.0194 -0.154894,0.01178 -0.156958,0.004 -0.156954,-0.004 -0.154894,-0.01178 -0.15264,-0.0194 -0.150192,-0.02683 -0.147567,-0.03406 -0.144709,-0.0411 -0.141711,-0.04795 -0.1385,-0.05461 -0.135114,-0.06108 -0.131481,-0.06736 -0.12774,-0.07344 -0.12372,-0.07934 -0.119591,-0.08504 -0.115182,-0.09055 -0.110666,-0.09587 -0.105904,-0.100993 -0.101001,-0.105932 -0.09585,-0.11067 -0.09052,-0.115225 -0.08502,-0.119584 -0.07934,-0.123755 -0.07341,-0.12773 -0.06735,-0.131512 -0.06106,-0.13511 -0.05461,-0.138511 -0.04794,-0.141718 -0.0411,-0.144741 -0.03404,-0.147564 -0.02681,-0.150202 -0.0194,-0.152646 -0.01178,-0.154896 -0.004,-0.156957 0.004,-0.156926 0.01178,-0.15487 0.0194,-0.152622 0.02681,-0.150181 0.03404,-0.147549 0.0411,-0.144724 0.04794,-0.141711 0.05461,-0.138504 0.06106,-0.135103 0.06735,-0.131512 0.07341,-0.12773 0.07934,-0.123755 0.08502,-0.119588 0.09052,-0.115228 0.09585,-0.11068 0.101001,-0.105936 0.105904,-0.101004 0.110666,-0.09587 0.115182,-0.09056 0.119591,-0.08505 0.12372,-0.07935 0.12774,-0.07346 0.131481,-0.06737 0.135114,-0.06109 0.1385,-0.05462 0.141711,-0.04796 0.144709,-0.04111 0.147567,-0.03406 0.150192,-0.02683 0.15264,-0.0194 0.154894,-0.01178 0.156954,-0.004 0.156958,0.004 0.154894,0.01178 0.152647,0.0194 0.150203,0.02683 0.147563,0.03406 0.144741,0.04111 0.141718,0.04796 0.138511,0.05462 0.135111,0.06109 0.131512,0.06737 0.12773,0.07346 0.123754,0.07935 0.119585,0.08505 0.115224,0.09056 0.11067,0.09587 0.105929,0.101004 0.100996,0.105936 0.09587,0.11068 0.09055,0.115228 0.08504,0.119588 0.07934,0.123755 0.07344,0.12773 0.06736,0.131512 0.06108,0.135103 0.05461,0.138504 0.04795,0.141711 0.0411,0.144724 0.03406,0.147549 0.02682,0.150181 0.0194,0.152622 0.01178,0.15487 0.004,0.156926 v 0" />
    <path
       id="path158"
       style="fill:none;stroke:#1d1d1b;stroke-width:0.0881944;stroke-linecap:butt;stroke-linejoin:miter;stroke-miterlimit:10;stroke-dasharray:none;stroke-opacity:1"
       d="m 22.9471,90.331113 -0.0033,0.13122 -0.0098,0.129499 -0.01622,0.127619 -0.02242,0.125575 -0.02847,0.123373 -0.03436,0.121013 -0.04009,0.118491 -0.04566,0.115807 -0.05107,0.112963 -0.05631,0.109957 -0.0614,0.106796 -0.06633,0.103474 -0.07109,0.09999 -0.0757,0.09634 -0.08015,0.09254 -0.08444,0.08857 -0.08856,0.08444 -0.09253,0.08016 -0.09634,0.07571 -0.09999,0.07111 -0.103469,0.06634 -0.106797,0.06141 -0.109964,0.05632 -0.112967,0.05107 -0.115813,0.04567 -0.118502,0.0401 -0.121024,0.03437 -0.123391,0.02848 -0.125596,0.02243 -0.127642,0.01622 -0.129526,0.0099 -0.13125,0.0033 -0.13122,-0.0033 -0.129497,-0.0099 -0.127611,-0.01622 -0.125571,-0.02243 -0.123366,-0.02848 -0.121003,-0.03437 -0.118477,-0.0401 -0.115796,-0.04567 -0.112959,-0.05107 -0.109926,-0.05632 -0.106786,-0.06141 -0.103469,-0.06634 -0.09998,-0.07111 -0.09631,-0.07571 -0.09253,-0.08016 -0.08855,-0.08444 -0.08442,-0.08857 -0.08015,-0.09254 -0.07571,-0.09634 -0.07108,-0.09999 -0.06632,-0.103474 -0.06138,-0.106796 -0.05634,-0.109957 -0.05105,-0.112963 -0.04565,-0.115807 -0.04011,-0.118491 -0.03432,-0.121013 -0.0285,-0.123373 -0.0224,-0.125575 -0.01623,-0.127619 -0.0098,-0.129499 -0.0033,-0.13122 0.0033,-0.13122 0.0098,-0.129499 0.01623,-0.127619 0.0224,-0.125575 0.0285,-0.123373 0.03432,-0.121013 0.04011,-0.118491 0.04565,-0.115807 0.05105,-0.112963 0.05634,-0.109957 0.06138,-0.106796 0.06632,-0.103474 0.07108,-0.09999 0.07571,-0.09634 0.08015,-0.09254 0.08442,-0.08857 0.08855,-0.08444 0.09253,-0.08016 0.09631,-0.07571 0.09998,-0.07111 0.103469,-0.06634 0.106786,-0.06141 0.109926,-0.05632 0.112959,-0.05107 0.115796,-0.04567 0.118477,-0.0401 0.121003,-0.03437 0.123366,-0.02848 0.125571,-0.02243 0.127611,-0.01622 0.129497,-0.0099 0.13122,-0.0033 0.13125,0.0033 0.129526,0.0099 0.127642,0.01622 0.125596,0.02243 0.123391,0.02848 0.121024,0.03437 0.118502,0.0401 0.115813,0.04567 0.112967,0.05107 0.109964,0.05632 0.106797,0.06141 0.103469,0.06634 0.09999,0.07111 0.09634,0.07571 0.09253,0.08016 0.08856,0.08444 0.08444,0.08857 0.08015,0.09254 0.0757,0.09634 0.07109,0.09999 0.06633,0.103474 0.0614,0.106796 0.05631,0.109957 0.05107,0.112963 0.04566,0.115807 0.04009,0.118491 0.03436,0.121013 0.02847,0.123373 0.02242,0.125575 0.01622,0.127619 0.0098,0.129499 0.0033,0.13122 v 0" />
    <path
       id="path162"
       style="fill:none;stroke:#1d1d1b;stroke-width:0.0881944;stroke-linecap:butt;stroke-linejoin:miter;stroke-miterlimit:10;stroke-dasharray:none;stroke-opacity:1"
       d="m 13.316514,90.316297 -0.004,0.156926 -0.01178,0.15487 -0.0194,0.152622 -0.02682,0.150181 -0.03406,0.147549 -0.0411,0.144724 -0.04795,0.141711 -0.05461,0.138504 -0.06108,0.135103 -0.06736,0.131512 -0.07344,0.12773 -0.07934,0.123755 -0.08504,0.119588 -0.09055,0.115228 -0.09587,0.11068 -0.100993,0.105936 -0.105932,0.101004 -0.11067,0.09587 -0.115224,0.09056 -0.119585,0.08505 -0.123754,0.07935 -0.12773,0.07345 -0.131512,0.06737 -0.135111,0.06109 -0.138511,0.05462 -0.141718,0.04796 -0.144741,0.04111 -0.147563,0.03406 -0.150203,0.02683 -0.152647,0.0194 -0.154894,0.01178 -0.156958,0.004 -0.156926,-0.004 L 9.9545728,93.35064 9.8019506,93.33124 9.651788,93.304431 9.5042563,93.270366 9.3595116,93.229254 9.2178008,93.18129 9.0793002,93.126669 8.9442216,93.065575 8.812706,92.998205 8.6849652,92.92475 8.5612108,92.845403 8.4416191,92.760356 8.3264019,92.669794 8.2157002,92.57392 8.1097611,92.472916 8.0087608,92.36698 7.9129111,92.2563 7.822353,92.141072 7.737298,92.021484 7.657958,91.897729 7.584474,91.769999 7.517129,91.638487 7.456028,91.503384 7.401418,91.36488 7.35344,91.223169 7.312341,91.078445 7.278263,90.930896 7.251417,90.780715 7.232014,90.628093 7.220267,90.473223 7.216277,90.316297 7.220267,90.15934 7.232014,90.004444 7.251417,89.851798 7.278263,89.701596 7.312341,89.554032 7.35344,89.409291 l 0.047978,-0.141718 0.05461,-0.138511 0.061101,-0.13511 0.067345,-0.131512 0.073484,-0.12773 0.07934,-0.123755 0.085055,-0.119584 0.090558,-0.115225 0.09585,-0.11067 0.1010003,-0.105932 0.1059391,-0.100993 0.1107017,-0.09587 0.1152172,-0.09055 0.1195917,-0.08504 0.1237544,-0.07934 0.1277408,-0.07344 0.1315156,-0.06736 0.1350786,-0.06108 0.1385006,-0.05461 0.1417108,-0.04795 0.1447447,-0.0411 0.1475317,-0.03406 0.1501916,-0.02683 0.1526222,-0.0194 0.154869,-0.01178 0.156926,-0.004 0.156958,0.004 0.154894,0.01178 0.152647,0.0194 0.150203,0.02683 0.147563,0.03406 0.144741,0.0411 0.141718,0.04795 0.138511,0.05461 0.135111,0.06108 0.131512,0.06736 0.12773,0.07344 0.123754,0.07934 0.119585,0.08504 0.115224,0.09055 0.11067,0.09587 0.105929,0.100993 0.100996,0.105932 0.09587,0.11067 0.09055,0.115225 0.08504,0.119584 0.07934,0.123755 0.07344,0.12773 0.06736,0.131512 0.06108,0.13511 0.05461,0.138511 0.04795,0.141718 0.0411,0.144741 0.03406,0.147564 0.02682,0.150202 0.0194,0.152646 0.01178,0.154896 0.004,0.156957 v 0" />
    <path
       d="M 40.2999 128.5 L 0 128.5 L 0 1.72196e-06 L 40.2999 1.72196e-06 L 40.2999 128.5"
       style="fill:none;stroke:#1d1d1b;stroke-width:0.0881944;stroke-linecap:butt;stroke-linejoin:miter;stroke-miterlimit:10;stroke-dasharray:none;stroke-opacity:1"
       id="path164" />
    <path
       id="path168"
       style="fill:none;stroke:#1d1d1b;stroke-width:0.0881944;stroke-linecap:butt;stroke-linejoin:miter;stroke-miterlimit:10;stroke-dasharray:none;stroke-opacity:1"
       d="M 8.900054,4.6000827 H 6.1000568 L 5.9370382,4.5917817 5.7785916,4.5674253 5.625539,4.5278335 5.4786988,4.4738267 5.3389035,4.406225 5.2069294,4.3258484 5.0836688,4.2335184 4.969898,4.1300522 4.8664283,4.0162708 4.7741063,3.8929926 4.6937083,3.7610431 4.626116,3.6212408 4.5721058,3.4744006 4.5325241,3.321348 4.5081472,3.1629013 4.4998569,2.9998827 4.5081472,2.8369241 4.5325241,2.6785339 4.5721058,2.5255272 4.626116,2.3787293 4.6937083,2.2389587 4.7741063,2.1070375 4.8664283,1.9837875 4.969898,1.8700237 5.0836688,1.7665717 5.2069294,1.6742497 5.3389035,1.5938834 5.4786988,1.5262877 5.625539,1.4722809 5.7785916,1.4326922 5.9370382,1.4083364 6.1000568,1.4000355 H 8.900054 l 0.1629583,0.0083 0.1583919,0.024356 0.1530054,0.039589 0.1467979,0.054007 0.1397705,0.067596 0.1319213,0.080366 0.1232499,0.092322 0.1137638,0.103452 0.103452,0.1137638 0.09232,0.12325 0.08037,0.1319212 0.0676,0.1397706 0.054,0.1467979 0.03959,0.1530067 0.02435,0.1583902 0.0083,0.1629586 -0.0083,0.1630186 -0.02435,0.1584467 -0.03959,0.1530526 -0.054,0.1468402 -0.0676,0.1398023 -0.08037,0.1319495 -0.09232,0.1232782 -0.103452,0.1137779 -0.1137638,0.1034697 -0.1232499,0.09233 -0.1319213,0.080377 -0.1397705,0.067602 -0.1467979,0.054007 -0.1530054,0.039592 -0.1583919,0.024356 -0.1629583,0.0083 v 0" />
    <path
       id="path172"
       style="fill:none;stroke:#1d1d1b;stroke-width:0.0881944;stroke-linecap:butt;stroke-linejoin:miter;stroke-miterlimit:10;stroke-dasharray:none;stroke-opacity:1"
       d="M 8.900054,127.09991 H 6.1000568 l -0.1630186,-0.008 -0.1584466,-0.0244 -0.1530526,-0.0396 -0.1468402,-0.054 -0.1397953,-0.0676 -0.1319741,-0.0804 -0.1232606,-0.0923 -0.1137708,-0.10345 -0.1034697,-0.11376 -0.092322,-0.12325 -0.080398,-0.13192 -0.067592,-0.13977 -0.05401,-0.1468 -0.039582,-0.15301 -0.024377,-0.15839 -0.00829,-0.16296 0.00829,-0.16296 0.024377,-0.15839 0.039582,-0.153 0.05401,-0.1468 0.067592,-0.13977 0.080398,-0.13192 0.092322,-0.12325 0.1034697,-0.11377 0.1137708,-0.10345 0.1232606,-0.0923 0.1319741,-0.0804 0.1397953,-0.0676 0.1468402,-0.054 0.1530526,-0.0396 0.1584466,-0.0243 0.1630186,-0.008 H 8.900054 l 0.1629583,0.008 0.1583919,0.0243 0.1530054,0.0396 0.1467979,0.054 0.1397705,0.0676 0.1319213,0.0804 0.1232499,0.0923 0.1137638,0.10345 0.103452,0.11377 0.09232,0.12325 0.08037,0.13192 0.0676,0.13977 0.054,0.1468 0.03959,0.153 0.02435,0.15839 0.0083,0.16296 -0.0083,0.16296 -0.02435,0.15839 -0.03959,0.15301 -0.054,0.1468 -0.0676,0.13977 -0.08037,0.13192 -0.09232,0.12325 -0.103452,0.11376 -0.1137638,0.10345 -0.1232499,0.0923 -0.1319213,0.0804 -0.1397705,0.0676 -0.1467979,0.054 -0.1530054,0.0396 -0.1583919,0.0244 -0.1629583,0.008 v 0" />
    <path
       id="path176"
       style="fill:none;stroke:#1d1d1b;stroke-width:0.0881944;stroke-linecap:butt;stroke-linejoin:miter;stroke-miterlimit:10;stroke-dasharray:none;stroke-opacity:1"
       d="M 34.200147,4.6000827 H 31.40015 l -0.163019,-0.0083 -0.158446,-0.024356 -0.153053,-0.039592 -0.14684,-0.054007 -0.139795,-0.067602 -0.131975,-0.080377 -0.12326,-0.09233 -0.113771,-0.1034662 -0.10347,-0.1137814 -0.09232,-0.1232782 -0.0804,-0.1319495 -0.06759,-0.1398023 -0.05401,-0.1468402 -0.03958,-0.1530526 -0.02438,-0.1584467 -0.0083,-0.1630186 0.0083,-0.1629586 0.02438,-0.1583902 0.03958,-0.1530067 0.05401,-0.1467979 0.06759,-0.1397706 0.0804,-0.1319212 0.09232,-0.12325 0.10347,-0.1137638 0.113771,-0.103452 0.12326,-0.092322 0.131975,-0.080366 0.139795,-0.067596 0.14684,-0.054007 0.153053,-0.039589 0.158446,-0.024356 0.163019,-0.0083 h 2.799997 l 0.162958,0.0083 0.158392,0.024356 0.153006,0.039589 0.146797,0.054007 0.139771,0.067596 0.131921,0.080366 0.12325,0.092322 0.113764,0.103452 0.103452,0.1137638 0.09232,0.12325 0.08037,0.1319212 0.0676,0.1397706 0.054,0.1467979 0.03959,0.1530067 0.02435,0.1583902 0.0083,0.1629586 -0.0083,0.1630186 -0.02435,0.1584467 -0.03959,0.1530526 -0.054,0.1468402 -0.0676,0.1398023 -0.08037,0.1319495 -0.09232,0.1232782 -0.103452,0.1137779 -0.113764,0.1034697 -0.12325,0.09233 -0.131921,0.080377 -0.139771,0.067602 -0.146797,0.054007 -0.153006,0.039592 -0.158392,0.024356 -0.162958,0.0083 v 0" />
    <path
       id="path180"
       style="fill:none;stroke:#1d1d1b;stroke-width:0.0881944;stroke-linecap:butt;stroke-linejoin:miter;stroke-miterlimit:10;stroke-dasharray:none;stroke-opacity:1"
       d="M 34.200147,127.09991 H 31.40015 l -0.163019,-0.008 -0.158446,-0.0244 -0.153053,-0.0396 -0.14684,-0.054 -0.139795,-0.0676 -0.131975,-0.0804 -0.12326,-0.0923 -0.113771,-0.10345 -0.10347,-0.11376 -0.09232,-0.12325 -0.0804,-0.13192 -0.06759,-0.13977 -0.05401,-0.1468 -0.03958,-0.15301 -0.02438,-0.15839 -0.0083,-0.16296 0.0083,-0.16296 0.02438,-0.15839 0.03958,-0.153 0.05401,-0.1468 0.06759,-0.13977 0.0804,-0.13192 0.09232,-0.12325 0.10347,-0.11377 0.113771,-0.10345 0.12326,-0.0923 0.131975,-0.0804 0.139795,-0.0676 0.14684,-0.054 0.153053,-0.0396 0.158446,-0.0243 0.163019,-0.008 h 2.799997 l 0.162958,0.008 0.158392,0.0243 0.153006,0.0396 0.146797,0.054 0.139771,0.0676 0.131921,0.0804 0.12325,0.0923 0.113764,0.10345 0.103452,0.11377 0.09232,0.12325 0.08037,0.13192 0.0676,0.13977 0.054,0.1468 0.03959,0.153 0.02435,0.15839 0.0083,0.16296 -0.0083,0.16296 -0.02435,0.15839 -0.03959,0.15301 -0.054,0.1468 -0.0676,0.13977 -0.08037,0.13192 -0.09232,0.12325 -0.103452,0.11376 -0.113764,0.10345 -0.12325,0.0923 -0.131921,0.0804 -0.139771,0.0676 -0.146797,0.054 -0.153006,0.0396 -0.158392,0.0244 -0.162958,0.008 v 0" />
  </g>
  <g
     sodipodi:insensitive="true"
     style="display:inline"
     inkscape:label="F.Mask"
     inkscape:groupmode="layer"
     id="g1719">
    <g
       transform="matrix(0.35277777,0,0,-0.35277777,0,128.50001)"
       id="g32">
      <g
         id="g34"
         clip-path="url(#clipPath38)">
        <g
           id="g40"
           transform="translate(86.6182,303.315)">
          <path
             d="M 0,0 C 1.591,0 2.88,1.29 2.88,2.88 2.88,4.471 1.591,5.76 0,5.76 -1.591,5.76 -2.88,4.471 -2.88,2.88 -2.88,1.29 -1.591,0 0,0"
             style="fill:none;stroke:#adadad;stroke-width:0.144;stroke-linecap:round;stroke-linejoin:round;stroke-miterlimit:10;stroke-dasharray:none;stroke-opacity:1"
             id="path42" />
        </g>
        <g
           id="g44"
           transform="translate(29.0181,297.231)">
          <path
             d="m 0,0 c 4.951,0 8.964,4.013 8.964,8.964 0,4.951 -4.013,8.964 -8.964,8.964 -4.951,0 -8.964,-4.013 -8.964,-8.964 C -8.964,4.013 -4.951,0 0,0"
             style="fill:none;stroke:#adadad;stroke-width:0.36;stroke-linecap:round;stroke-linejoin:round;stroke-miterlimit:10;stroke-dasharray:none;stroke-opacity:1"
             id="path46" />
        </g>
        <g
           id="g48"
           transform="translate(86.6182,252.9151)">
          <path
             d="M 0,0 C 1.591,0 2.88,1.29 2.88,2.88 2.88,4.471 1.591,5.76 0,5.76 -1.591,5.76 -2.88,4.471 -2.88,2.88 -2.88,1.29 -1.591,0 0,0"
             style="fill:none;stroke:#adadad;stroke-width:0.144;stroke-linecap:round;stroke-linejoin:round;stroke-miterlimit:10;stroke-dasharray:none;stroke-opacity:1"
             id="path50" />
        </g>
        <g
           id="g52"
           transform="translate(29.0181,246.8311)">
          <path
             d="m 0,0 c 4.951,0 8.964,4.013 8.964,8.964 0,4.951 -4.013,8.964 -8.964,8.964 -4.951,0 -8.964,-4.013 -8.964,-8.964 C -8.964,4.013 -4.951,0 0,0"
             style="fill:none;stroke:#adadad;stroke-width:0.36;stroke-linecap:round;stroke-linejoin:round;stroke-miterlimit:10;stroke-dasharray:none;stroke-opacity:1"
             id="path54" />
        </g>
        <g
           id="g56"
           transform="translate(57.8179,52.4307)">
          <path
             d="m 0,0 c 4.951,0 8.964,4.014 8.964,8.964 0,4.951 -4.013,8.965 -8.964,8.965 -4.951,0 -8.964,-4.014 -8.964,-8.965 C -8.964,4.014 -4.951,0 0,0"
             style="fill:none;stroke:#adadad;stroke-width:0.36;stroke-linecap:round;stroke-linejoin:round;stroke-miterlimit:10;stroke-dasharray:none;stroke-opacity:1"
             id="path58" />
        </g>
        <g
           id="g60"
           transform="translate(50.6182,113.5947)">
          <path
             d="M 0,0 V -10.8"
             style="fill:none;stroke:#adadad;stroke-width:0.576;stroke-linecap:round;stroke-linejoin:round;stroke-miterlimit:10;stroke-dasharray:none;stroke-opacity:1"
             id="path62" />
        </g>
        <g
           id="g64"
           transform="translate(50.6182,102.7949)">
          <path
             d="m 0,0 c 2.982,-3.977 8.623,-4.782 12.6,-1.8 3.976,2.983 4.782,8.623 1.799,12.6 C 11.418,14.776 5.776,15.582 1.8,12.6 1.118,12.089 0.512,11.482 0,10.8"
             style="fill:none;stroke:#adadad;stroke-width:0.72;stroke-linecap:round;stroke-linejoin:round;stroke-miterlimit:10;stroke-dasharray:none;stroke-opacity:1"
             id="path66" />
        </g>
        <g
           id="g68"
           transform="translate(90.2178,52.4307)">
          <path
             d="m 0,0 c 4.951,0 8.964,4.014 8.964,8.964 0,4.951 -4.013,8.965 -8.964,8.965 -4.95,0 -8.964,-4.014 -8.964,-8.965 C -8.964,4.014 -4.95,0 0,0"
             style="fill:none;stroke:#adadad;stroke-width:0.36;stroke-linecap:round;stroke-linejoin:round;stroke-miterlimit:10;stroke-dasharray:none;stroke-opacity:1"
             id="path70" />
        </g>
        <g
           id="g72"
           transform="translate(25.418,52.4307)">
          <path
             d="m 0,0 c 4.951,0 8.964,4.014 8.964,8.964 0,4.951 -4.013,8.965 -8.964,8.965 -4.951,0 -8.964,-4.014 -8.964,-8.965 C -8.964,4.014 -4.951,0 0,0"
             style="fill:none;stroke:#adadad;stroke-width:0.36;stroke-linecap:round;stroke-linejoin:round;stroke-miterlimit:10;stroke-dasharray:none;stroke-opacity:1"
             id="path74" />
        </g>
        <g
           id="g76"
           transform="translate(86.6182,152.1152)">
          <path
             d="M 0,0 C 1.591,0 2.88,1.289 2.88,2.88 2.88,4.471 1.591,5.76 0,5.76 -1.591,5.76 -2.88,4.471 -2.88,2.88 -2.88,1.289 -1.591,0 0,0"
             style="fill:none;stroke:#adadad;stroke-width:0.144;stroke-linecap:round;stroke-linejoin:round;stroke-miterlimit:10;stroke-dasharray:none;stroke-opacity:1"
             id="path78" />
        </g>
        <g
           id="g80"
           transform="translate(29.0181,146.0313)">
          <path
             d="m 0,0 c 4.951,0 8.964,4.013 8.964,8.964 0,4.95 -4.013,8.964 -8.964,8.964 -4.951,0 -8.964,-4.014 -8.964,-8.964 C -8.964,4.013 -4.951,0 0,0"
             style="fill:none;stroke:#adadad;stroke-width:0.36;stroke-linecap:round;stroke-linejoin:round;stroke-miterlimit:10;stroke-dasharray:none;stroke-opacity:1"
             id="path82" />
        </g>
        <g
           id="g84"
           transform="translate(25.1841,108.1953)">
          <path
             d="M 0,0 H 7.668"
             style="fill:none;stroke:#6db965;stroke-width:7.668;stroke-linecap:round;stroke-linejoin:round;stroke-miterlimit:10;stroke-dasharray:none;stroke-opacity:1"
             id="path86" />
        </g>
        <g
           id="g88"
           transform="translate(32.8521,106.2783)">
          <path
             d="M 0,0 C 1.059,0 1.917,0.858 1.917,1.917 1.917,2.976 1.059,3.834 0,3.834"
             style="fill:none;stroke:#6db965;stroke-width:3.834;stroke-linecap:round;stroke-linejoin:round;stroke-miterlimit:10;stroke-dasharray:none;stroke-opacity:1"
             id="path90" />
        </g>
        <g
           id="g92"
           transform="translate(25.1841,110.1123)">
          <path
             d="m 0,0 c -1.059,0 -1.917,-0.858 -1.917,-1.917 0,-1.059 0.858,-1.917 1.917,-1.917"
             style="fill:none;stroke:#6db965;stroke-width:3.834;stroke-linecap:round;stroke-linejoin:round;stroke-miterlimit:10;stroke-dasharray:none;stroke-opacity:1"
             id="path94" />
        </g>
        <g
           id="g96"
           transform="translate(86.6182,202.5152)">
          <path
             d="M 0,0 C 1.591,0 2.88,1.289 2.88,2.88 2.88,4.47 1.591,5.76 0,5.76 -1.591,5.76 -2.88,4.47 -2.88,2.88 -2.88,1.289 -1.591,0 0,0"
             style="fill:none;stroke:#adadad;stroke-width:0.144;stroke-linecap:round;stroke-linejoin:round;stroke-miterlimit:10;stroke-dasharray:none;stroke-opacity:1"
             id="path98" />
        </g>
        <g
           id="g100"
           transform="translate(29.0181,196.4312)">
          <path
             d="m 0,0 c 4.951,0 8.964,4.013 8.964,8.964 0,4.951 -4.013,8.964 -8.964,8.964 -4.951,0 -8.964,-4.013 -8.964,-8.964 C -8.964,4.013 -4.951,0 0,0"
             style="fill:none;stroke:#adadad;stroke-width:0.36;stroke-linecap:round;stroke-linejoin:round;stroke-miterlimit:10;stroke-dasharray:none;stroke-opacity:1"
             id="path102" />
        </g>
      </g>
    </g>
    <g
       transform="matrix(0.35277777,0,0,-0.35277777,0,128.50001)"
       id="g182">
      <g
         id="g184"
         clip-path="url(#clipPath188)">
        <g
           id="g190">
          <g
             id="g192" />
          <g
             id="g202">
            <g
               clip-path="url(#clipPath196)"
               opacity="0"
               id="g200">
              <path
                 d="M 110.754,282.292 H 62.566 v 48.189 h 48.188 z"
                 style="fill:#998675;fill-opacity:1;fill-rule:nonzero;stroke:none"
                 id="path198" />
            </g>
          </g>
        </g>
      </g>
    </g>
    <g
       id="g204"
       transform="matrix(0.35277777,0,0,-0.35277777,37.816824,18.472781)">
      <path
         d="M 0,0 -9.584,-2.568"
         style="fill:none;stroke:#010101;stroke-width:0.5;stroke-linecap:butt;stroke-linejoin:miter;stroke-miterlimit:10;stroke-dasharray:none;stroke-opacity:1"
         id="path206" />
    </g>
    <g
       id="g208"
       transform="matrix(0.35277777,0,0,-0.35277777,26.708452,21.449167)">
      <path
         d="M 0,0 -9.583,-2.568"
         style="fill:none;stroke:#010101;stroke-width:0.5;stroke-linecap:butt;stroke-linejoin:miter;stroke-miterlimit:10;stroke-dasharray:none;stroke-opacity:1"
         id="path210" />
    </g>
    <g
       id="g212"
       transform="matrix(0.35277777,0,0,-0.35277777,37.06749,16.663914)">
      <path
         d="M 0,0 -8.592,-4.96"
         style="fill:none;stroke:#010101;stroke-width:0.5;stroke-linecap:butt;stroke-linejoin:miter;stroke-miterlimit:10;stroke-dasharray:none;stroke-opacity:1"
         id="path214" />
    </g>
    <g
       id="g216"
       transform="matrix(0.35277777,0,0,-0.35277777,27.108079,22.413979)">
      <path
         d="M 0,0 -8.592,-4.96"
         style="fill:none;stroke:#010101;stroke-width:0.5;stroke-linecap:butt;stroke-linejoin:miter;stroke-miterlimit:10;stroke-dasharray:none;stroke-opacity:1"
         id="path218" />
    </g>
    <g
       id="g220"
       transform="matrix(0.35277777,0,0,-0.35277777,33.40054,23.242337)">
      <path
         d="M 0,0 9.021,-9.02"
         style="fill:none;stroke:#010101;stroke-width:1;stroke-linecap:butt;stroke-linejoin:miter;stroke-miterlimit:10;stroke-dasharray:none;stroke-opacity:1"
         id="path222" />
    </g>
    <g
       id="g224"
       transform="matrix(0.35277777,0,0,-0.35277777,35.875489,15.110704)">
      <path
         d="M 0,0 -7.016,-7.015"
         style="fill:none;stroke:#010101;stroke-width:0.5;stroke-linecap:butt;stroke-linejoin:miter;stroke-miterlimit:10;stroke-dasharray:none;stroke-opacity:1"
         id="path226" />
    </g>
    <g
       id="g228"
       transform="matrix(0.35277777,0,0,-0.35277777,34.322102,13.918703)">
      <path
         d="M 0,0 -4.96,-8.592"
         style="fill:none;stroke:#010101;stroke-width:0.5;stroke-linecap:butt;stroke-linejoin:miter;stroke-miterlimit:10;stroke-dasharray:none;stroke-opacity:1"
         id="path230" />
    </g>
    <g
       id="g232"
       transform="matrix(0.35277777,0,0,-0.35277777,32.513445,13.169579)">
      <path
         d="M 0,0 -2.568,-9.583"
         style="fill:none;stroke:#010101;stroke-width:0.5;stroke-linecap:butt;stroke-linejoin:miter;stroke-miterlimit:10;stroke-dasharray:none;stroke-opacity:1"
         id="path234" />
    </g>
    <g
       id="g236"
       transform="matrix(0.35277777,0,0,-0.35277777,28.63116,13.169579)">
      <path
         d="M 0,0 2.567,-9.583"
         style="fill:none;stroke:#010101;stroke-width:0.5;stroke-linecap:butt;stroke-linejoin:miter;stroke-miterlimit:10;stroke-dasharray:none;stroke-opacity:1"
         id="path238" />
    </g>
    <g
       id="g240"
       transform="matrix(0.35277777,0,0,-0.35277777,26.822151,13.918703)">
      <path
         d="M 0,0 4.961,-8.592"
         style="fill:none;stroke:#010101;stroke-width:0.5;stroke-linecap:butt;stroke-linejoin:miter;stroke-miterlimit:10;stroke-dasharray:none;stroke-opacity:1"
         id="path242" />
    </g>
    <g
       id="g244"
       transform="matrix(0.35277777,0,0,-0.35277777,25.269084,15.110704)">
      <path
         d="M 0,0 7.015,-7.015"
         style="fill:none;stroke:#010101;stroke-width:0.5;stroke-linecap:butt;stroke-linejoin:miter;stroke-miterlimit:10;stroke-dasharray:none;stroke-opacity:1"
         id="path246" />
    </g>
    <g
       id="g248"
       transform="matrix(0.35277777,0,0,-0.35277777,24.077083,16.663914)">
      <path
         d="M 0,0 8.592,-4.96"
         style="fill:none;stroke:#010101;stroke-width:0.5;stroke-linecap:butt;stroke-linejoin:miter;stroke-miterlimit:10;stroke-dasharray:none;stroke-opacity:1"
         id="path250" />
    </g>
    <g
       id="g252"
       transform="matrix(0.35277777,0,0,-0.35277777,34.036492,22.413979)">
      <path
         d="M 0,0 8.592,-4.96"
         style="fill:none;stroke:#010101;stroke-width:0.5;stroke-linecap:butt;stroke-linejoin:miter;stroke-miterlimit:10;stroke-dasharray:none;stroke-opacity:1"
         id="path254" />
    </g>
    <g
       id="g256"
       transform="matrix(0.35277777,0,0,-0.35277777,23.327783,18.472781)">
      <path
         d="M 0,0 9.583,-2.568"
         style="fill:none;stroke:#010101;stroke-width:0.5;stroke-linecap:butt;stroke-linejoin:miter;stroke-miterlimit:10;stroke-dasharray:none;stroke-opacity:1"
         id="path258" />
    </g>
    <g
       id="g260"
       transform="matrix(0.35277777,0,0,-0.35277777,34.435801,21.449167)">
      <path
         d="M 0,0 9.584,-2.568"
         style="fill:none;stroke:#010101;stroke-width:0.5;stroke-linecap:butt;stroke-linejoin:miter;stroke-miterlimit:10;stroke-dasharray:none;stroke-opacity:1"
         id="path262" />
    </g>
    <g
       id="g264"
       transform="matrix(0.35277777,0,0,-0.35277777,30.572109,11.914008)">
      <path
         d="M 0,0 V -12.756"
         style="fill:none;stroke:#010101;stroke-width:1;stroke-linecap:butt;stroke-linejoin:miter;stroke-miterlimit:10;stroke-dasharray:none;stroke-opacity:1"
         id="path266" />
    </g>
    <g
       id="g268"
       transform="matrix(0.35277777,0,0,-0.35277777,27.743714,23.242337)">
      <path
         d="M 0,0 -9.02,-9.02"
         style="fill:none;stroke:#010101;stroke-width:1;stroke-linecap:butt;stroke-linejoin:miter;stroke-miterlimit:10;stroke-dasharray:none;stroke-opacity:1"
         id="path270" />
    </g>
    <g
       id="g272"
       transform="matrix(0.35277777,0,0,-0.35277777,38.072446,20.413906)">
      <path
         d="M 0,0 H -9.922"
         style="fill:none;stroke:#010101;stroke-width:1;stroke-linecap:butt;stroke-linejoin:miter;stroke-miterlimit:10;stroke-dasharray:none;stroke-opacity:1"
         id="path274" />
    </g>
    <g
       id="g276"
       transform="matrix(0.35277777,0,0,-0.35277777,26.57235,20.413906)">
      <path
         d="M 0,0 H -9.922"
         style="fill:none;stroke:#010101;stroke-width:1;stroke-linecap:butt;stroke-linejoin:miter;stroke-miterlimit:10;stroke-dasharray:none;stroke-opacity:1"
         id="path278" />
    </g>
    <g
       transform="matrix(0.35277777,0,0,-0.35277777,0,128.50001)"
       id="g280">
      <g
         id="g282"
         clip-path="url(#clipPath286)">
        <g
           id="g288">
          <g
             id="g290" />
          <g
             id="g300">
            <g
               clip-path="url(#clipPath294)"
               opacity="0"
               id="g298">
              <path
                 d="M 110.713,231.701 H 62.524 v 48.189 h 48.189 z"
                 style="fill:#998675;fill-opacity:1;fill-rule:nonzero;stroke:none"
                 id="path296" />
            </g>
          </g>
        </g>
      </g>
    </g>
    <g
       id="g302"
       transform="matrix(0.35277777,0,0,-0.35277777,37.802008,36.320092)">
      <path
         d="M 0,0 -9.583,-2.568"
         style="fill:none;stroke:#010101;stroke-width:0.5;stroke-linecap:butt;stroke-linejoin:miter;stroke-miterlimit:10;stroke-dasharray:none;stroke-opacity:1"
         id="path304" />
    </g>
    <g
       id="g306"
       transform="matrix(0.35277777,0,0,-0.35277777,26.693635,39.296478)">
      <path
         d="M 0,0 -9.583,-2.568"
         style="fill:none;stroke:#010101;stroke-width:0.5;stroke-linecap:butt;stroke-linejoin:miter;stroke-miterlimit:10;stroke-dasharray:none;stroke-opacity:1"
         id="path308" />
    </g>
    <g
       id="g310"
       transform="matrix(0.35277777,0,0,-0.35277777,37.052708,34.511258)">
      <path
         d="M 0,0 -8.592,-4.96"
         style="fill:none;stroke:#010101;stroke-width:0.5;stroke-linecap:butt;stroke-linejoin:miter;stroke-miterlimit:10;stroke-dasharray:none;stroke-opacity:1"
         id="path312" />
    </g>
    <g
       id="g314"
       transform="matrix(0.35277777,0,0,-0.35277777,27.093262,40.261289)">
      <path
         d="M 0,0 -8.592,-4.96"
         style="fill:none;stroke:#010101;stroke-width:0.5;stroke-linecap:butt;stroke-linejoin:miter;stroke-miterlimit:10;stroke-dasharray:none;stroke-opacity:1"
         id="path316" />
    </g>
    <g
       id="g318"
       transform="matrix(0.35277777,0,0,-0.35277777,33.386077,41.089646)">
      <path
         d="M 0,0 9.02,-9.02"
         style="fill:none;stroke:#010101;stroke-width:1;stroke-linecap:butt;stroke-linejoin:miter;stroke-miterlimit:10;stroke-dasharray:none;stroke-opacity:1"
         id="path320" />
    </g>
    <g
       id="g322"
       transform="matrix(0.35277777,0,0,-0.35277777,35.860672,32.958013)">
      <path
         d="M 0,0 -7.015,-7.015"
         style="fill:none;stroke:#010101;stroke-width:0.5;stroke-linecap:butt;stroke-linejoin:miter;stroke-miterlimit:10;stroke-dasharray:none;stroke-opacity:1"
         id="path324" />
    </g>
    <g
       id="g326"
       transform="matrix(0.35277777,0,0,-0.35277777,34.307637,31.766013)">
      <path
         d="M 0,0 -4.961,-8.592"
         style="fill:none;stroke:#010101;stroke-width:0.5;stroke-linecap:butt;stroke-linejoin:miter;stroke-miterlimit:10;stroke-dasharray:none;stroke-opacity:1"
         id="path328" />
    </g>
    <g
       id="g330"
       transform="matrix(0.35277777,0,0,-0.35277777,32.498628,31.016713)">
      <path
         d="M 0,0 -2.567,-9.583"
         style="fill:none;stroke:#010101;stroke-width:0.5;stroke-linecap:butt;stroke-linejoin:miter;stroke-miterlimit:10;stroke-dasharray:none;stroke-opacity:1"
         id="path332" />
    </g>
    <g
       id="g334"
       transform="matrix(0.35277777,0,0,-0.35277777,28.616344,31.016713)">
      <path
         d="M 0,0 2.567,-9.583"
         style="fill:none;stroke:#010101;stroke-width:0.5;stroke-linecap:butt;stroke-linejoin:miter;stroke-miterlimit:10;stroke-dasharray:none;stroke-opacity:1"
         id="path336" />
    </g>
    <g
       id="g338"
       transform="matrix(0.35277777,0,0,-0.35277777,26.807652,31.766013)">
      <path
         d="M 0,0 4.96,-8.592"
         style="fill:none;stroke:#010101;stroke-width:0.5;stroke-linecap:butt;stroke-linejoin:miter;stroke-miterlimit:10;stroke-dasharray:none;stroke-opacity:1"
         id="path340" />
    </g>
    <g
       id="g342"
       transform="matrix(0.35277777,0,0,-0.35277777,25.254267,32.958013)">
      <path
         d="M 0,0 7.016,-7.015"
         style="fill:none;stroke:#010101;stroke-width:0.5;stroke-linecap:butt;stroke-linejoin:miter;stroke-miterlimit:10;stroke-dasharray:none;stroke-opacity:1"
         id="path344" />
    </g>
    <g
       id="g346"
       transform="matrix(0.35277777,0,0,-0.35277777,24.062266,34.511258)">
      <path
         d="M 0,0 8.592,-4.96"
         style="fill:none;stroke:#010101;stroke-width:0.5;stroke-linecap:butt;stroke-linejoin:miter;stroke-miterlimit:10;stroke-dasharray:none;stroke-opacity:1"
         id="path348" />
    </g>
    <g
       id="g350"
       transform="matrix(0.35277777,0,0,-0.35277777,34.021712,40.261289)">
      <path
         d="M 0,0 8.592,-4.96"
         style="fill:none;stroke:#010101;stroke-width:0.5;stroke-linecap:butt;stroke-linejoin:miter;stroke-miterlimit:10;stroke-dasharray:none;stroke-opacity:1"
         id="path352" />
    </g>
    <g
       id="g354"
       transform="matrix(0.35277777,0,0,-0.35277777,23.312966,36.320092)">
      <path
         d="M 0,0 9.583,-2.568"
         style="fill:none;stroke:#010101;stroke-width:0.5;stroke-linecap:butt;stroke-linejoin:miter;stroke-miterlimit:10;stroke-dasharray:none;stroke-opacity:1"
         id="path356" />
    </g>
    <g
       id="g358"
       transform="matrix(0.35277777,0,0,-0.35277777,34.421339,39.296478)">
      <path
         d="M 0,0 9.583,-2.568"
         style="fill:none;stroke:#010101;stroke-width:0.5;stroke-linecap:butt;stroke-linejoin:miter;stroke-miterlimit:10;stroke-dasharray:none;stroke-opacity:1"
         id="path360" />
    </g>
    <g
       id="g362"
       transform="matrix(0.35277777,0,0,-0.35277777,30.557645,29.761318)">
      <path
         d="M 0,0 V -12.756"
         style="fill:none;stroke:#010101;stroke-width:1;stroke-linecap:butt;stroke-linejoin:miter;stroke-miterlimit:10;stroke-dasharray:none;stroke-opacity:1"
         id="path364" />
    </g>
    <g
       id="g366"
       transform="matrix(0.35277777,0,0,-0.35277777,27.729214,41.089646)">
      <path
         d="M 0,0 -9.021,-9.02"
         style="fill:none;stroke:#010101;stroke-width:1;stroke-linecap:butt;stroke-linejoin:miter;stroke-miterlimit:10;stroke-dasharray:none;stroke-opacity:1"
         id="path368" />
    </g>
    <g
       id="g370"
       transform="matrix(0.35277777,0,0,-0.35277777,38.05763,38.26125)">
      <path
         d="M 0,0 H -9.922"
         style="fill:none;stroke:#010101;stroke-width:1;stroke-linecap:butt;stroke-linejoin:miter;stroke-miterlimit:10;stroke-dasharray:none;stroke-opacity:1"
         id="path372" />
    </g>
    <g
       id="g374"
       transform="matrix(0.35277777,0,0,-0.35277777,26.557568,38.26125)">
      <path
         d="M 0,0 H -9.922"
         style="fill:none;stroke:#010101;stroke-width:1;stroke-linecap:butt;stroke-linejoin:miter;stroke-miterlimit:10;stroke-dasharray:none;stroke-opacity:1"
         id="path376" />
    </g>
    <g
       transform="matrix(0.35277777,0,0,-0.35277777,0,128.50001)"
       id="g378">
      <g
         id="g380"
         clip-path="url(#clipPath384)">
        <g
           id="g386">
          <g
             id="g388" />
          <g
             id="g398">
            <g
               clip-path="url(#clipPath392)"
               opacity="0"
               id="g396">
              <path
                 d="M 110.713,181.3 H 62.524 v 48.189 h 48.189 z"
                 style="fill:#998675;fill-opacity:1;fill-rule:nonzero;stroke:none"
                 id="path394" />
            </g>
          </g>
        </g>
      </g>
    </g>
    <g
       id="g400"
       transform="matrix(0.35277777,0,0,-0.35277777,37.802008,54.100055)">
      <path
         d="M 0,0 -9.583,-2.568"
         style="fill:none;stroke:#010101;stroke-width:0.5;stroke-linecap:butt;stroke-linejoin:miter;stroke-miterlimit:10;stroke-dasharray:none;stroke-opacity:1"
         id="path402" />
    </g>
    <g
       id="g404"
       transform="matrix(0.35277777,0,0,-0.35277777,26.693635,57.076441)">
      <path
         d="M 0,0 -9.583,-2.568"
         style="fill:none;stroke:#010101;stroke-width:0.5;stroke-linecap:butt;stroke-linejoin:miter;stroke-miterlimit:10;stroke-dasharray:none;stroke-opacity:1"
         id="path406" />
    </g>
    <g
       id="g408"
       transform="matrix(0.35277777,0,0,-0.35277777,37.052708,52.291223)">
      <path
         d="M 0,0 -8.592,-4.961"
         style="fill:none;stroke:#010101;stroke-width:0.5;stroke-linecap:butt;stroke-linejoin:miter;stroke-miterlimit:10;stroke-dasharray:none;stroke-opacity:1"
         id="path410" />
    </g>
    <g
       id="g412"
       transform="matrix(0.35277777,0,0,-0.35277777,27.093262,58.041254)">
      <path
         d="M 0,0 -8.592,-4.96"
         style="fill:none;stroke:#010101;stroke-width:0.5;stroke-linecap:butt;stroke-linejoin:miter;stroke-miterlimit:10;stroke-dasharray:none;stroke-opacity:1"
         id="path414" />
    </g>
    <g
       id="g416"
       transform="matrix(0.35277777,0,0,-0.35277777,33.386077,58.869612)">
      <path
         d="M 0,0 9.02,-9.02"
         style="fill:none;stroke:#010101;stroke-width:1;stroke-linecap:butt;stroke-linejoin:miter;stroke-miterlimit:10;stroke-dasharray:none;stroke-opacity:1"
         id="path418" />
    </g>
    <g
       id="g420"
       transform="matrix(0.35277777,0,0,-0.35277777,35.860672,50.738013)">
      <path
         d="M 0,0 -7.015,-7.015"
         style="fill:none;stroke:#010101;stroke-width:0.5;stroke-linecap:butt;stroke-linejoin:miter;stroke-miterlimit:10;stroke-dasharray:none;stroke-opacity:1"
         id="path422" />
    </g>
    <g
       id="g424"
       transform="matrix(0.35277777,0,0,-0.35277777,34.307637,49.545976)">
      <path
         d="M 0,0 -4.961,-8.592"
         style="fill:none;stroke:#010101;stroke-width:0.5;stroke-linecap:butt;stroke-linejoin:miter;stroke-miterlimit:10;stroke-dasharray:none;stroke-opacity:1"
         id="path426" />
    </g>
    <g
       id="g428"
       transform="matrix(0.35277777,0,0,-0.35277777,32.498628,48.796853)">
      <path
         d="M 0,0 -2.567,-9.583"
         style="fill:none;stroke:#010101;stroke-width:0.5;stroke-linecap:butt;stroke-linejoin:miter;stroke-miterlimit:10;stroke-dasharray:none;stroke-opacity:1"
         id="path430" />
    </g>
    <g
       id="g432"
       transform="matrix(0.35277777,0,0,-0.35277777,28.616344,48.796853)">
      <path
         d="M 0,0 2.567,-9.583"
         style="fill:none;stroke:#010101;stroke-width:0.5;stroke-linecap:butt;stroke-linejoin:miter;stroke-miterlimit:10;stroke-dasharray:none;stroke-opacity:1"
         id="path434" />
    </g>
    <g
       id="g436"
       transform="matrix(0.35277777,0,0,-0.35277777,26.807652,49.545976)">
      <path
         d="M 0,0 4.96,-8.592"
         style="fill:none;stroke:#010101;stroke-width:0.5;stroke-linecap:butt;stroke-linejoin:miter;stroke-miterlimit:10;stroke-dasharray:none;stroke-opacity:1"
         id="path438" />
    </g>
    <g
       id="g440"
       transform="matrix(0.35277777,0,0,-0.35277777,25.254267,50.738013)">
      <path
         d="M 0,0 7.016,-7.015"
         style="fill:none;stroke:#010101;stroke-width:0.5;stroke-linecap:butt;stroke-linejoin:miter;stroke-miterlimit:10;stroke-dasharray:none;stroke-opacity:1"
         id="path442" />
    </g>
    <g
       id="g444"
       transform="matrix(0.35277777,0,0,-0.35277777,24.062266,52.291223)">
      <path
         d="M 0,0 8.592,-4.961"
         style="fill:none;stroke:#010101;stroke-width:0.5;stroke-linecap:butt;stroke-linejoin:miter;stroke-miterlimit:10;stroke-dasharray:none;stroke-opacity:1"
         id="path446" />
    </g>
    <g
       id="g448"
       transform="matrix(0.35277777,0,0,-0.35277777,34.021712,58.041254)">
      <path
         d="M 0,0 8.592,-4.96"
         style="fill:none;stroke:#010101;stroke-width:0.5;stroke-linecap:butt;stroke-linejoin:miter;stroke-miterlimit:10;stroke-dasharray:none;stroke-opacity:1"
         id="path450" />
    </g>
    <g
       id="g452"
       transform="matrix(0.35277777,0,0,-0.35277777,23.312966,54.100055)">
      <path
         d="M 0,0 9.583,-2.568"
         style="fill:none;stroke:#010101;stroke-width:0.5;stroke-linecap:butt;stroke-linejoin:miter;stroke-miterlimit:10;stroke-dasharray:none;stroke-opacity:1"
         id="path454" />
    </g>
    <g
       id="g456"
       transform="matrix(0.35277777,0,0,-0.35277777,34.421339,57.076441)">
      <path
         d="M 0,0 9.583,-2.568"
         style="fill:none;stroke:#010101;stroke-width:0.5;stroke-linecap:butt;stroke-linejoin:miter;stroke-miterlimit:10;stroke-dasharray:none;stroke-opacity:1"
         id="path458" />
    </g>
    <g
       id="g460"
       transform="matrix(0.35277777,0,0,-0.35277777,30.557645,47.541281)">
      <path
         d="M 0,0 V -12.756"
         style="fill:none;stroke:#010101;stroke-width:1;stroke-linecap:butt;stroke-linejoin:miter;stroke-miterlimit:10;stroke-dasharray:none;stroke-opacity:1"
         id="path462" />
    </g>
    <g
       id="g464"
       transform="matrix(0.35277777,0,0,-0.35277777,27.729214,58.869612)">
      <path
         d="M 0,0 -9.021,-9.02"
         style="fill:none;stroke:#010101;stroke-width:1;stroke-linecap:butt;stroke-linejoin:miter;stroke-miterlimit:10;stroke-dasharray:none;stroke-opacity:1"
         id="path466" />
    </g>
    <g
       id="g468"
       transform="matrix(0.35277777,0,0,-0.35277777,38.05763,56.041216)">
      <path
         d="M 0,0 H -9.922"
         style="fill:none;stroke:#010101;stroke-width:1;stroke-linecap:butt;stroke-linejoin:miter;stroke-miterlimit:10;stroke-dasharray:none;stroke-opacity:1"
         id="path470" />
    </g>
    <g
       id="g472"
       transform="matrix(0.35277777,0,0,-0.35277777,26.557568,56.041216)">
      <path
         d="M 0,0 H -9.922"
         style="fill:none;stroke:#010101;stroke-width:1;stroke-linecap:butt;stroke-linejoin:miter;stroke-miterlimit:10;stroke-dasharray:none;stroke-opacity:1"
         id="path474" />
    </g>
    <g
       transform="matrix(0.35277777,0,0,-0.35277777,0,128.50001)"
       id="g476">
      <g
         id="g478"
         clip-path="url(#clipPath482)">
        <g
           id="g484">
          <g
             id="g486" />
          <g
             id="g496">
            <g
               clip-path="url(#clipPath490)"
               opacity="0"
               id="g494">
              <path
                 d="M 110.756,130.9 H 62.568 v 48.189 h 48.188 z"
                 style="fill:#998675;fill-opacity:1;fill-rule:nonzero;stroke:none"
                 id="path492" />
            </g>
          </g>
        </g>
      </g>
    </g>
    <g
       id="g498"
       transform="matrix(0.35277777,0,0,-0.35277777,37.817494,71.880196)">
      <path
         d="M 0,0 -9.583,-2.567"
         style="fill:none;stroke:#010101;stroke-width:0.5;stroke-linecap:butt;stroke-linejoin:miter;stroke-miterlimit:10;stroke-dasharray:none;stroke-opacity:1"
         id="path500" />
    </g>
    <g
       id="g502"
       transform="matrix(0.35277777,0,0,-0.35277777,26.709121,74.856406)">
      <path
         d="M 0,0 -9.583,-2.568"
         style="fill:none;stroke:#010101;stroke-width:0.5;stroke-linecap:butt;stroke-linejoin:miter;stroke-miterlimit:10;stroke-dasharray:none;stroke-opacity:1"
         id="path504" />
    </g>
    <g
       id="g506"
       transform="matrix(0.35277777,0,0,-0.35277777,37.068194,70.071186)">
      <path
         d="M 0,0 -8.592,-4.961"
         style="fill:none;stroke:#010101;stroke-width:0.5;stroke-linecap:butt;stroke-linejoin:miter;stroke-miterlimit:10;stroke-dasharray:none;stroke-opacity:1"
         id="path508" />
    </g>
    <g
       id="g510"
       transform="matrix(0.35277777,0,0,-0.35277777,27.108785,75.821394)">
      <path
         d="M 0,0 -8.592,-4.96"
         style="fill:none;stroke:#010101;stroke-width:0.5;stroke-linecap:butt;stroke-linejoin:miter;stroke-miterlimit:10;stroke-dasharray:none;stroke-opacity:1"
         id="path512" />
    </g>
    <g
       id="g514"
       transform="matrix(0.35277777,0,0,-0.35277777,33.401246,76.649575)">
      <path
         d="M 0,0 9.021,-9.021"
         style="fill:none;stroke:#010101;stroke-width:1;stroke-linecap:butt;stroke-linejoin:miter;stroke-miterlimit:10;stroke-dasharray:none;stroke-opacity:1"
         id="path516" />
    </g>
    <g
       id="g518"
       transform="matrix(0.35277777,0,0,-0.35277777,35.876193,68.517802)">
      <path
         d="M 0,0 -7.016,-7.016"
         style="fill:none;stroke:#010101;stroke-width:0.5;stroke-linecap:butt;stroke-linejoin:miter;stroke-miterlimit:10;stroke-dasharray:none;stroke-opacity:1"
         id="path520" />
    </g>
    <g
       id="g522"
       transform="matrix(0.35277777,0,0,-0.35277777,34.323126,67.326118)">
      <path
         d="M 0,0 -4.961,-8.592"
         style="fill:none;stroke:#010101;stroke-width:0.5;stroke-linecap:butt;stroke-linejoin:miter;stroke-miterlimit:10;stroke-dasharray:none;stroke-opacity:1"
         id="path524" />
    </g>
    <g
       id="g526"
       transform="matrix(0.35277777,0,0,-0.35277777,32.514117,66.576818)">
      <path
         d="M 0,0 -2.567,-9.583"
         style="fill:none;stroke:#010101;stroke-width:0.5;stroke-linecap:butt;stroke-linejoin:miter;stroke-miterlimit:10;stroke-dasharray:none;stroke-opacity:1"
         id="path528" />
    </g>
    <g
       id="g530"
       transform="matrix(0.35277777,0,0,-0.35277777,28.631832,66.576818)">
      <path
         d="M 0,0 2.567,-9.583"
         style="fill:none;stroke:#010101;stroke-width:0.5;stroke-linecap:butt;stroke-linejoin:miter;stroke-miterlimit:10;stroke-dasharray:none;stroke-opacity:1"
         id="path532" />
    </g>
    <g
       id="g534"
       transform="matrix(0.35277777,0,0,-0.35277777,26.822823,67.326118)">
      <path
         d="M 0,0 4.961,-8.592"
         style="fill:none;stroke:#010101;stroke-width:0.5;stroke-linecap:butt;stroke-linejoin:miter;stroke-miterlimit:10;stroke-dasharray:none;stroke-opacity:1"
         id="path536" />
    </g>
    <g
       id="g538"
       transform="matrix(0.35277777,0,0,-0.35277777,25.269789,68.517802)">
      <path
         d="M 0,0 7.015,-7.016"
         style="fill:none;stroke:#010101;stroke-width:0.5;stroke-linecap:butt;stroke-linejoin:miter;stroke-miterlimit:10;stroke-dasharray:none;stroke-opacity:1"
         id="path540" />
    </g>
    <g
       id="g542"
       transform="matrix(0.35277777,0,0,-0.35277777,24.077788,70.071186)">
      <path
         d="M 0,0 8.592,-4.961"
         style="fill:none;stroke:#010101;stroke-width:0.5;stroke-linecap:butt;stroke-linejoin:miter;stroke-miterlimit:10;stroke-dasharray:none;stroke-opacity:1"
         id="path544" />
    </g>
    <g
       id="g546"
       transform="matrix(0.35277777,0,0,-0.35277777,34.037199,75.821394)">
      <path
         d="M 0,0 8.592,-4.96"
         style="fill:none;stroke:#010101;stroke-width:0.5;stroke-linecap:butt;stroke-linejoin:miter;stroke-miterlimit:10;stroke-dasharray:none;stroke-opacity:1"
         id="path548" />
    </g>
    <g
       id="g550"
       transform="matrix(0.35277777,0,0,-0.35277777,23.328453,71.880196)">
      <path
         d="M 0,0 9.583,-2.567"
         style="fill:none;stroke:#010101;stroke-width:0.5;stroke-linecap:butt;stroke-linejoin:miter;stroke-miterlimit:10;stroke-dasharray:none;stroke-opacity:1"
         id="path552" />
    </g>
    <g
       id="g554"
       transform="matrix(0.35277777,0,0,-0.35277777,34.436825,74.856406)">
      <path
         d="M 0,0 9.583,-2.568"
         style="fill:none;stroke:#010101;stroke-width:0.5;stroke-linecap:butt;stroke-linejoin:miter;stroke-miterlimit:10;stroke-dasharray:none;stroke-opacity:1"
         id="path556" />
    </g>
    <g
       id="g558"
       transform="matrix(0.35277777,0,0,-0.35277777,30.572816,65.321069)">
      <path
         d="M 0,0 V -12.757"
         style="fill:none;stroke:#010101;stroke-width:1;stroke-linecap:butt;stroke-linejoin:miter;stroke-miterlimit:10;stroke-dasharray:none;stroke-opacity:1"
         id="path560" />
    </g>
    <g
       id="g562"
       transform="matrix(0.35277777,0,0,-0.35277777,27.744383,76.649575)">
      <path
         d="M 0,0 -9.02,-9.02"
         style="fill:none;stroke:#010101;stroke-width:1;stroke-linecap:butt;stroke-linejoin:miter;stroke-miterlimit:10;stroke-dasharray:none;stroke-opacity:1"
         id="path564" />
    </g>
    <g
       id="g566"
       transform="matrix(0.35277777,0,0,-0.35277777,38.073118,73.821179)">
      <path
         d="M 0,0 H -9.922"
         style="fill:none;stroke:#010101;stroke-width:1;stroke-linecap:butt;stroke-linejoin:miter;stroke-miterlimit:10;stroke-dasharray:none;stroke-opacity:1"
         id="path568" />
    </g>
    <g
       id="g570"
       transform="matrix(0.35277777,0,0,-0.35277777,26.573057,73.821179)">
      <path
         d="M 0,0 H -9.922"
         style="fill:none;stroke:#010101;stroke-width:1;stroke-linecap:butt;stroke-linejoin:miter;stroke-miterlimit:10;stroke-dasharray:none;stroke-opacity:1"
         id="path572" />
    </g>
    <text
       y="115.26051"
       x="3.948076"
       style="font-variant:normal;font-weight:200;font-stretch:normal;font-size:3.88056px;font-family:'Yanone Kaffeesatz ExtraLight';-inkscape-font-specification:YanoneKaffeesatz-ExtraLight;writing-mode:lr-tb;fill:#1d1d1b;fill-opacity:1;fill-rule:nonzero;stroke:none;stroke-width:0.352777"
       id="text576"><tspan
         style="stroke-width:0.352777"
         x="3.948076 5.4886565 6.7770019 7.6807799 9.2252445 10.765825 11.518656 13.109682 17.413607 19.004633 20.591394 22.135851 26.924845 28.686617 30.463526 32.007988 33.501999 35.279289"
         y="115.26051"
         sodipodi:role="line"
         id="tspan574">RE-TRIG.GATEOUTPUT</tspan></text>
    <text
       y="8.5323067"
       x="11.29607"
       transform="rotate(-10.000097)"
       style="font-variant:normal;font-weight:600;font-stretch:normal;font-size:4.23333px;font-family:SignPainter-HouseScript;-inkscape-font-specification:SignPainter-HouseScriptSemibold;writing-mode:lr-tb;fill:#333333;fill-opacity:1;fill-rule:nonzero;stroke:none;stroke-width:0.352777"
       id="text580"><tspan
         style="fill:#333333;stroke-width:0.352777"
         x="11.29607 13.251873 15.080677 17.019543 18.471577 19.242046"
         y="8.5323067"
         sodipodi:role="line"
         id="tspan578">CURTIS</tspan></text>
    <text
       y="7.363915"
       x="17.806673"
       style="font-variant:normal;font-weight:200;font-stretch:normal;font-size:3.88056px;font-family:'Yanone Kaffeesatz ExtraLight';-inkscape-font-specification:YanoneKaffeesatz-ExtraLight;writing-mode:lr-tb;fill:#1d1d1b;fill-opacity:1;fill-rule:nonzero;stroke:none;stroke-width:0.352777"
       id="text586"><tspan
         style="stroke-width:0.352777"
         x="17.806673 19.315821 20.54207 21.058184 22.641451 24.046213 25.338442"
         y="7.363915"
         sodipodi:role="line"
         id="tspan582">VC ADSR</tspan><tspan
         style="stroke-width:0.352777"
         x="17.853235 19.607248 20.984842 22.234385"
         y="96.962067"
         sodipodi:role="line"
         id="tspan584">ACT.</tspan></text>
    <g
       transform="matrix(0.35277777,0,0,-0.35277777,0,128.50001)"
       id="g588">
      <g
         id="g590"
         clip-path="url(#clipPath594)">
        <g
           id="g596"
           transform="translate(55.9932,10.6123)">
          <path
             d="m 0,0 c 0.591,0.444 1.089,0.814 1.108,0.822 0.019,0.007 0.538,-0.366 1.153,-0.83 0.614,-0.465 1.121,-0.833 1.126,-0.819 0.004,0.013 -0.182,0.622 -0.413,1.352 -0.231,0.732 -0.42,1.345 -0.42,1.363 0,0.018 0.501,0.407 1.113,0.864 0.612,0.457 1.117,0.84 1.121,0.852 C 4.793,3.616 4.168,3.62 3.4,3.612 L 2.004,3.599 1.572,4.988 C 1.333,5.753 1.133,6.379 1.125,6.379 1.117,6.378 0.954,5.871 0.762,5.251 0.57,4.632 0.375,4.006 0.33,3.861 L 0.247,3.599 -1.149,3.612 c -0.768,0.008 -1.395,0.006 -1.394,-0.003 0,-0.009 0.504,-0.393 1.12,-0.853 0.616,-0.46 1.119,-0.854 1.119,-0.873 0,-0.02 -0.189,-0.633 -0.42,-1.362 -0.231,-0.73 -0.42,-1.336 -0.42,-1.349 C -1.144,-0.862 -1.149,-0.866 0,0 m -4.309,3.746 v 7.087 h 0.995 0.994 V 9.727 8.62 h 1.232 1.233 v 1.107 1.106 h 0.98 0.98 V 9.727 8.62 H 3.338 4.57 v 1.107 1.106 H 5.564 6.559 V 3.746 -3.34 H 1.125 -4.309 Z"
             style="fill:#010101;fill-opacity:1;fill-rule:nonzero;stroke:none"
             id="path598" />
        </g>
      </g>
    </g>
    <text
       y="84.084473"
       x="6.7037978"
       style="font-variant:normal;font-weight:200;font-stretch:normal;font-size:3.52777px;font-family:'Yanone Kaffeesatz ExtraLight';-inkscape-font-specification:YanoneKaffeesatz-ExtraLight;writing-mode:lr-tb;fill:#1d1d1b;fill-opacity:1;fill-rule:nonzero;stroke:none;stroke-width:0.352777"
       id="text604"><tspan
         style="stroke-width:0.352777"
         x="6.7037978 8.0549412 9.5859928 11.187609 12.542276"
         y="84.084473"
         sodipodi:role="line"
         id="tspan600">SHORT</tspan><tspan
         style="stroke-width:0.352777"
         x="7.3846602 8.4747486 10.076357 11.730883"
         y="99.250397"
         sodipodi:role="line"
         id="tspan602">LONG</tspan></text>
    <g
       transform="matrix(0.35277777,0,0,-0.35277777,0,128.50001)"
       id="g606">
      <g
         id="g608"
         clip-path="url(#clipPath612)">
        <path
           d="m 53.121,304.571 h 4.746 v -2.121 h -4.746 z m -0.903,-5.502 c -0.155,0 -0.371,0.007 -0.652,0.021 -0.28,0.014 -0.56,0.035 -0.839,0.063 l 3.506,14.259 c 0.057,0.294 0.371,0.441 0.946,0.441 0.196,0 0.395,-0.007 0.598,-0.021 0.203,-0.014 0.374,-0.035 0.515,-0.063 l 3.507,-14.28 c 0.028,-0.14 -0.022,-0.245 -0.148,-0.315 -0.126,-0.07 -0.426,-0.105 -0.902,-0.105 -0.154,0 -0.344,0.003 -0.567,0.01 -0.224,0.007 -0.491,0.018 -0.798,0.032 l -1.533,7.413 c -0.071,0.378 -0.141,0.788 -0.21,1.228 -0.071,0.441 -0.134,0.9 -0.189,1.376 -0.056,0.476 -0.105,0.931 -0.147,1.365 -0.042,-0.434 -0.095,-0.889 -0.158,-1.365 -0.063,-0.476 -0.126,-0.935 -0.189,-1.376 -0.063,-0.44 -0.136,-0.85 -0.22,-1.228 l -1.449,-7.014 c -0.029,-0.14 -0.095,-0.249 -0.2,-0.325 -0.105,-0.078 -0.396,-0.116 -0.871,-0.116"
           style="fill:#1d1d1b;fill-opacity:1;fill-rule:nonzero;stroke:none"
           id="path614" />
        <g
           id="g616"
           transform="translate(54.437,250.6709)">
          <path
             d="M 0,0 H 0.42 C 0.588,0 0.746,0.07 0.893,0.21 1.04,0.35 1.169,0.63 1.281,1.05 1.393,1.47 1.484,2.086 1.554,2.898 1.624,3.709 1.659,4.781 1.659,6.111 1.659,7.049 1.627,7.798 1.564,8.358 1.501,8.917 1.417,9.341 1.312,9.628 1.208,9.915 1.078,10.104 0.924,10.195 0.77,10.286 0.595,10.332 0.399,10.332 H 0 Z m -2.352,-2.226 v 14.28 c 0,0.14 0.042,0.245 0.126,0.315 0.084,0.07 0.238,0.105 0.462,0.105 h 2.016 c 0.7,0 1.309,-0.095 1.827,-0.284 C 2.597,12.001 3.024,11.669 3.36,11.193 3.696,10.717 3.948,10.045 4.116,9.177 4.284,8.309 4.368,7.203 4.368,5.859 4.368,4.459 4.291,3.248 4.137,2.226 3.983,1.204 3.745,0.364 3.423,-0.294 3.101,-0.952 2.688,-1.438 2.184,-1.753 1.68,-2.068 1.071,-2.226 0.357,-2.226 Z"
             style="fill:#1d1d1b;fill-opacity:1;fill-rule:nonzero;stroke:none"
             id="path618" />
        </g>
        <g
           id="g620"
           transform="translate(53.9116,198.0405)">
          <path
             d="m 0,0 c -0.938,0 -1.631,0.144 -2.079,0.431 -0.448,0.286 -0.672,0.612 -0.672,0.975 0,0.239 0.042,0.515 0.126,0.83 0.084,0.315 0.217,0.606 0.399,0.871 0.224,-0.196 0.511,-0.36 0.861,-0.493 0.35,-0.133 0.714,-0.199 1.092,-0.199 0.574,0 0.973,0.147 1.197,0.44 C 1.148,3.149 1.26,3.541 1.26,4.031 1.26,4.396 1.193,4.738 1.061,5.061 0.927,5.383 0.679,5.781 0.315,6.258 L -1.596,8.82 c -0.476,0.644 -0.791,1.204 -0.945,1.68 -0.154,0.476 -0.231,0.945 -0.231,1.407 0,0.952 0.315,1.725 0.945,2.321 0.63,0.594 1.561,0.892 2.793,0.892 1.064,0 1.806,-0.105 2.226,-0.315 0.42,-0.21 0.63,-0.497 0.63,-0.861 0,-0.196 -0.042,-0.409 -0.126,-0.641 -0.084,-0.231 -0.224,-0.458 -0.42,-0.682 -0.112,0.084 -0.343,0.175 -0.693,0.273 -0.35,0.098 -0.728,0.147 -1.134,0.147 -0.518,0 -0.924,-0.088 -1.218,-0.263 -0.294,-0.175 -0.441,-0.444 -0.441,-0.808 0,-0.322 0.06,-0.619 0.179,-0.892 0.118,-0.273 0.311,-0.599 0.577,-0.977 L 2.562,7.518 C 3.066,6.874 3.402,6.293 3.57,5.774 3.738,5.257 3.822,4.696 3.822,4.095 3.822,3.395 3.713,2.733 3.497,2.11 3.279,1.487 2.898,0.979 2.352,0.588 1.806,0.196 1.022,0 0,0"
             style="fill:#1d1d1b;fill-opacity:1;fill-rule:nonzero;stroke:none"
             id="path622" />
        </g>
        <g
           id="g624"
           transform="translate(57.4609,147.7832)">
          <path
             d="m 0,0 c -0.182,0 -0.392,0.008 -0.63,0.021 -0.238,0.014 -0.49,0.029 -0.756,0.042 -0.028,1.232 -0.133,2.25 -0.315,3.056 -0.182,0.805 -0.388,1.435 -0.619,1.89 -0.231,0.455 -0.522,0.871 -0.872,1.249 -0.084,0.196 -0.035,0.344 0.147,0.441 l 1.323,0.756 c 0.224,0 0.371,-0.077 0.441,-0.23 C -0.805,6.763 -0.409,6.269 -0.094,5.744 0.221,5.219 0.507,4.529 0.767,3.675 1.025,2.821 1.176,1.771 1.218,0.525 1.218,0.329 1.158,0.192 1.039,0.116 0.92,0.039 0.574,0 0,0 m -3.255,7.896 h 0.42 c 0.224,0 0.413,0.07 0.567,0.21 0.154,0.14 0.276,0.403 0.368,0.788 0.09,0.384 0.136,0.941 0.136,1.669 0,0.504 -0.031,0.917 -0.094,1.239 -0.063,0.322 -0.162,0.556 -0.294,0.704 -0.134,0.146 -0.312,0.221 -0.536,0.221 H -3.255 Z M -4.914,5.733 c -0.238,0 -0.378,0.042 -0.42,0.126 -0.042,0.084 -0.063,0.238 -0.063,0.462 v 8.022 c 0.028,0.28 0.154,0.421 0.378,0.421 h 1.806 c 0.882,0 1.628,-0.123 2.237,-0.368 C -0.367,14.15 0.095,13.717 0.41,13.094 0.725,12.471 0.882,11.585 0.882,10.438 0.882,9.485 0.767,8.705 0.536,8.096 0.305,7.486 -0.003,7.011 -0.388,6.668 -0.773,6.324 -1.2,6.083 -1.669,5.943 -2.139,5.803 -2.618,5.733 -3.108,5.733 Z m -0.693,-5.67 v 14.28 c 0.07,0.28 0.21,0.421 0.42,0.421 h 1.512 c 0.21,0 0.35,-0.141 0.42,-0.421 V 0.483 C -3.255,0.343 -3.29,0.245 -3.36,0.189 -3.43,0.133 -3.629,0.098 -3.958,0.084 -4.288,0.07 -4.837,0.063 -5.607,0.063"
             style="fill:#1d1d1b;fill-opacity:1;fill-rule:nonzero;stroke:none"
             id="path626" />
        </g>
      </g>
    </g>
  </g>
</svg>
